{"glyphs":{"0":{"ha":947,"x_min":97,"x_max":849,"o":"m 742 139 q 688 63 742 139 q 474 -14 635 -14 q 205 139 313 -14 q 97 521 97 292 q 205 903 97 751 q 474 1056 313 1056 q 742 903 635 1056 q 849 521 849 751 q 742 139 849 292 m 294 218 q 331 157 294 218 q 475 96 368 96 q 654 218 582 96 q 726 521 726 340 q 654 824 726 701 q 475 947 582 947 q 294 824 368 947 q 221 521 221 701 q 294 218 221 340 z "},"1":{"ha":554,"x_min":53,"x_max":386,"o":"m 263 0 l 263 893 l 53 726 l 53 875 l 272 1042 l 386 1042 l 386 0 l 263 0 z "},"2":{"ha":822,"x_min":60,"x_max":756,"o":"m 60 0 l 60 85 q 163 190 96 122 q 531 581 468 504 q 604 735 599 668 q 604 753 604 743 q 549 894 604 844 q 410 947 493 944 q 267 894 324 949 q 211 749 211 840 l 92 750 q 183 972 90 886 q 415 1057 276 1057 q 631 977 544 1056 q 722 769 718 899 q 656 564 726 658 q 313 193 586 469 q 231 110 260 139 l 756 110 l 756 0 l 60 0 z "},"3":{"ha":832,"x_min":83,"x_max":733,"o":"m 549 586 q 683 474 633 547 q 733 308 733 400 q 639 80 733 174 q 408 -14 544 -14 q 178 74 274 -14 q 83 289 83 163 l 206 290 q 265 157 206 213 q 408 101 324 101 q 553 162 494 101 q 613 310 613 222 q 553 457 613 397 q 408 517 494 517 l 326 517 l 325 617 l 401 617 l 403 617 q 519 665 471 617 q 567 783 567 714 q 519 896 567 850 q 403 942 472 942 q 291 898 338 942 q 244 792 244 854 l 126 794 q 206 980 126 904 q 403 1056 286 1056 q 598 980 518 1056 q 678 794 678 904 q 643 673 678 728 q 549 586 608 618 z "},"4":{"ha":840,"x_min":25,"x_max":757,"o":"m 757 329 l 757 219 l 649 219 l 649 0 l 526 0 l 526 219 l 25 219 l 25 299 l 497 1042 l 649 1042 l 649 329 l 757 329 m 167 329 l 526 329 l 526 913 l 167 329 z "},"5":{"ha":858,"x_min":104,"x_max":774,"o":"m 418 -14 q 242 25 325 -14 q 104 132 158 64 l 183 215 q 283 131 222 161 q 413 100 344 100 q 583 168 514 100 q 651 339 651 236 q 583 513 651 443 q 411 582 514 582 q 218 500 296 582 l 114 549 l 172 1039 l 711 1039 l 711 931 l 269 931 l 228 618 q 442 692 313 692 q 679 592 585 692 q 774 343 774 493 q 673 87 774 188 q 418 -14 572 -14 z "},"6":{"ha":901,"x_min":79,"x_max":824,"o":"m 818 358 q 720 102 824 210 q 467 -12 617 -6 q 202 82 314 -18 q 85 329 90 182 q 175 578 79 463 l 538 1042 l 682 1042 l 399 692 q 468 697 426 697 q 710 597 610 696 q 818 358 811 499 m 464 94 q 637 176 569 100 q 697 356 704 253 q 616 528 690 460 q 438 592 542 597 q 267 510 333 586 q 207 329 200 433 q 287 157 213 225 q 464 94 361 89 z "},"7":{"ha":772,"x_min":53,"x_max":747,"o":"m 74 0 l 607 933 l 53 933 l 53 1042 l 747 1042 l 747 960 l 211 0 l 74 0 z "},"8":{"ha":796,"x_min":63,"x_max":733,"o":"m 554 579 q 685 467 636 540 q 733 303 733 393 q 637 78 733 169 q 397 -14 540 -14 q 159 78 256 -14 q 63 303 63 169 q 110 467 63 393 q 240 579 158 540 q 122 794 122 654 q 202 980 122 904 q 399 1056 282 1056 q 594 980 515 1056 q 674 794 674 904 q 554 579 674 654 m 399 956 q 277 907 326 956 q 228 786 228 858 q 277 665 228 714 q 399 615 326 615 q 519 665 469 615 q 568 786 568 714 q 519 907 568 858 q 399 956 469 956 m 247 158 q 278 127 247 158 q 397 96 308 96 q 548 158 486 96 q 610 311 610 221 q 549 461 610 400 q 397 522 488 522 q 247 461 308 522 q 186 311 186 400 q 247 158 186 221 z "},"9":{"ha":901,"x_min":79,"x_max":824,"o":"m 818 713 q 729 464 824 579 l 365 0 l 221 0 l 510 356 q 435 344 486 344 q 193 446 294 347 q 85 685 92 544 q 183 940 79 832 q 438 1054 286 1047 q 701 960 590 1060 q 818 713 813 860 m 464 451 q 635 532 568 456 q 696 713 703 608 q 616 884 690 815 q 438 947 542 953 q 266 866 333 942 q 204 686 199 790 q 285 514 211 582 q 464 451 360 446 z "}," ":{"ha":361,"x_min":0,"x_max":0,"o":""},"!":{"ha":414,"x_min":125,"x_max":288,"o":"m 158 304 l 144 1042 l 268 1042 l 254 304 l 158 304 m 264 10 q 252 -2 264 10 q 207 -14 240 -14 q 149 10 174 -14 q 125 68 125 35 q 149 125 125 101 q 207 149 174 149 q 264 125 240 149 q 288 68 288 101 q 264 10 288 35 z "},"\"":{"ha":606,"x_min":125,"x_max":479,"o":"m 139 647 l 125 1042 l 242 1042 l 228 647 l 139 647 m 376 647 l 364 1042 l 479 1042 l 467 647 l 376 647 z "},"#":{"ha":1078,"x_min":86,"x_max":992,"o":"m 249 0 l 282 242 l 86 242 l 99 333 l 294 333 l 342 651 l 146 651 l 160 742 l 353 742 l 389 985 l 478 985 l 444 742 l 704 742 l 738 985 l 828 985 l 794 742 l 992 742 l 976 651 l 782 651 l 738 333 l 932 333 l 919 242 l 725 242 l 689 0 l 599 0 l 633 242 l 372 242 l 339 0 l 249 0 m 386 333 l 646 333 l 692 651 l 431 651 l 386 333 z "},"$":{"ha":907,"x_min":101,"x_max":794,"o":"m 794 283 q 711 87 794 161 q 508 -4 628 13 l 508 -119 l 400 -119 l 400 -4 q 219 64 299 8 q 101 197 139 119 l 193 250 q 294 140 224 183 q 454 96 364 96 q 618 145 551 96 q 685 278 685 194 q 655 367 685 329 q 578 430 625 406 q 473 475 531 454 q 358 520 415 496 q 253 575 300 544 q 176 658 206 606 q 146 779 146 710 q 219 963 146 894 q 400 1046 293 1032 l 400 1165 l 508 1165 l 508 1044 q 729 924 643 1022 l 656 861 q 569 927 622 901 q 456 953 515 953 q 315 908 374 953 q 256 785 256 863 q 285 695 256 733 q 363 633 315 657 q 467 588 410 610 q 583 542 525 567 q 688 487 640 518 q 765 403 735 456 q 794 283 794 351 z "},"%":{"ha":1044,"x_min":78,"x_max":967,"o":"m 271 613 q 134 677 190 613 q 78 833 78 742 q 134 991 78 926 q 271 1056 190 1056 q 406 991 350 1056 q 463 833 463 926 q 406 678 463 743 q 271 613 350 613 m 101 0 l 814 1042 l 942 1042 l 231 0 l 101 0 m 271 708 q 339 745 310 708 q 368 833 368 782 q 339 923 368 886 q 271 960 310 960 q 202 924 231 960 q 174 833 174 888 q 202 745 174 782 q 271 708 231 708 m 911 51 q 883 19 911 51 q 775 -14 856 -14 q 638 51 694 -14 q 582 208 582 117 q 638 364 582 299 q 775 429 694 429 q 910 365 854 429 q 967 208 967 300 q 911 51 967 117 m 774 82 q 842 119 814 82 q 869 208 869 156 q 842 297 869 260 q 774 333 814 333 q 706 297 735 333 q 678 208 678 260 q 706 119 678 156 q 774 82 735 82 z "},"&":{"ha":1021,"x_min":140,"x_max":965,"o":"m 965 72 l 886 -7 l 742 136 l 682 76 q 457 -15 589 -15 q 233 76 325 -14 q 141 301 140 169 q 233 524 142 432 l 294 583 l 257 621 q 182 801 182 696 q 257 979 182 906 q 436 1053 332 1053 q 617 979 542 1053 q 692 801 692 906 l 581 801 q 538 903 581 861 q 438 944 496 944 q 335 901 378 944 q 292 799 292 858 q 335 697 292 743 l 743 293 l 886 435 l 964 357 l 821 215 l 965 72 m 604 156 l 664 214 l 371 506 l 311 446 q 250 301 250 385 q 311 156 250 217 q 458 94 372 94 q 604 156 543 94 z "},"'":{"ha":367,"x_min":125,"x_max":242,"o":"m 139 647 l 125 1042 l 242 1042 l 228 647 l 139 647 z "},"(":{"ha":561,"x_min":97,"x_max":471,"o":"m 471 -446 q 203 -224 308 -435 q 97 344 97 -14 q 203 917 97 704 q 471 1140 308 1129 l 471 1051 q 282 849 357 1039 q 207 344 207 658 q 282 -156 207 33 q 471 -357 357 -344 l 471 -446 z "},")":{"ha":561,"x_min":90,"x_max":464,"o":"m 90 -446 l 90 -357 q 281 -156 206 -344 q 356 344 356 32 q 281 849 356 660 q 90 1051 206 1039 l 90 1140 q 358 917 253 1129 q 464 344 464 704 q 358 -224 464 -14 q 90 -446 253 -435 z "},"*":{"ha":476,"x_min":69,"x_max":406,"o":"m 183 708 l 125 743 l 199 847 l 69 836 l 69 906 l 199 893 l 125 999 l 183 1033 l 238 918 l 293 1033 l 353 999 l 278 893 l 406 906 l 406 836 l 278 847 l 353 743 l 293 708 l 238 824 l 183 708 z "},"+":{"ha":1113,"x_min":125,"x_max":986,"o":"m 508 0 l 508 382 l 125 382 l 125 479 l 508 479 l 508 861 l 604 861 l 604 479 l 986 479 l 986 382 l 604 382 l 604 0 l 508 0 z "},",":{"ha":293,"x_min":56,"x_max":239,"o":"m 65 -258 l 65 -197 q 135 -150 107 -197 q 163 -57 163 -103 q 136 -12 163 -12 q 79 11 103 -12 q 56 68 56 35 q 79 125 56 101 q 138 149 103 149 q 213 106 188 149 q 239 -3 239 63 q 191 -178 239 -97 q 65 -258 143 -258 z "},"-":{"ha":738,"x_min":125,"x_max":611,"o":"m 125 318 l 125 404 l 611 404 l 611 318 l 125 318 z "},".":{"ha":253,"x_min":46,"x_max":208,"o":"m 184 10 q 172 -2 184 10 q 126 -14 160 -14 q 69 10 93 -14 q 46 68 46 35 q 69 124 46 100 q 126 149 93 149 q 184 124 160 149 q 208 68 208 100 q 184 10 208 35 z "},"/":{"ha":821,"x_min":-25,"x_max":826,"o":"m -25 -347 l 710 1042 l 826 1042 l 94 -347 l -25 -347 z "},":":{"ha":414,"x_min":125,"x_max":288,"o":"m 264 570 q 252 558 264 570 q 207 546 240 546 q 149 570 174 546 q 125 628 125 594 q 149 684 125 660 q 207 708 174 708 q 264 684 240 708 q 288 628 288 660 q 264 570 288 594 m 264 10 q 252 -2 264 10 q 207 -14 240 -14 q 149 10 174 -14 q 125 68 125 35 q 149 124 125 100 q 207 149 174 149 q 264 124 240 149 q 288 68 288 100 q 264 10 288 35 z "},";":{"ha":424,"x_min":128,"x_max":317,"o":"m 266 570 q 254 558 266 570 q 208 546 242 546 q 151 570 175 546 q 128 628 128 594 q 151 684 128 660 q 208 708 175 708 q 266 684 242 708 q 290 628 290 660 q 266 570 290 594 m 138 -258 l 138 -197 q 211 -119 183 -196 q 219 -21 238 -51 q 207 -12 215 -12 q 151 11 174 -12 q 128 68 128 35 q 151 125 128 101 q 208 149 174 149 q 300 48 283 149 q 268 -155 317 -53 q 138 -258 219 -257 z "},"<":{"ha":1018,"x_min":125,"x_max":892,"o":"m 892 921 l 892 815 l 224 479 l 892 142 l 892 36 l 125 424 l 125 536 l 892 921 z "},"=":{"ha":1001,"x_min":83,"x_max":917,"o":"m 83 460 l 83 542 l 917 542 l 917 460 l 83 460 m 83 194 l 83 276 l 917 276 l 917 194 l 83 194 z "},">":{"ha":1018,"x_min":125,"x_max":892,"o":"m 125 921 l 892 536 l 892 424 l 125 36 l 125 142 l 793 479 l 125 815 l 125 921 z "},"?":{"ha":778,"x_min":83,"x_max":693,"o":"m 332 293 l 332 379 q 351 483 332 440 q 397 544 369 525 q 458 582 425 563 q 518 618 490 601 q 565 671 546 635 q 583 760 583 707 q 528 890 583 839 q 388 940 474 940 q 250 888 304 940 q 194 754 196 835 l 83 754 q 170 965 83 881 q 388 1049 257 1049 q 606 966 519 1049 q 693 760 693 883 q 667 633 693 685 q 606 557 642 582 q 533 512 569 532 q 470 463 496 492 q 444 392 444 435 l 444 293 l 332 293 m 393 -14 q 337 10 361 -14 q 313 68 313 33 q 337 124 313 100 q 393 149 361 149 q 451 124 426 149 q 475 68 475 100 q 451 10 475 33 q 393 -14 426 -14 z "},"@":{"ha":842,"x_min":83,"x_max":717,"o":"m 717 207 l 640 207 l 640 254 q 504 192 585 192 q 379 242 431 192 q 328 367 328 293 q 379 490 328 439 q 504 540 431 540 q 579 522 542 540 q 640 474 617 503 l 640 508 q 583 633 640 582 q 444 685 526 685 q 244 597 326 685 q 161 383 161 510 q 253 166 161 254 q 479 78 346 78 l 717 78 l 717 0 l 479 0 q 198 111 313 0 q 83 383 83 222 q 188 652 83 542 q 444 763 293 763 q 638 689 560 763 q 717 508 717 615 l 717 207 m 532 258 q 599 279 569 258 q 640 333 629 300 l 640 400 q 599 453 629 433 q 532 474 569 474 q 450 443 483 474 q 417 367 417 413 q 450 289 417 319 q 532 258 483 258 z "},"A":{"ha":1032,"x_min":26,"x_max":1004,"o":"m 867 0 l 782 218 l 249 218 l 164 0 l 26 0 l 444 1042 l 586 1042 l 1004 0 l 867 0 m 289 325 l 742 325 l 515 911 l 289 325 z "},"B":{"ha":896,"x_min":104,"x_max":829,"o":"m 617 536 q 771 444 713 513 q 829 276 829 376 q 747 77 829 154 q 542 0 664 0 l 104 0 l 104 1042 l 460 1042 q 666 964 582 1042 q 750 764 750 886 q 617 536 750 607 m 572 626 q 598 653 572 626 q 624 753 624 679 q 572 878 624 826 q 446 929 519 929 l 231 929 l 231 574 l 446 574 q 572 626 519 574 m 525 113 q 651 165 599 113 q 703 292 703 218 q 651 416 703 364 q 525 468 599 468 l 231 468 l 231 113 l 525 113 z "},"C":{"ha":928,"x_min":71,"x_max":863,"o":"m 579 -14 q 215 141 360 -14 q 71 521 71 296 q 215 901 71 746 q 579 1056 360 1056 q 863 958 736 1056 l 863 806 q 579 935 743 935 q 299 816 408 935 q 190 521 190 697 q 299 226 190 344 q 579 107 408 107 q 863 236 746 107 l 863 83 q 579 -14 736 -14 z "},"D":{"ha":988,"x_min":104,"x_max":917,"o":"m 104 0 l 104 1042 l 396 1042 q 764 889 611 1042 q 917 521 917 736 q 764 153 917 306 q 396 0 611 0 l 104 0 m 231 113 l 396 113 q 676 231 561 113 q 790 521 790 350 q 676 810 790 692 q 396 929 561 929 l 231 929 l 231 113 z "},"E":{"ha":753,"x_min":104,"x_max":681,"o":"m 681 929 l 231 929 l 231 578 l 622 578 l 622 464 l 231 464 l 231 113 l 681 113 l 681 0 l 104 0 l 104 1042 l 681 1042 l 681 929 z "},"F":{"ha":733,"x_min":104,"x_max":681,"o":"m 681 929 l 231 929 l 231 578 l 622 578 l 622 464 l 231 464 l 231 0 l 104 0 l 104 1042 l 681 1042 l 681 929 z "},"G":{"ha":1028,"x_min":99,"x_max":924,"o":"m 628 935 q 335 819 454 935 q 217 517 217 704 q 335 214 217 329 q 628 99 454 99 q 811 142 722 99 l 811 443 l 569 443 l 569 557 l 924 557 l 924 67 q 626 -22 782 -22 q 251 128 404 -22 q 99 517 99 279 q 251 905 99 754 q 624 1056 403 1056 q 924 967 782 1056 l 924 808 q 791 901 869 868 q 628 935 713 935 z "},"H":{"ha":1015,"x_min":104,"x_max":911,"o":"m 785 1042 l 911 1042 l 911 0 l 785 0 l 785 464 l 231 464 l 231 0 l 104 0 l 104 1042 l 231 1042 l 231 578 l 785 578 l 785 1042 z "},"I":{"ha":335,"x_min":104,"x_max":231,"o":"m 104 0 l 104 1042 l 231 1042 l 231 0 l 104 0 z "},"J":{"ha":526,"x_min":69,"x_max":415,"o":"m 172 -14 q 69 0 108 -14 l 69 129 q 172 113 119 113 q 254 147 219 113 q 289 229 289 181 l 289 1042 l 415 1042 l 415 229 q 344 57 415 128 q 172 -14 272 -14 z "},"K":{"ha":867,"x_min":104,"x_max":826,"o":"m 826 125 l 826 -42 l 231 535 l 231 0 l 104 0 l 104 1042 l 231 1042 l 231 604 l 658 1042 l 822 1042 l 361 574 l 826 125 z "},"L":{"ha":660,"x_min":104,"x_max":613,"o":"m 104 0 l 104 1042 l 231 1042 l 231 113 l 613 113 l 613 0 l 104 0 z "},"M":{"ha":1258,"x_min":104,"x_max":1154,"o":"m 1021 1042 l 1154 1042 l 1154 0 l 1029 0 l 1029 858 l 628 256 l 231 857 l 231 0 l 104 0 l 104 1042 l 239 1042 l 629 461 l 1021 1042 z "},"N":{"ha":1081,"x_min":104,"x_max":976,"o":"m 851 1042 l 976 1042 l 976 0 l 856 0 l 231 838 l 231 0 l 104 0 l 104 1042 l 225 1042 l 851 203 l 851 1042 z "},"O":{"ha":1158,"x_min":71,"x_max":1088,"o":"m 579 -14 q 215 141 360 -14 q 71 521 71 296 q 215 901 71 746 q 579 1056 360 1056 q 942 901 797 1056 q 1088 521 1088 746 q 942 141 1088 296 q 579 -14 797 -14 m 299 226 q 354 166 299 226 q 579 107 408 107 q 858 226 750 107 q 967 521 967 344 q 858 816 967 697 q 579 935 750 935 q 299 816 408 935 q 190 521 190 697 q 299 226 190 344 z "},"P":{"ha":817,"x_min":104,"x_max":779,"o":"m 486 1042 q 694 956 608 1042 q 779 749 779 869 q 694 542 779 626 q 486 458 608 458 l 231 458 l 231 0 l 104 0 l 104 1042 l 486 1042 m 479 564 q 609 615 556 564 q 663 747 663 667 q 608 877 663 825 q 479 929 554 929 l 231 929 l 231 564 l 479 564 z "},"Q":{"ha":1149,"x_min":71,"x_max":1122,"o":"m 1079 119 l 1122 119 l 1122 0 l 1074 0 q 942 64 1006 0 l 904 104 q 579 -14 767 -14 q 215 141 360 -14 q 71 521 71 296 q 215 901 71 746 q 579 1056 360 1056 q 942 901 797 1056 q 1088 521 1088 746 q 982 189 1088 332 l 1026 142 q 1079 119 1049 119 m 579 107 q 821 190 719 107 l 653 367 l 733 447 l 897 276 q 967 521 967 383 q 858 816 967 697 q 579 935 750 935 q 299 816 408 935 q 190 521 190 697 q 299 226 190 344 q 579 107 408 107 z "},"R":{"ha":822,"x_min":104,"x_max":806,"o":"m 543 472 l 806 0 l 664 0 l 415 465 l 231 465 l 231 0 l 104 0 l 104 1042 l 486 1042 q 693 956 607 1042 q 779 747 779 869 q 712 566 779 643 q 543 472 644 489 m 231 569 l 483 569 q 610 622 558 569 q 663 750 663 675 q 610 877 663 825 q 483 929 557 929 l 231 929 l 231 569 z "},"S":{"ha":874,"x_min":58,"x_max":806,"o":"m 451 -14 q 219 42 325 -14 q 58 188 114 97 l 150 281 q 265 155 182 203 q 456 107 349 107 q 615 148 554 107 q 678 272 676 189 q 663 344 678 311 q 627 398 647 376 q 567 442 607 419 q 499 475 526 464 q 421 506 472 486 q 333 540 363 528 q 256 578 303 553 q 186 630 210 604 q 144 696 163 656 q 125 785 125 736 q 217 984 125 913 q 446 1056 308 1056 q 653 1016 563 1056 q 799 911 744 976 l 714 825 q 449 946 633 946 q 308 907 364 946 q 253 794 253 868 q 266 740 253 765 q 297 696 279 714 q 350 659 315 678 q 411 629 385 640 q 482 601 438 618 q 549 574 526 583 q 612 546 571 565 q 674 511 653 526 q 725 470 696 496 q 769 418 754 444 q 794 356 783 392 q 806 279 806 319 q 707 60 806 135 q 451 -14 608 -14 z "},"T":{"ha":764,"x_min":35,"x_max":731,"o":"m 731 1042 l 731 931 l 446 931 l 446 0 l 319 0 l 319 931 l 35 931 l 35 1042 l 731 1042 z "},"U":{"ha":1014,"x_min":111,"x_max":904,"o":"m 788 90 q 730 38 788 90 q 507 -14 672 -14 q 226 90 342 -14 q 111 342 111 193 l 111 1042 l 238 1042 l 238 363 q 316 176 238 253 q 507 99 394 99 q 698 176 619 99 q 776 363 776 253 l 776 1042 l 904 1042 l 904 342 q 788 90 904 193 z "},"V":{"ha":997,"x_min":8,"x_max":988,"o":"m 844 1042 l 988 1042 l 569 0 l 426 0 l 8 1042 l 151 1042 l 499 146 l 844 1042 z "},"W":{"ha":1504,"x_min":-14,"x_max":1518,"o":"m 1382 1042 l 1518 1042 l 1079 0 l 942 0 l 753 447 l 564 0 l 428 0 l -14 1042 l 124 1042 l 500 150 l 689 597 l 501 1042 l 632 1042 l 1006 150 l 1382 1042 z "},"X":{"ha":903,"x_min":26,"x_max":875,"o":"m 875 0 l 729 0 l 450 425 l 172 0 l 26 0 l 381 529 l 36 1042 l 182 1042 l 450 633 l 719 1042 l 865 1042 l 519 529 l 875 0 z "},"Y":{"ha":907,"x_min":26,"x_max":881,"o":"m 881 1042 l 518 494 l 518 0 l 390 0 l 390 492 l 26 1042 l 169 1042 l 454 601 l 739 1042 l 881 1042 z "},"Z":{"ha":915,"x_min":63,"x_max":851,"o":"m 236 113 l 851 113 l 851 0 l 63 0 l 63 67 l 661 929 l 78 929 l 78 1042 l 835 1042 l 835 975 l 236 113 z "},"[":{"ha":382,"x_min":110,"x_max":396,"o":"m 110 -465 l 110 1160 l 396 1160 l 396 1065 l 217 1065 l 217 -371 l 396 -371 l 396 -465 l 110 -465 z "},"\\":{"ha":821,"x_min":-25,"x_max":826,"o":"m 710 -347 l -25 1042 l 94 1042 l 826 -347 l 710 -347 z "},"]":{"ha":382,"x_min":110,"x_max":396,"o":"m 110 -465 l 110 -371 l 289 -371 l 289 1065 l 110 1065 l 110 1160 l 396 1160 l 396 -465 l 110 -465 z "},"^":{"ha":969,"x_min":42,"x_max":926,"o":"m 926 275 l 821 275 l 485 943 l 147 275 l 42 275 l 428 1042 l 540 1042 l 926 275 z "},"_":{"ha":946,"x_min":125,"x_max":819,"o":"m 125 -85 l 125 0 l 819 0 l 819 -85 l 125 -85 z "},"`":{"ha":69,"x_min":42,"x_max":293,"o":"m 194 826 l 42 1042 l 168 1042 l 293 826 l 194 826 z "},"a":{"ha":746,"x_min":63,"x_max":647,"o":"m 360 708 q 567 641 486 708 q 647 444 647 574 l 647 0 l 539 0 l 532 99 q 275 -14 406 -14 q 122 46 182 -14 q 63 199 63 106 q 147 361 63 303 q 400 392 231 419 l 526 371 l 526 453 q 478 566 526 528 q 354 604 431 604 q 168 508 232 604 l 83 583 q 360 708 169 708 m 188 204 q 219 126 188 156 q 303 96 250 96 q 526 201 411 96 l 526 281 l 413 300 q 240 292 292 322 q 188 204 188 263 z "},"b":{"ha":826,"x_min":104,"x_max":771,"o":"m 451 708 q 683 605 596 708 q 771 347 771 501 q 683 90 771 193 q 451 -14 596 -14 q 219 100 307 -14 l 214 0 l 104 0 l 104 1042 l 225 1042 l 225 601 q 451 708 314 708 m 432 96 q 592 167 532 96 q 651 347 651 239 q 592 528 651 456 q 432 600 532 600 q 301 550 358 600 q 225 422 244 500 l 225 272 q 301 145 244 194 q 432 96 358 96 z "},"c":{"ha":618,"x_min":56,"x_max":563,"o":"m 383 -14 q 144 88 233 -14 q 56 347 56 189 q 144 607 56 506 q 383 708 233 708 q 563 653 490 708 l 563 529 q 396 604 494 604 q 235 532 294 604 q 176 347 176 460 q 235 163 176 235 q 396 90 294 90 q 563 165 497 90 l 563 43 q 383 -14 490 -14 z "},"d":{"ha":826,"x_min":56,"x_max":722,"o":"m 603 1042 l 722 1042 l 722 0 l 613 0 l 607 100 q 375 -14 518 -14 q 143 90 231 -14 q 56 347 56 193 q 143 605 56 501 q 375 708 231 708 q 603 600 515 708 l 603 1042 m 394 96 q 526 145 468 96 q 603 272 583 194 l 603 422 q 526 550 583 500 q 394 600 468 600 q 235 528 294 600 q 176 347 176 456 q 235 167 176 239 q 394 96 294 96 z "},"e":{"ha":757,"x_min":56,"x_max":701,"o":"m 701 347 q 700 307 701 321 l 175 307 q 240 151 185 208 q 390 93 296 93 q 497 119 454 93 q 582 208 540 144 l 668 149 q 386 -14 578 -14 q 145 87 235 -14 q 56 346 56 188 q 146 606 56 504 q 386 708 236 708 q 617 608 532 708 q 701 347 701 508 m 389 603 q 246 549 300 603 q 178 403 192 494 l 590 403 q 528 549 581 496 q 389 603 476 603 z "},"f":{"ha":511,"x_min":56,"x_max":544,"o":"m 296 843 l 296 694 l 478 694 l 478 599 l 296 599 l 296 0 l 172 0 l 172 599 l 56 599 l 56 694 l 172 694 l 172 850 q 235 996 172 936 q 386 1056 297 1056 q 544 983 485 1056 l 475 908 q 388 953 442 953 q 322 922 347 953 q 296 843 296 890 z "},"g":{"ha":828,"x_min":56,"x_max":724,"o":"m 613 694 l 724 694 l 724 8 q 634 -247 724 -147 q 396 -347 544 -347 q 182 -282 276 -347 l 182 -149 q 404 -239 276 -239 q 548 -172 493 -239 q 603 8 603 -104 l 603 96 q 375 -14 514 -14 q 143 90 231 -14 q 56 347 56 193 q 143 606 56 503 q 375 708 231 708 q 607 593 517 708 l 613 694 m 394 96 q 524 146 467 96 q 603 274 582 196 l 603 421 q 524 550 582 500 q 394 600 467 600 q 235 528 294 600 q 176 347 176 456 q 235 168 176 240 q 394 96 294 96 z "},"h":{"ha":817,"x_min":104,"x_max":718,"o":"m 447 708 q 641 632 564 708 q 718 439 718 556 l 718 0 l 594 0 l 594 425 q 543 550 594 500 q 414 600 492 600 q 281 547 336 600 q 226 419 226 494 l 226 0 l 104 0 l 104 1042 l 226 1042 l 226 607 q 447 708 313 708 z "},"i":{"ha":379,"x_min":108,"x_max":271,"o":"m 247 847 q 235 835 247 847 q 190 824 224 824 q 133 847 157 824 q 108 903 108 869 q 133 961 108 938 q 190 985 157 985 q 247 960 222 985 q 271 903 271 936 q 247 847 271 869 m 128 0 l 128 694 l 250 694 l 250 0 l 128 0 z "},"j":{"ha":368,"x_min":-35,"x_max":288,"o":"m 264 847 q 252 835 264 847 q 207 824 240 824 q 149 847 174 824 q 125 903 125 869 q 149 961 125 938 q 207 985 174 985 q 264 961 240 985 q 288 903 288 938 q 264 847 288 869 m 56 -361 q -35 -339 -3 -361 l -35 -232 q 42 -258 -1 -258 q 116 -227 86 -258 q 146 -149 146 -196 l 146 694 l 268 694 l 268 -156 q 206 -301 268 -242 q 56 -361 144 -361 z "},"k":{"ha":704,"x_min":104,"x_max":688,"o":"m 688 81 l 688 -69 l 226 344 l 226 0 l 104 0 l 104 1042 l 226 1042 l 226 424 l 521 694 l 676 694 l 344 389 l 688 81 z "},"l":{"ha":454,"x_min":110,"x_max":468,"o":"m 322 -14 q 167 44 225 -14 q 110 194 110 101 l 110 1042 l 232 1042 l 233 194 q 325 92 233 92 q 400 124 369 92 l 468 40 q 322 -14 417 -14 z "},"m":{"ha":1251,"x_min":104,"x_max":1153,"o":"m 894 708 q 1080 635 1007 708 q 1153 447 1153 561 l 1153 0 l 1029 0 l 1029 433 q 982 552 1029 504 q 864 600 935 600 q 740 549 790 600 q 690 426 690 499 l 690 0 l 567 0 l 567 433 q 519 552 567 504 q 401 600 472 600 q 278 549 329 600 q 226 426 226 499 l 226 0 l 104 0 l 104 694 l 217 694 l 222 610 q 433 708 303 708 q 565 675 507 708 q 656 582 622 642 q 757 674 694 640 q 894 708 819 708 z "},"n":{"ha":817,"x_min":104,"x_max":718,"o":"m 447 708 q 641 632 564 708 q 718 439 718 556 l 718 0 l 594 0 l 594 425 q 543 550 594 500 q 414 600 492 600 q 281 547 336 600 q 226 419 226 494 l 226 0 l 104 0 l 104 694 l 217 694 l 222 603 q 447 708 310 708 z "},"o":{"ha":788,"x_min":56,"x_max":733,"o":"m 394 -14 q 150 90 244 -14 q 56 347 56 194 q 150 605 56 501 q 394 708 244 708 q 638 604 543 708 q 733 347 733 500 q 638 90 733 194 q 394 -14 543 -14 m 394 96 q 553 168 493 96 q 613 347 613 240 q 552 528 613 456 q 394 600 492 600 q 235 528 294 600 q 176 347 176 456 q 235 167 176 239 q 394 96 294 96 z "},"p":{"ha":826,"x_min":104,"x_max":771,"o":"m 451 708 q 683 605 596 708 q 771 347 771 501 q 683 90 771 193 q 451 -14 596 -14 q 225 93 314 -14 l 225 -347 l 104 -347 l 104 694 l 225 694 l 225 601 q 451 708 314 708 m 432 96 q 592 167 532 96 q 651 347 651 239 q 592 528 651 456 q 432 600 532 600 q 301 550 358 600 q 225 422 244 500 l 225 272 q 301 145 244 194 q 432 96 358 96 z "},"q":{"ha":826,"x_min":56,"x_max":722,"o":"m 603 694 l 722 694 l 722 -347 l 603 -347 l 603 94 q 375 -14 515 -14 q 143 90 231 -14 q 56 347 56 193 q 143 605 56 501 q 375 708 231 708 q 603 600 515 708 l 603 694 m 394 96 q 526 145 468 96 q 603 272 583 194 l 603 422 q 526 550 583 500 q 394 600 468 600 q 235 528 294 600 q 176 347 176 456 q 235 167 176 239 q 394 96 294 96 z "},"r":{"ha":554,"x_min":104,"x_max":579,"o":"m 428 708 q 579 667 524 708 l 519 578 q 422 600 479 600 q 285 540 344 600 q 226 389 226 479 l 226 0 l 104 0 l 104 694 l 217 694 l 222 589 q 428 708 306 708 z "},"s":{"ha":658,"x_min":51,"x_max":606,"o":"m 336 -14 q 171 17 251 -14 q 51 93 90 47 l 115 176 q 203 115 140 140 q 329 88 267 89 q 438 113 394 85 q 482 188 482 140 q 472 225 482 208 q 449 252 461 242 q 409 274 438 263 q 365 291 381 286 q 313 307 350 296 q 258 325 275 319 q 208 344 242 331 q 158 370 175 357 q 122 403 142 383 q 94 449 103 424 q 86 506 86 475 q 162 652 86 596 q 342 708 238 708 q 473 687 407 708 q 582 631 539 665 l 514 547 q 363 610 454 603 q 258 590 304 614 q 211 521 211 567 q 223 476 211 496 q 262 443 235 457 q 310 422 289 429 q 374 401 332 414 q 441 381 418 389 q 501 356 464 374 q 556 320 538 339 q 590 269 575 301 q 606 197 606 238 q 528 46 606 106 q 336 -14 451 -14 z "},"t":{"ha":485,"x_min":32,"x_max":481,"o":"m 413 124 l 481 40 q 335 -14 429 -14 q 181 44 239 -14 q 122 194 122 101 l 122 599 l 32 599 l 32 694 l 122 694 l 122 931 l 244 931 l 244 694 l 433 694 l 433 599 l 246 599 l 246 194 q 338 92 246 92 q 413 124 382 92 z "},"u":{"ha":825,"x_min":107,"x_max":721,"o":"m 597 694 l 721 694 l 721 0 l 608 0 l 601 93 q 381 -14 517 -14 q 186 67 265 -14 q 107 263 107 147 l 107 694 l 229 694 l 229 275 q 282 148 229 200 q 411 96 335 96 q 543 148 489 96 q 597 275 597 200 l 597 694 z "},"v":{"ha":696,"x_min":11,"x_max":685,"o":"m 554 694 l 685 694 l 407 0 l 289 0 l 11 694 l 142 694 l 349 144 l 554 694 z "},"w":{"ha":996,"x_min":13,"x_max":983,"o":"m 847 694 l 983 694 l 746 0 l 611 0 l 496 331 l 385 0 l 251 0 l 13 694 l 151 694 l 325 147 l 439 490 l 368 694 l 489 694 l 671 144 l 847 694 z "},"x":{"ha":711,"x_min":-8,"x_max":719,"o":"m 719 694 l 429 347 l 719 0 l 569 0 l 356 257 l 142 0 l -8 0 l 281 347 l -8 694 l 139 694 l 356 436 l 571 694 l 719 694 z "},"y":{"ha":825,"x_min":107,"x_max":721,"o":"m 721 694 l 721 -18 q 634 -262 721 -168 q 386 -356 547 -356 q 144 -289 247 -356 l 144 -156 q 396 -246 249 -246 q 547 -186 496 -246 q 597 -18 597 -126 l 597 89 q 381 -14 514 -14 q 186 67 265 -14 q 107 263 107 147 l 107 694 l 229 694 l 229 275 q 282 148 229 200 q 411 96 335 96 q 543 148 489 96 q 597 275 597 200 l 597 694 l 721 694 z "},"z":{"ha":733,"x_min":67,"x_max":667,"o":"m 67 0 l 67 86 l 494 592 l 75 592 l 75 694 l 657 694 l 657 611 l 229 103 l 667 103 l 667 0 l 67 0 z "},"{":{"ha":458,"x_min":69,"x_max":385,"o":"m 319 -449 q 215 -394 257 -449 q 174 -260 174 -340 l 174 76 q 155 227 174 181 q 69 304 136 274 l 69 388 q 155 466 136 419 q 174 615 174 513 l 174 946 q 215 1081 174 1026 q 319 1135 257 1135 l 385 1135 l 385 1049 q 295 1026 319 1049 q 271 938 271 1004 l 271 594 q 252 447 271 506 q 176 346 233 388 q 252 245 233 304 q 271 97 271 186 l 271 -251 q 295 -332 271 -308 q 385 -356 319 -356 l 385 -449 l 319 -449 z "},"|":{"ha":404,"x_min":161,"x_max":242,"o":"m 161 -208 l 161 1042 l 242 1042 l 242 -208 l 161 -208 z "},"}":{"ha":458,"x_min":74,"x_max":388,"o":"m 74 -449 l 74 -356 q 163 -332 139 -356 q 188 -251 188 -308 l 188 97 q 206 245 188 186 q 281 346 225 304 q 206 447 225 388 q 188 594 188 506 l 188 938 q 163 1026 188 1004 q 74 1049 139 1049 l 74 1140 l 139 1140 q 242 1085 201 1140 q 283 951 283 1031 l 283 615 q 302 467 283 513 q 388 388 321 421 l 388 304 q 303 227 322 274 q 283 76 283 181 l 283 -260 q 242 -394 283 -340 q 139 -449 201 -449 l 74 -449 z "},"~":{"ha":781,"x_min":51,"x_max":731,"o":"m 539 249 q 460 267 497 249 q 405 303 422 286 q 361 351 388 321 q 246 422 300 422 q 156 377 190 422 q 125 265 122 332 l 57 265 q 106 427 51 364 q 246 490 160 490 q 418 389 338 490 q 533 315 476 315 q 624 359 589 315 q 654 472 658 403 l 722 472 q 677 313 731 378 q 539 249 624 249 z "},"¡":{"ha":414,"x_min":125,"x_max":288,"o":"m 264 556 q 252 544 264 556 q 207 532 240 532 q 149 556 174 532 q 125 614 125 579 q 149 670 125 646 q 207 694 174 694 q 264 670 240 694 q 288 614 288 646 q 264 556 288 579 m 144 -347 l 158 390 l 254 390 l 268 -347 l 144 -347 z "},"¢":{"ha":729,"x_min":71,"x_max":631,"o":"m 446 739 q 267 665 340 739 q 193 486 193 592 q 267 308 193 381 q 446 235 340 235 q 631 300 561 235 l 631 178 q 461 125 557 129 l 461 -1 l 383 -1 l 383 129 q 160 251 249 151 q 71 486 71 351 q 160 721 71 621 q 383 843 249 821 l 383 974 l 461 974 l 461 847 q 631 796 553 843 l 631 672 q 446 739 560 739 z "},"£":{"ha":846,"x_min":50,"x_max":785,"o":"m 257 89 l 785 89 l 785 0 l 161 0 l 161 468 l 50 468 l 50 553 l 161 553 l 161 736 q 249 966 161 876 q 472 1056 336 1056 q 655 994 571 1056 q 765 838 739 932 l 674 797 q 601 913 660 867 q 472 958 543 958 q 316 898 375 958 q 257 736 257 838 l 257 553 l 515 553 l 515 468 l 257 468 l 257 89 z "},"¤":{"ha":840,"x_min":103,"x_max":739,"o":"m 169 185 l 103 256 l 174 325 q 114 504 114 404 q 174 683 114 604 l 104 751 l 171 822 l 242 750 q 421 811 321 811 q 600 751 521 811 l 671 822 l 739 754 l 668 685 q 728 504 728 604 q 668 324 728 404 l 739 256 l 672 185 l 600 257 q 420 197 521 197 q 240 257 319 197 l 169 185 m 269 354 q 421 291 333 292 q 571 354 508 290 q 632 505 632 417 q 571 654 632 593 q 421 715 508 715 q 271 653 333 715 q 209 503 210 592 q 269 354 208 415 z "},"¥":{"ha":936,"x_min":56,"x_max":879,"o":"m 522 503 l 522 492 l 803 492 l 803 410 l 522 410 l 522 276 l 803 276 l 803 200 l 522 200 l 522 0 l 414 0 l 414 200 l 136 200 l 136 276 l 414 276 l 414 410 l 136 410 l 136 492 l 414 492 l 414 503 l 56 1042 l 174 1042 l 467 589 l 763 1042 l 879 1042 l 522 503 z "},"¦":{"ha":404,"x_min":161,"x_max":242,"o":"m 161 542 l 161 1042 l 242 1042 l 242 542 l 161 542 m 161 -208 l 161 292 l 242 292 l 242 -208 l 161 -208 z "},"§":{"ha":860,"x_min":90,"x_max":774,"o":"m 718 344 q 772 221 772 294 q 674 63 772 124 q 436 3 575 3 q 224 48 318 3 q 90 163 129 93 l 169 208 q 269 122 197 156 q 440 89 340 89 q 610 124 540 89 q 679 222 679 160 q 624 306 679 274 q 488 360 568 339 q 328 405 408 381 q 193 478 249 429 q 138 601 138 528 q 193 726 138 675 q 139 847 139 776 q 226 1000 139 944 q 435 1056 314 1056 q 592 1028 518 1056 q 713 956 667 1001 l 649 903 q 440 975 572 975 q 293 942 354 975 q 232 851 232 908 q 288 767 232 800 q 423 713 343 733 q 583 667 503 692 q 718 594 663 643 q 774 469 774 544 q 718 344 774 400 m 232 604 q 294 513 232 547 q 473 449 357 479 q 642 393 589 418 q 679 471 679 426 q 635 546 679 514 q 536 593 592 578 q 399 632 481 608 q 269 678 317 656 q 232 604 232 649 z "},"¨":{"ha":69,"x_min":86,"x_max":508,"o":"m 225 847 q 213 835 225 847 q 168 824 201 824 q 110 847 135 824 q 86 903 86 869 q 110 961 86 938 q 168 985 135 985 q 225 961 201 985 q 249 903 249 938 q 225 847 249 869 m 485 847 q 473 835 485 847 q 428 824 461 824 q 371 847 394 824 q 347 903 347 869 q 371 960 347 936 q 428 985 394 985 q 485 961 461 985 q 508 903 508 938 q 485 847 508 869 z "},"©":{"ha":1211,"x_min":71,"x_max":1140,"o":"m 983 143 q 905 65 983 143 q 606 -14 826 -14 q 228 143 385 -14 q 71 521 71 300 q 228 899 71 742 q 606 1056 385 1056 q 983 899 826 1056 q 1140 521 1140 742 q 983 143 1140 300 m 278 193 q 345 126 278 193 q 606 58 413 58 q 934 193 799 58 q 1069 521 1069 328 q 935 849 1069 714 q 606 985 800 985 q 278 849 413 985 q 143 521 143 714 q 278 193 143 328 m 624 242 q 423 322 506 242 q 340 515 340 401 q 423 711 340 631 q 624 792 506 792 q 771 749 706 792 l 771 668 l 765 665 q 628 715 707 715 q 483 659 542 715 q 424 515 424 603 q 483 373 424 429 q 628 317 542 317 q 764 364 708 317 l 771 364 l 771 285 q 624 242 706 242 z "},"ª":{"ha":568,"x_min":44,"x_max":492,"o":"m 426 1042 l 492 1042 l 492 625 l 426 625 l 426 714 q 256 617 368 617 q 106 680 168 617 q 44 833 44 743 q 106 987 44 924 q 256 1050 168 1050 q 355 1024 310 1050 q 426 951 400 997 l 426 1042 m 267 674 q 380 721 333 674 q 426 833 426 768 q 380 945 426 899 q 267 992 333 992 q 156 945 201 992 q 110 833 110 899 q 156 721 110 768 q 267 674 201 674 z "},"«":{"ha":886,"x_min":154,"x_max":733,"o":"m 365 132 l 154 388 l 365 643 l 469 643 l 258 388 l 469 132 l 365 132 m 628 132 l 417 388 l 628 643 l 733 643 l 522 388 l 733 132 l 628 132 z "},"¬":{"ha":1088,"x_min":125,"x_max":961,"o":"m 879 163 l 879 518 l 125 518 l 125 600 l 961 600 l 961 163 l 879 163 z "},"­":{"ha":826,"x_min":125,"x_max":611,"o":"m 125 318 l 125 404 l 611 404 l 611 318 l 125 318 z "},"®":{"ha":1211,"x_min":71,"x_max":1140,"o":"m 228 899 q 306 977 228 899 q 606 1056 385 1056 q 983 899 826 1056 q 1140 521 1140 742 q 983 143 1140 300 q 606 -14 826 -14 q 228 143 385 -14 q 71 521 71 300 q 228 899 71 742 m 278 193 q 345 126 278 193 q 606 58 413 58 q 934 193 799 58 q 1069 521 1069 328 q 935 849 1069 714 q 606 985 800 985 q 278 849 413 985 q 143 521 143 714 q 278 193 143 328 m 797 638 q 767 545 797 586 q 690 489 738 504 l 821 250 l 747 250 l 618 482 l 529 482 l 529 250 l 464 250 l 464 792 l 640 792 q 751 747 706 792 q 797 638 797 701 m 529 725 l 529 547 l 640 547 q 704 574 678 547 q 731 638 731 600 q 704 699 731 674 q 640 725 678 725 l 529 725 z "},"¯":{"ha":85,"x_min":42,"x_max":472,"o":"m 42 835 l 42 917 l 472 917 l 472 835 l 42 835 z "},"°":{"ha":679,"x_min":153,"x_max":525,"o":"m 339 683 q 208 738 263 683 q 153 869 153 793 q 208 1001 153 946 q 339 1056 263 1056 q 471 1001 417 1056 q 525 869 525 947 q 471 738 525 792 q 339 683 417 683 m 339 749 q 425 783 390 749 q 460 869 460 818 q 425 956 460 921 q 339 990 390 990 q 253 956 289 990 q 218 869 218 921 q 253 783 218 818 q 339 749 289 749 z "},"±":{"ha":1097,"x_min":69,"x_max":1028,"o":"m 590 596 l 1028 596 l 1028 514 l 590 514 l 590 264 l 508 264 l 508 514 l 69 514 l 69 596 l 508 596 l 508 846 l 590 846 l 590 596 m 69 0 l 69 76 l 1028 76 l 1028 0 l 69 0 z "},"²":{"ha":474,"x_min":60,"x_max":407,"o":"m 60 528 l 60 574 q 290 817 251 771 q 328 903 328 863 q 301 972 328 947 q 233 999 274 997 q 163 972 190 999 q 136 901 136 946 l 74 901 q 119 1013 72 969 q 236 1056 167 1056 q 345 1017 301 1056 q 390 914 389 978 q 353 803 392 853 q 149 585 314 753 l 407 585 l 407 528 l 60 528 z "},"³":{"ha":508,"x_min":83,"x_max":410,"o":"m 319 821 q 410 683 410 779 q 363 568 410 615 q 247 521 315 521 q 131 565 179 521 q 83 672 83 608 l 147 674 q 177 608 147 635 q 247 582 207 582 q 317 612 289 582 q 346 683 346 642 q 317 756 346 726 q 247 785 289 785 l 206 785 l 206 838 l 243 838 q 300 860 278 838 q 322 919 322 883 q 300 973 322 951 q 243 994 278 994 q 189 974 211 994 q 167 924 167 953 l 104 925 q 145 1018 104 981 q 243 1056 186 1056 q 341 1018 300 1056 q 382 925 382 981 q 319 821 382 858 z "},"´":{"ha":69,"x_min":42,"x_max":293,"o":"m 42 826 l 167 1042 l 293 1042 l 142 826 l 42 826 z "},"µ":{"ha":826,"x_min":111,"x_max":725,"o":"m 603 694 l 725 694 l 725 0 l 603 0 l 603 100 q 383 -14 518 -14 q 206 53 281 -14 l 206 -347 l 111 -347 l 111 694 l 235 694 l 235 275 q 288 148 235 200 q 415 96 340 96 q 548 148 493 96 q 603 275 603 200 l 603 694 z "},"¶":{"ha":863,"x_min":139,"x_max":696,"o":"m 429 -208 l 429 576 l 386 576 q 204 637 269 576 q 139 810 139 697 q 204 982 139 922 q 386 1042 269 1042 l 497 1042 l 497 -208 l 429 -208 m 626 -208 l 626 1042 l 696 1042 l 696 -208 l 626 -208 z "},"·":{"ha":381,"x_min":125,"x_max":256,"o":"m 236 454 q 226 445 236 454 q 190 436 217 436 q 144 454 164 436 q 125 500 125 472 q 144 546 125 526 q 190 565 164 565 q 236 546 217 565 q 256 500 256 526 q 236 454 256 472 z "},"¸":{"ha":69,"x_min":42,"x_max":344,"o":"m 203 -361 q 109 -335 156 -361 q 42 -274 63 -310 l 100 -249 q 145 -284 115 -269 q 203 -299 175 -299 q 258 -276 236 -299 q 281 -219 281 -253 q 240 -152 281 -171 q 142 -156 200 -133 l 92 -122 l 153 0 l 217 0 l 171 -93 q 294 -116 243 -79 q 344 -219 344 -153 q 303 -319 344 -278 q 203 -361 263 -361 z "},"¹":{"ha":364,"x_min":53,"x_max":196,"o":"m 131 521 l 131 985 l 53 985 l 53 1042 l 196 1042 l 196 521 l 131 521 z "},"º":{"ha":535,"x_min":44,"x_max":492,"o":"m 267 617 q 109 680 174 617 q 44 833 44 743 q 109 987 44 924 q 267 1050 174 1050 q 426 987 360 1050 q 492 833 492 924 q 426 680 492 743 q 267 617 361 617 m 267 674 q 380 721 333 674 q 426 833 426 768 q 380 945 426 899 q 267 992 333 992 q 156 945 201 992 q 110 833 110 899 q 156 721 110 768 q 267 674 201 674 z "},"»":{"ha":886,"x_min":153,"x_max":732,"o":"m 153 132 l 364 388 l 153 643 l 257 643 l 468 388 l 257 132 l 153 132 m 415 132 l 626 388 l 415 643 l 521 643 l 732 388 l 521 132 l 415 132 z "},"¿":{"ha":772,"x_min":82,"x_max":692,"o":"m 324 694 q 335 706 324 694 q 381 718 347 718 q 438 694 414 718 q 463 638 463 671 q 438 580 463 604 q 381 556 414 556 q 324 580 347 556 q 300 638 300 604 q 324 694 300 671 m 442 411 l 442 326 q 423 223 442 265 q 376 161 404 181 q 316 122 349 142 q 256 86 283 103 q 209 33 228 69 q 190 -56 190 -3 q 246 -185 190 -135 q 386 -236 301 -236 q 524 -183 469 -236 q 581 -50 578 -131 l 690 -50 q 604 -260 692 -176 q 386 -344 517 -344 q 169 -262 256 -344 q 82 -56 82 -179 q 108 71 82 19 q 169 147 133 122 q 242 192 206 172 q 303 242 278 213 q 329 314 329 271 l 329 411 l 442 411 z "},"À":{"ha":1032,"x_min":26,"x_max":1004,"o":"m 560 1174 l 461 1174 l 308 1389 l 435 1389 l 560 1174 m 867 0 l 782 218 l 249 218 l 164 0 l 26 0 l 444 1042 l 586 1042 l 1004 0 l 867 0 m 289 325 l 742 325 l 515 911 l 289 325 z "},"Á":{"ha":1032,"x_min":26,"x_max":1004,"o":"m 719 1389 l 568 1174 l 468 1174 l 593 1389 l 719 1389 m 867 0 l 782 218 l 249 218 l 164 0 l 26 0 l 444 1042 l 586 1042 l 1004 0 l 867 0 m 289 325 l 742 325 l 515 911 l 289 325 z "},"Â":{"ha":1032,"x_min":26,"x_max":1004,"o":"m 515 1329 l 408 1151 l 308 1151 l 450 1389 l 581 1389 l 722 1151 l 622 1151 l 515 1329 m 867 0 l 782 218 l 249 218 l 164 0 l 26 0 l 444 1042 l 586 1042 l 1004 0 l 867 0 m 289 325 l 742 325 l 515 911 l 289 325 z "},"Ã":{"ha":1032,"x_min":26,"x_max":1004,"o":"m 365 1174 l 288 1174 q 315 1302 276 1251 q 418 1353 353 1353 q 547 1276 497 1353 q 610 1236 571 1236 q 658 1265 642 1236 q 665 1340 674 1293 l 743 1340 q 717 1213 754 1264 q 613 1161 679 1161 q 483 1236 533 1161 q 421 1276 457 1276 q 373 1248 389 1276 q 365 1174 357 1219 m 867 0 l 782 218 l 249 218 l 164 0 l 26 0 l 444 1042 l 586 1042 l 1004 0 l 867 0 m 289 325 l 742 325 l 515 911 l 289 325 z "},"Ä":{"ha":1032,"x_min":26,"x_max":1004,"o":"m 443 1194 q 431 1182 443 1194 q 386 1171 419 1171 q 328 1194 353 1171 q 304 1250 304 1217 q 328 1308 304 1285 q 386 1332 353 1332 q 443 1308 419 1332 q 467 1250 467 1285 q 443 1194 467 1217 m 703 1194 q 691 1182 703 1194 q 646 1171 679 1171 q 589 1194 613 1171 q 565 1250 565 1217 q 590 1308 565 1283 q 646 1332 614 1332 q 703 1308 679 1332 q 726 1250 726 1285 q 703 1194 726 1217 m 867 0 l 782 218 l 249 218 l 164 0 l 26 0 l 444 1042 l 586 1042 l 1004 0 l 867 0 m 289 325 l 742 325 l 515 911 l 289 325 z "},"Å":{"ha":1032,"x_min":26,"x_max":1004,"o":"m 867 0 l 782 218 l 249 218 l 164 0 l 26 0 l 433 1015 q 374 1129 374 1058 q 416 1230 374 1188 q 517 1272 458 1272 q 617 1230 575 1272 q 658 1129 658 1188 q 597 1014 658 1054 l 1004 0 l 867 0 m 576 1191 q 564 1204 576 1191 q 517 1217 551 1217 q 458 1191 482 1217 q 433 1129 433 1165 q 457 1069 433 1093 q 517 1044 481 1044 q 577 1069 553 1044 q 601 1129 601 1093 q 576 1191 601 1165 m 289 325 l 742 325 l 515 911 l 289 325 z "},"Æ":{"ha":1243,"x_min":26,"x_max":1172,"o":"m 26 0 l 444 1042 l 1172 1042 l 1172 933 l 719 933 l 719 571 l 1114 571 l 1114 472 l 719 472 l 719 110 l 1172 110 l 1172 0 l 596 0 l 596 228 l 253 228 l 168 0 l 26 0 m 296 326 l 597 326 l 597 933 l 533 933 l 296 326 z "},"Ç":{"ha":928,"x_min":71,"x_max":863,"o":"m 579 935 q 299 816 408 935 q 190 521 190 697 q 299 226 190 344 q 579 107 408 107 q 863 236 746 107 l 863 83 q 604 -12 746 -7 l 565 -93 q 688 -116 638 -79 q 739 -219 739 -153 q 698 -319 739 -278 q 597 -361 657 -361 q 503 -335 550 -361 q 436 -274 457 -310 l 494 -249 q 540 -284 510 -269 q 597 -299 569 -299 q 653 -276 631 -299 q 675 -219 675 -253 q 635 -152 675 -171 q 536 -156 594 -133 l 486 -122 l 540 -12 q 203 154 336 1 q 71 521 71 307 q 215 901 71 746 q 579 1056 360 1056 q 863 958 736 1056 l 863 806 q 579 935 743 935 z "},"È":{"ha":753,"x_min":104,"x_max":681,"o":"m 436 1174 l 338 1174 l 185 1389 l 311 1389 l 436 1174 m 681 929 l 231 929 l 231 578 l 622 578 l 622 464 l 231 464 l 231 113 l 681 113 l 681 0 l 104 0 l 104 1042 l 681 1042 l 681 929 z "},"É":{"ha":753,"x_min":104,"x_max":681,"o":"m 596 1389 l 444 1174 l 344 1174 l 469 1389 l 596 1389 m 681 929 l 231 929 l 231 578 l 622 578 l 622 464 l 231 464 l 231 113 l 681 113 l 681 0 l 104 0 l 104 1042 l 681 1042 l 681 929 z "},"Ê":{"ha":753,"x_min":104,"x_max":681,"o":"m 392 1329 l 285 1151 l 185 1151 l 326 1389 l 457 1389 l 599 1151 l 499 1151 l 392 1329 m 681 929 l 231 929 l 231 578 l 622 578 l 622 464 l 231 464 l 231 113 l 681 113 l 681 0 l 104 0 l 104 1042 l 681 1042 l 681 929 z "},"Ë":{"ha":753,"x_min":104,"x_max":681,"o":"m 319 1194 q 308 1182 319 1194 q 263 1171 296 1171 q 205 1194 229 1171 q 181 1250 181 1217 q 205 1308 181 1285 q 263 1332 229 1332 q 319 1308 296 1332 q 343 1250 343 1285 q 319 1194 343 1217 m 579 1194 q 567 1182 579 1194 q 522 1171 556 1171 q 465 1194 489 1171 q 442 1250 442 1217 q 465 1308 442 1283 q 522 1332 489 1332 q 579 1308 556 1332 q 603 1250 603 1285 q 579 1194 603 1217 m 681 929 l 231 929 l 231 578 l 622 578 l 622 464 l 231 464 l 231 113 l 681 113 l 681 0 l 104 0 l 104 1042 l 681 1042 l 681 929 z "},"Ì":{"ha":335,"x_min":-40,"x_max":231,"o":"m 113 1174 l -40 1389 l 86 1389 l 211 1174 l 113 1174 m 104 0 l 104 1042 l 231 1042 l 231 0 l 104 0 z "},"Í":{"ha":335,"x_min":104,"x_max":371,"o":"m 119 1174 l 244 1389 l 371 1389 l 219 1174 l 119 1174 m 104 0 l 104 1042 l 231 1042 l 231 0 l 104 0 z "},"Î":{"ha":335,"x_min":-40,"x_max":374,"o":"m -40 1151 l 101 1389 l 232 1389 l 374 1151 l 274 1151 l 167 1329 l 60 1151 l -40 1151 m 104 0 l 104 1042 l 231 1042 l 231 0 l 104 0 z "},"Ï":{"ha":335,"x_min":-44,"x_max":378,"o":"m 94 1194 q 83 1182 94 1194 q 38 1171 71 1171 q -20 1194 4 1171 q -44 1250 -44 1217 q -20 1308 -44 1285 q 38 1332 4 1332 q 94 1308 71 1332 q 118 1250 118 1285 q 94 1194 118 1217 m 354 1194 q 342 1182 354 1194 q 297 1171 331 1171 q 240 1194 264 1171 q 217 1250 217 1217 q 240 1308 217 1283 q 297 1332 264 1332 q 354 1308 331 1332 q 378 1250 378 1285 q 354 1194 378 1217 m 104 0 l 104 1042 l 231 1042 l 231 0 l 104 0 z "},"Ð":{"ha":988,"x_min":-3,"x_max":917,"o":"m 396 1042 q 764 889 611 1042 q 917 521 917 736 q 764 153 917 306 q 396 0 611 0 l 104 0 l 104 478 l -3 478 l -3 565 l 104 565 l 104 1042 l 396 1042 m 396 113 q 676 231 561 113 q 790 521 790 350 q 676 810 790 692 q 396 929 561 929 l 231 929 l 231 565 l 413 565 l 413 478 l 231 478 l 231 113 l 396 113 z "},"Ñ":{"ha":1081,"x_min":104,"x_max":976,"o":"m 389 1174 l 311 1174 q 338 1302 300 1251 q 442 1353 376 1353 q 571 1276 521 1353 q 633 1236 594 1236 q 681 1265 665 1236 q 689 1340 697 1293 l 767 1340 q 740 1213 778 1264 q 636 1161 703 1161 q 507 1236 557 1161 q 444 1276 481 1276 q 397 1248 413 1276 q 389 1174 381 1219 m 851 1042 l 976 1042 l 976 0 l 856 0 l 231 838 l 231 0 l 104 0 l 104 1042 l 225 1042 l 851 203 l 851 1042 z "},"Ò":{"ha":1158,"x_min":71,"x_max":1088,"o":"m 525 1174 l 372 1389 l 499 1389 l 624 1174 l 525 1174 m 579 -14 q 215 141 360 -14 q 71 521 71 296 q 215 901 71 746 q 579 1056 360 1056 q 942 901 797 1056 q 1088 521 1088 746 q 942 141 1088 296 q 579 -14 797 -14 m 299 226 q 354 166 299 226 q 579 107 408 107 q 858 226 750 107 q 967 521 967 344 q 858 816 967 697 q 579 935 750 935 q 299 816 408 935 q 190 521 190 697 q 299 226 190 344 z "},"Ó":{"ha":1158,"x_min":71,"x_max":1088,"o":"m 532 1174 l 657 1389 l 783 1389 l 632 1174 l 532 1174 m 579 -14 q 215 141 360 -14 q 71 521 71 296 q 215 901 71 746 q 579 1056 360 1056 q 942 901 797 1056 q 1088 521 1088 746 q 942 141 1088 296 q 579 -14 797 -14 m 299 226 q 354 166 299 226 q 579 107 408 107 q 858 226 750 107 q 967 521 967 344 q 858 816 967 697 q 579 935 750 935 q 299 816 408 935 q 190 521 190 697 q 299 226 190 344 z "},"Ô":{"ha":1158,"x_min":71,"x_max":1088,"o":"m 372 1151 l 514 1389 l 644 1389 l 786 1151 l 686 1151 l 579 1329 l 472 1151 l 372 1151 m 579 -14 q 215 141 360 -14 q 71 521 71 296 q 215 901 71 746 q 579 1056 360 1056 q 942 901 797 1056 q 1088 521 1088 746 q 942 141 1088 296 q 579 -14 797 -14 m 299 226 q 354 166 299 226 q 579 107 408 107 q 858 226 750 107 q 967 521 967 344 q 858 816 967 697 q 579 935 750 935 q 299 816 408 935 q 190 521 190 697 q 299 226 190 344 z "},"Õ":{"ha":1158,"x_min":71,"x_max":1088,"o":"m 676 1161 q 547 1236 597 1161 q 485 1276 521 1276 q 437 1248 453 1276 q 429 1174 421 1219 l 351 1174 q 378 1302 340 1251 q 482 1353 417 1353 q 611 1276 561 1353 q 674 1236 635 1236 q 722 1265 706 1236 q 729 1340 738 1293 l 807 1340 q 781 1213 818 1264 q 676 1161 743 1161 m 579 -14 q 215 141 360 -14 q 71 521 71 296 q 215 901 71 746 q 579 1056 360 1056 q 942 901 797 1056 q 1088 521 1088 746 q 942 141 1088 296 q 579 -14 797 -14 m 299 226 q 354 166 299 226 q 579 107 408 107 q 858 226 750 107 q 967 521 967 344 q 858 816 967 697 q 579 935 750 935 q 299 816 408 935 q 190 521 190 697 q 299 226 190 344 z "},"Ö":{"ha":1158,"x_min":71,"x_max":1088,"o":"m 507 1194 q 495 1182 507 1194 q 450 1171 483 1171 q 392 1194 417 1171 q 368 1250 368 1217 q 392 1308 368 1285 q 450 1332 417 1332 q 507 1308 483 1332 q 531 1250 531 1285 q 507 1194 531 1217 m 767 1194 q 755 1182 767 1194 q 710 1171 743 1171 q 653 1194 676 1171 q 629 1250 629 1217 q 653 1308 629 1283 q 710 1332 678 1332 q 767 1308 743 1332 q 790 1250 790 1285 q 767 1194 790 1217 m 579 -14 q 215 141 360 -14 q 71 521 71 296 q 215 901 71 746 q 579 1056 360 1056 q 942 901 797 1056 q 1088 521 1088 746 q 942 141 1088 296 q 579 -14 797 -14 m 299 226 q 354 166 299 226 q 579 107 408 107 q 858 226 750 107 q 967 521 967 344 q 858 816 967 697 q 579 935 750 935 q 299 816 408 935 q 190 521 190 697 q 299 226 190 344 z "},"×":{"ha":1022,"x_min":192,"x_max":869,"o":"m 869 701 l 597 431 l 869 160 l 801 93 l 531 364 l 260 93 l 192 160 l 463 431 l 192 701 l 260 768 l 531 497 l 801 768 l 869 701 z "},"Ø":{"ha":1158,"x_min":71,"x_max":1088,"o":"m 904 938 q 1039 754 990 863 q 1088 521 1088 646 q 942 141 1088 296 q 579 -14 797 -14 q 315 60 432 -14 l 261 -21 l 172 -21 l 256 103 q 119 286 168 178 q 71 521 71 394 q 215 901 71 746 q 579 1056 360 1056 q 844 981 725 1056 l 899 1061 l 988 1061 l 904 938 m 190 521 q 322 203 190 322 l 778 882 q 579 935 690 935 q 299 816 408 935 q 190 521 190 697 m 579 107 q 858 226 750 107 q 967 521 967 344 q 838 838 967 719 l 382 158 q 579 107 468 107 z "},"Ù":{"ha":1014,"x_min":111,"x_max":904,"o":"m 453 1174 l 300 1389 l 426 1389 l 551 1174 l 453 1174 m 788 90 q 730 38 788 90 q 507 -14 672 -14 q 226 90 342 -14 q 111 342 111 193 l 111 1042 l 238 1042 l 238 363 q 316 176 238 253 q 507 99 394 99 q 698 176 619 99 q 776 363 776 253 l 776 1042 l 904 1042 l 904 342 q 788 90 904 193 z "},"Ú":{"ha":1014,"x_min":111,"x_max":904,"o":"m 460 1174 l 585 1389 l 711 1389 l 560 1174 l 460 1174 m 788 90 q 730 38 788 90 q 507 -14 672 -14 q 226 90 342 -14 q 111 342 111 193 l 111 1042 l 238 1042 l 238 363 q 316 176 238 253 q 507 99 394 99 q 698 176 619 99 q 776 363 776 253 l 776 1042 l 904 1042 l 904 342 q 788 90 904 193 z "},"Û":{"ha":1014,"x_min":111,"x_max":904,"o":"m 300 1151 l 442 1389 l 572 1389 l 714 1151 l 614 1151 l 507 1329 l 400 1151 l 300 1151 m 788 90 q 730 38 788 90 q 507 -14 672 -14 q 226 90 342 -14 q 111 342 111 193 l 111 1042 l 238 1042 l 238 363 q 316 176 238 253 q 507 99 394 99 q 698 176 619 99 q 776 363 776 253 l 776 1042 l 904 1042 l 904 342 q 788 90 904 193 z "},"Ü":{"ha":1014,"x_min":111,"x_max":904,"o":"m 435 1194 q 423 1182 435 1194 q 378 1171 411 1171 q 320 1194 344 1171 q 296 1250 296 1217 q 320 1308 296 1285 q 378 1332 344 1332 q 435 1308 411 1332 q 458 1250 458 1285 q 435 1194 458 1217 m 694 1194 q 683 1182 694 1194 q 638 1171 671 1171 q 581 1194 604 1171 q 557 1250 557 1217 q 581 1308 557 1283 q 638 1332 606 1332 q 694 1308 671 1332 q 718 1250 718 1285 q 694 1194 718 1217 m 788 90 q 730 38 788 90 q 507 -14 672 -14 q 226 90 342 -14 q 111 342 111 193 l 111 1042 l 238 1042 l 238 363 q 316 176 238 253 q 507 99 394 99 q 698 176 619 99 q 776 363 776 253 l 776 1042 l 904 1042 l 904 342 q 788 90 904 193 z "},"Ý":{"ha":907,"x_min":26,"x_max":881,"o":"m 658 1389 l 507 1174 l 407 1174 l 532 1389 l 658 1389 m 881 1042 l 518 494 l 518 0 l 390 0 l 390 492 l 26 1042 l 169 1042 l 454 601 l 739 1042 l 881 1042 z "},"Þ":{"ha":819,"x_min":104,"x_max":775,"o":"m 483 897 q 690 812 606 897 q 775 603 775 726 q 690 398 775 482 q 483 314 606 314 l 226 314 l 226 0 l 104 0 l 104 897 l 104 1038 l 226 1038 l 226 897 l 483 897 m 479 422 q 610 476 556 422 q 664 606 664 529 q 610 733 664 681 q 479 786 556 786 l 226 786 l 226 422 l 479 422 z "},"ß":{"ha":933,"x_min":125,"x_max":835,"o":"m 669 533 q 790 426 744 496 q 835 272 835 357 q 755 69 835 153 q 563 -14 675 -14 q 438 10 503 -14 q 333 71 372 33 l 386 164 q 456 119 413 138 q 540 100 499 100 q 660 153 610 103 q 711 278 711 204 q 655 411 711 356 q 518 467 599 467 l 440 467 l 440 569 l 474 569 q 606 624 551 569 q 660 756 660 678 q 603 883 660 833 q 460 933 547 933 q 309 878 369 933 q 249 742 249 824 l 249 0 l 125 0 l 125 742 q 220 956 125 871 q 458 1042 315 1042 q 685 961 596 1042 q 775 757 775 881 q 669 533 775 618 z "},"à":{"ha":746,"x_min":63,"x_max":647,"o":"m 421 826 l 322 826 l 169 1042 l 296 1042 l 421 826 m 360 708 q 567 641 486 708 q 647 444 647 574 l 647 0 l 539 0 l 532 99 q 275 -14 406 -14 q 122 46 182 -14 q 63 199 63 106 q 147 361 63 303 q 400 392 231 419 l 526 371 l 526 453 q 478 566 526 528 q 354 604 431 604 q 168 508 232 604 l 83 583 q 360 708 169 708 m 188 204 q 219 126 188 156 q 303 96 250 96 q 526 201 411 96 l 526 281 l 413 300 q 240 292 292 322 q 188 204 188 263 z "},"á":{"ha":746,"x_min":63,"x_max":647,"o":"m 581 1042 l 429 826 l 329 826 l 454 1042 l 581 1042 m 360 708 q 567 641 486 708 q 647 444 647 574 l 647 0 l 539 0 l 532 99 q 275 -14 406 -14 q 122 46 182 -14 q 63 199 63 106 q 147 361 63 303 q 400 392 231 419 l 526 371 l 526 453 q 478 566 526 528 q 354 604 431 604 q 168 508 232 604 l 83 583 q 360 708 169 708 m 188 204 q 219 126 188 156 q 303 96 250 96 q 526 201 411 96 l 526 281 l 413 300 q 240 292 292 322 q 188 204 188 263 z "},"â":{"ha":746,"x_min":63,"x_max":647,"o":"m 376 982 l 269 804 l 169 804 l 311 1042 l 442 1042 l 583 804 l 483 804 l 376 982 m 360 708 q 567 641 486 708 q 647 444 647 574 l 647 0 l 539 0 l 532 99 q 275 -14 406 -14 q 122 46 182 -14 q 63 199 63 106 q 147 361 63 303 q 400 392 231 419 l 526 371 l 526 453 q 478 566 526 528 q 354 604 431 604 q 168 508 232 604 l 83 583 q 360 708 169 708 m 188 204 q 219 126 188 156 q 303 96 250 96 q 526 201 411 96 l 526 281 l 413 300 q 240 292 292 322 q 188 204 188 263 z "},"ã":{"ha":746,"x_min":63,"x_max":647,"o":"m 226 826 l 149 826 q 176 955 138 904 q 279 1006 214 1006 q 408 929 358 1006 q 471 889 432 889 q 519 917 503 889 q 526 993 535 946 l 604 993 q 578 865 615 917 q 474 814 540 814 q 344 889 394 814 q 282 929 318 929 q 234 901 250 929 q 226 826 218 872 m 360 708 q 567 641 486 708 q 647 444 647 574 l 647 0 l 539 0 l 532 99 q 275 -14 406 -14 q 122 46 182 -14 q 63 199 63 106 q 147 361 63 303 q 400 392 231 419 l 526 371 l 526 453 q 478 566 526 528 q 354 604 431 604 q 168 508 232 604 l 83 583 q 360 708 169 708 m 188 204 q 219 126 188 156 q 303 96 250 96 q 526 201 411 96 l 526 281 l 413 300 q 240 292 292 322 q 188 204 188 263 z "},"ä":{"ha":746,"x_min":63,"x_max":647,"o":"m 304 847 q 292 835 304 847 q 247 824 281 824 q 190 847 214 824 q 165 903 165 869 q 190 961 165 938 q 247 985 214 985 q 304 961 281 985 q 328 903 328 938 q 304 847 328 869 m 564 847 q 552 835 564 847 q 507 824 540 824 q 450 847 474 824 q 426 903 426 869 q 451 960 426 936 q 507 985 475 985 q 564 961 540 985 q 588 903 588 938 q 564 847 588 869 m 360 708 q 567 641 486 708 q 647 444 647 574 l 647 0 l 539 0 l 532 99 q 275 -14 406 -14 q 122 46 182 -14 q 63 199 63 106 q 147 361 63 303 q 400 392 231 419 l 526 371 l 526 453 q 478 566 526 528 q 354 604 431 604 q 168 508 232 604 l 83 583 q 360 708 169 708 m 188 204 q 219 126 188 156 q 303 96 250 96 q 526 201 411 96 l 526 281 l 413 300 q 240 292 292 322 q 188 204 188 263 z "},"å":{"ha":746,"x_min":63,"x_max":647,"o":"m 378 776 q 276 818 318 776 q 235 918 235 860 q 276 1018 235 976 q 378 1060 318 1060 q 477 1018 436 1060 q 518 918 518 976 q 477 818 518 860 q 378 776 436 776 m 437 979 q 425 992 437 979 q 378 1004 413 1004 q 318 979 343 1004 q 293 918 293 954 q 317 856 293 881 q 378 832 342 832 q 438 856 414 832 q 461 918 461 881 q 437 979 461 954 m 360 708 q 567 641 486 708 q 647 444 647 574 l 647 0 l 539 0 l 532 99 q 275 -14 406 -14 q 122 46 182 -14 q 63 199 63 106 q 147 361 63 303 q 400 392 231 419 l 526 371 l 526 453 q 478 566 526 528 q 354 604 431 604 q 168 508 232 604 l 83 583 q 360 708 169 708 m 188 204 q 219 126 188 156 q 303 96 250 96 q 526 201 411 96 l 526 281 l 413 300 q 240 292 292 322 q 188 204 188 263 z "},"æ":{"ha":1199,"x_min":56,"x_max":1143,"o":"m 1143 347 q 1142 307 1143 321 l 617 307 q 682 151 626 208 q 832 93 738 93 q 939 119 896 93 q 1024 208 982 144 l 1110 149 q 828 -14 1019 -14 q 556 129 644 -14 q 268 -14 417 -14 q 115 46 175 -14 q 56 199 56 106 q 140 361 56 303 q 393 392 224 419 l 499 375 q 517 481 500 428 q 462 573 508 542 q 347 604 415 604 q 161 508 225 604 l 76 583 q 353 708 163 708 q 590 608 535 708 q 828 708 682 708 q 1058 608 974 708 q 1143 347 1143 508 m 831 603 q 688 549 742 603 q 619 403 633 496 l 1032 403 q 969 549 1021 496 q 831 603 917 603 m 296 96 q 519 204 407 96 q 501 283 508 238 l 406 300 q 233 292 285 322 q 181 204 181 263 q 212 126 181 156 q 296 96 243 96 z "},"ç":{"ha":618,"x_min":56,"x_max":563,"o":"m 396 604 q 235 532 294 604 q 176 347 176 460 q 235 163 176 235 q 396 90 294 90 q 563 165 497 90 l 563 43 q 400 -14 500 -8 l 361 -93 q 484 -116 433 -79 q 535 -219 535 -153 q 494 -319 535 -278 q 393 -361 453 -361 q 299 -335 346 -361 q 232 -274 253 -310 l 290 -249 q 335 -284 306 -269 q 393 -299 365 -299 q 449 -276 426 -299 q 471 -219 471 -253 q 431 -152 471 -171 q 332 -156 390 -133 l 282 -122 l 338 -11 q 131 103 207 4 q 56 347 56 201 q 144 607 56 506 q 383 708 233 708 q 563 653 490 708 l 563 529 q 396 604 494 604 z "},"è":{"ha":757,"x_min":56,"x_max":701,"o":"m 432 831 l 333 831 l 181 1046 l 307 1046 l 432 831 m 701 347 q 700 307 701 321 l 175 307 q 240 151 185 208 q 390 93 296 93 q 497 119 454 93 q 582 208 540 144 l 668 149 q 386 -14 578 -14 q 145 87 235 -14 q 56 346 56 188 q 146 606 56 504 q 386 708 236 708 q 617 608 532 708 q 701 347 701 508 m 389 603 q 246 549 300 603 q 178 403 192 494 l 590 403 q 528 549 581 496 q 389 603 476 603 z "},"é":{"ha":757,"x_min":56,"x_max":701,"o":"m 592 1046 l 440 831 l 340 831 l 465 1046 l 592 1046 m 701 347 q 700 307 701 321 l 175 307 q 240 151 185 208 q 390 93 296 93 q 497 119 454 93 q 582 208 540 144 l 668 149 q 386 -14 578 -14 q 145 87 235 -14 q 56 346 56 188 q 146 606 56 504 q 386 708 236 708 q 617 608 532 708 q 701 347 701 508 m 389 603 q 246 549 300 603 q 178 403 192 494 l 590 403 q 528 549 581 496 q 389 603 476 603 z "},"ê":{"ha":757,"x_min":56,"x_max":701,"o":"m 388 986 l 281 808 l 181 808 l 322 1046 l 453 1046 l 594 808 l 494 808 l 388 986 m 701 347 q 700 307 701 321 l 175 307 q 240 151 185 208 q 390 93 296 93 q 497 119 454 93 q 582 208 540 144 l 668 149 q 386 -14 578 -14 q 145 87 235 -14 q 56 346 56 188 q 146 606 56 504 q 386 708 236 708 q 617 608 532 708 q 701 347 701 508 m 389 603 q 246 549 300 603 q 178 403 192 494 l 590 403 q 528 549 581 496 q 389 603 476 603 z "},"ë":{"ha":757,"x_min":56,"x_max":701,"o":"m 315 851 q 303 839 315 851 q 258 828 292 828 q 201 851 225 828 q 176 907 176 874 q 201 965 176 942 q 258 989 225 989 q 315 965 292 989 q 339 907 339 942 q 315 851 339 874 m 575 851 q 563 839 575 851 q 518 828 551 828 q 461 851 485 828 q 438 907 438 874 q 462 965 438 942 q 518 989 486 989 q 575 965 551 989 q 599 907 599 942 q 575 851 599 874 m 701 347 q 700 307 701 321 l 175 307 q 240 151 185 208 q 390 93 296 93 q 497 119 454 93 q 582 208 540 144 l 668 149 q 386 -14 578 -14 q 145 87 235 -14 q 56 346 56 188 q 146 606 56 504 q 386 708 236 708 q 617 608 532 708 q 701 347 701 508 m 389 603 q 246 549 300 603 q 178 403 192 494 l 590 403 q 528 549 581 496 q 389 603 476 603 z "},"ì":{"ha":331,"x_min":-42,"x_max":226,"o":"m 111 826 l -42 1042 l 85 1042 l 210 826 l 111 826 m 104 0 l 104 694 l 226 694 l 226 0 l 104 0 z "},"í":{"ha":331,"x_min":104,"x_max":369,"o":"m 118 826 l 243 1042 l 369 1042 l 218 826 l 118 826 m 104 0 l 104 694 l 226 694 l 226 0 l 104 0 z "},"î":{"ha":331,"x_min":-42,"x_max":372,"o":"m -42 804 l 100 1042 l 231 1042 l 372 804 l 272 804 l 165 982 l 58 804 l -42 804 m 104 0 l 104 694 l 226 694 l 226 0 l 104 0 z "},"ï":{"ha":331,"x_min":-46,"x_max":376,"o":"m 93 847 q 81 835 93 847 q 36 824 69 824 q -22 847 3 824 q -46 903 -46 869 q -22 961 -46 938 q 36 985 3 985 q 93 961 69 985 q 117 903 117 938 q 93 847 117 869 m 353 847 q 341 835 353 847 q 296 824 329 824 q 239 847 263 824 q 215 903 215 869 q 240 960 215 936 q 296 985 264 985 q 353 961 329 985 q 376 903 376 938 q 353 847 376 869 m 104 0 l 104 694 l 226 694 l 226 0 l 104 0 z "},"ð":{"ha":861,"x_min":56,"x_max":804,"o":"m 549 950 q 735 695 667 854 q 804 347 804 536 q 695 92 804 197 q 431 -14 586 -14 q 165 92 275 -14 q 56 347 56 197 q 165 603 56 499 q 431 708 274 708 q 633 651 542 708 q 483 867 581 790 l 411 775 l 368 808 l 439 899 q 226 958 346 956 l 250 1058 q 504 981 388 1058 l 567 1060 l 610 1028 l 549 950 m 431 96 q 608 169 535 96 q 681 347 681 242 q 608 526 681 453 q 431 600 535 600 q 251 526 325 600 q 178 347 178 453 q 251 169 178 242 q 431 96 325 96 z "},"ñ":{"ha":817,"x_min":104,"x_max":718,"o":"m 261 826 l 183 826 q 210 955 172 904 q 314 1006 249 1006 q 443 929 393 1006 q 506 889 467 889 q 553 917 538 889 q 561 993 569 946 l 639 993 q 613 865 650 917 q 508 814 575 814 q 379 889 429 814 q 317 929 353 929 q 269 901 285 929 q 261 826 253 872 m 447 708 q 641 632 564 708 q 718 439 718 556 l 718 0 l 594 0 l 594 425 q 543 550 594 500 q 414 600 492 600 q 281 547 336 600 q 226 419 226 494 l 226 0 l 104 0 l 104 694 l 217 694 l 222 603 q 447 708 310 708 z "},"ò":{"ha":788,"x_min":56,"x_max":733,"o":"m 339 826 l 186 1042 l 313 1042 l 438 826 l 339 826 m 394 -14 q 150 90 244 -14 q 56 347 56 194 q 150 605 56 501 q 394 708 244 708 q 638 604 543 708 q 733 347 733 500 q 638 90 733 194 q 394 -14 543 -14 m 394 96 q 553 168 493 96 q 613 347 613 240 q 552 528 613 456 q 394 600 492 600 q 235 528 294 600 q 176 347 176 456 q 235 167 176 239 q 394 96 294 96 z "},"ó":{"ha":788,"x_min":56,"x_max":733,"o":"m 346 826 l 471 1042 l 597 1042 l 446 826 l 346 826 m 394 -14 q 150 90 244 -14 q 56 347 56 194 q 150 605 56 501 q 394 708 244 708 q 638 604 543 708 q 733 347 733 500 q 638 90 733 194 q 394 -14 543 -14 m 394 96 q 553 168 493 96 q 613 347 613 240 q 552 528 613 456 q 394 600 492 600 q 235 528 294 600 q 176 347 176 456 q 235 167 176 239 q 394 96 294 96 z "},"ô":{"ha":788,"x_min":56,"x_max":733,"o":"m 186 804 l 328 1042 l 458 1042 l 600 804 l 500 804 l 393 982 l 286 804 l 186 804 m 394 -14 q 150 90 244 -14 q 56 347 56 194 q 150 605 56 501 q 394 708 244 708 q 638 604 543 708 q 733 347 733 500 q 638 90 733 194 q 394 -14 543 -14 m 394 96 q 553 168 493 96 q 613 347 613 240 q 552 528 613 456 q 394 600 492 600 q 235 528 294 600 q 176 347 176 456 q 235 167 176 239 q 394 96 294 96 z "},"õ":{"ha":788,"x_min":56,"x_max":733,"o":"m 492 814 q 363 889 413 814 q 300 929 336 929 q 252 901 268 929 q 244 826 236 872 l 167 826 q 194 955 156 904 q 297 1006 232 1006 q 426 929 376 1006 q 489 889 450 889 q 537 917 521 889 q 544 993 553 946 l 622 993 q 596 865 633 917 q 492 814 558 814 m 394 -14 q 150 90 244 -14 q 56 347 56 194 q 150 605 56 501 q 394 708 244 708 q 638 604 543 708 q 733 347 733 500 q 638 90 733 194 q 394 -14 543 -14 m 394 96 q 553 168 493 96 q 613 347 613 240 q 552 528 613 456 q 394 600 492 600 q 235 528 294 600 q 176 347 176 456 q 235 167 176 239 q 394 96 294 96 z "},"ö":{"ha":788,"x_min":56,"x_max":733,"o":"m 321 847 q 309 835 321 847 q 264 824 297 824 q 206 847 231 824 q 182 903 182 869 q 206 961 182 938 q 264 985 231 985 q 321 961 297 985 q 344 903 344 938 q 321 847 344 869 m 581 847 q 569 835 581 847 q 524 824 557 824 q 467 847 490 824 q 443 903 443 869 q 467 960 443 936 q 524 985 492 985 q 581 961 557 985 q 604 903 604 938 q 581 847 604 869 m 394 -14 q 150 90 244 -14 q 56 347 56 194 q 150 605 56 501 q 394 708 244 708 q 638 604 543 708 q 733 347 733 500 q 638 90 733 194 q 394 -14 543 -14 m 394 96 q 553 168 493 96 q 613 347 613 240 q 552 528 613 456 q 394 600 492 600 q 235 528 294 600 q 176 347 176 456 q 235 167 176 239 q 394 96 294 96 z "},"÷":{"ha":1001,"x_min":83,"x_max":917,"o":"m 500 544 q 449 566 471 544 q 426 618 426 588 q 449 670 426 649 q 500 692 471 692 q 553 670 531 692 q 575 618 575 649 q 553 566 575 588 q 500 544 531 544 m 83 349 l 83 415 l 917 415 l 917 349 l 83 349 m 500 72 q 449 94 471 72 q 426 146 426 115 q 449 198 426 176 q 500 219 471 219 q 553 198 531 219 q 575 146 575 176 q 553 94 575 115 q 500 72 531 72 z "},"ø":{"ha":788,"x_min":56,"x_max":733,"o":"m 615 626 q 733 347 733 522 q 638 90 733 194 q 394 -14 543 -14 q 217 35 296 -14 l 165 -43 l 100 -43 l 174 67 q 56 347 56 169 q 150 605 56 501 q 394 708 244 708 q 572 658 494 708 l 625 738 l 689 738 l 615 626 m 176 347 q 239 164 176 235 l 510 565 q 394 600 460 600 q 235 528 294 600 q 176 347 176 456 m 394 96 q 553 168 493 96 q 613 347 613 240 q 550 531 613 457 l 279 128 q 394 96 328 96 z "},"ù":{"ha":825,"x_min":107,"x_max":721,"o":"m 457 826 l 358 826 l 206 1042 l 332 1042 l 457 826 m 597 694 l 721 694 l 721 0 l 608 0 l 601 93 q 381 -14 517 -14 q 186 67 265 -14 q 107 263 107 147 l 107 694 l 229 694 l 229 275 q 282 148 229 200 q 411 96 335 96 q 543 148 489 96 q 597 275 597 200 l 597 694 z "},"ú":{"ha":825,"x_min":107,"x_max":721,"o":"m 617 1042 l 465 826 l 365 826 l 490 1042 l 617 1042 m 597 694 l 721 694 l 721 0 l 608 0 l 601 93 q 381 -14 517 -14 q 186 67 265 -14 q 107 263 107 147 l 107 694 l 229 694 l 229 275 q 282 148 229 200 q 411 96 335 96 q 543 148 489 96 q 597 275 597 200 l 597 694 z "},"û":{"ha":825,"x_min":107,"x_max":721,"o":"m 413 982 l 306 804 l 206 804 l 347 1042 l 478 1042 l 619 804 l 519 804 l 413 982 m 597 694 l 721 694 l 721 0 l 608 0 l 601 93 q 381 -14 517 -14 q 186 67 265 -14 q 107 263 107 147 l 107 694 l 229 694 l 229 275 q 282 148 229 200 q 411 96 335 96 q 543 148 489 96 q 597 275 597 200 l 597 694 z "},"ü":{"ha":825,"x_min":107,"x_max":721,"o":"m 340 847 q 328 835 340 847 q 283 824 317 824 q 226 847 250 824 q 201 903 201 869 q 226 961 201 938 q 283 985 250 985 q 340 961 317 985 q 364 903 364 938 q 340 847 364 869 m 600 847 q 588 835 600 847 q 543 824 576 824 q 486 847 510 824 q 463 903 463 869 q 487 960 463 936 q 543 985 511 985 q 600 961 576 985 q 624 903 624 938 q 600 847 624 869 m 597 694 l 721 694 l 721 0 l 608 0 l 601 93 q 381 -14 517 -14 q 186 67 265 -14 q 107 263 107 147 l 107 694 l 229 694 l 229 275 q 282 148 229 200 q 411 96 335 96 q 543 148 489 96 q 597 275 597 200 l 597 694 z "},"ý":{"ha":825,"x_min":107,"x_max":721,"o":"m 617 1042 l 465 826 l 365 826 l 490 1042 l 617 1042 m 721 694 l 721 -18 q 634 -262 721 -168 q 386 -356 547 -356 q 144 -289 247 -356 l 144 -156 q 396 -246 249 -246 q 547 -186 496 -246 q 597 -18 597 -126 l 597 89 q 381 -14 514 -14 q 186 67 265 -14 q 107 263 107 147 l 107 694 l 229 694 l 229 275 q 282 148 229 200 q 411 96 335 96 q 543 148 489 96 q 597 275 597 200 l 597 694 l 721 694 z "},"þ":{"ha":901,"x_min":104,"x_max":846,"o":"m 496 708 q 744 603 643 708 q 846 347 846 499 q 744 92 846 197 q 496 -14 643 -14 q 342 24 413 -14 q 226 126 272 61 l 226 -346 l 104 -346 l 104 1042 l 226 1042 l 226 568 q 342 671 272 633 q 496 708 413 708 m 479 96 q 658 169 585 96 q 731 347 731 242 q 658 526 731 453 q 479 600 585 600 q 301 526 375 600 q 228 347 228 453 q 301 169 228 242 q 479 96 375 96 z "},"ÿ":{"ha":825,"x_min":107,"x_max":721,"o":"m 340 847 q 328 835 340 847 q 283 824 317 824 q 226 847 250 824 q 201 903 201 869 q 226 961 201 938 q 283 985 250 985 q 340 961 317 985 q 364 903 364 938 q 340 847 364 869 m 600 847 q 588 835 600 847 q 543 824 576 824 q 486 847 510 824 q 463 903 463 869 q 487 960 463 936 q 543 985 511 985 q 600 961 576 985 q 624 903 624 938 q 600 847 624 869 m 721 694 l 721 -18 q 634 -262 721 -168 q 386 -356 547 -356 q 144 -289 247 -356 l 144 -156 q 396 -246 249 -246 q 547 -186 496 -246 q 597 -18 597 -126 l 597 89 q 381 -14 514 -14 q 186 67 265 -14 q 107 263 107 147 l 107 694 l 229 694 l 229 275 q 282 148 229 200 q 411 96 335 96 q 543 148 489 96 q 597 275 597 200 l 597 694 l 721 694 z "},"Ā":{"ha":1032,"x_min":26,"x_max":1004,"o":"m 731 1264 l 731 1182 l 300 1182 l 300 1264 l 731 1264 m 867 0 l 782 218 l 249 218 l 164 0 l 26 0 l 444 1042 l 586 1042 l 1004 0 l 867 0 m 289 325 l 742 325 l 515 911 l 289 325 z "},"ā":{"ha":746,"x_min":63,"x_max":647,"o":"m 592 917 l 592 835 l 161 835 l 161 917 l 592 917 m 360 708 q 567 641 486 708 q 647 444 647 574 l 647 0 l 539 0 l 532 99 q 275 -14 406 -14 q 122 46 182 -14 q 63 199 63 106 q 147 361 63 303 q 400 392 231 419 l 526 371 l 526 453 q 478 566 526 528 q 354 604 431 604 q 168 508 232 604 l 83 583 q 360 708 169 708 m 188 204 q 219 126 188 156 q 303 96 250 96 q 526 201 411 96 l 526 281 l 413 300 q 240 292 292 322 q 188 204 188 263 z "},"Ă":{"ha":1032,"x_min":26,"x_max":1004,"o":"m 515 1132 q 349 1191 414 1132 q 283 1349 283 1250 l 360 1349 q 404 1249 360 1290 q 515 1208 449 1208 q 628 1249 583 1208 q 672 1349 672 1290 l 747 1349 q 683 1190 747 1249 q 515 1132 618 1132 m 867 0 l 782 218 l 249 218 l 164 0 l 26 0 l 444 1042 l 586 1042 l 1004 0 l 867 0 m 289 325 l 742 325 l 515 911 l 289 325 z "},"ă":{"ha":746,"x_min":63,"x_max":647,"o":"m 376 785 q 210 844 275 785 q 144 1001 144 903 l 221 1001 q 265 902 221 943 q 376 861 310 861 q 489 902 444 861 q 533 1001 533 943 l 608 1001 q 544 843 608 901 q 376 785 479 785 m 360 708 q 567 641 486 708 q 647 444 647 574 l 647 0 l 539 0 l 532 99 q 275 -14 406 -14 q 122 46 182 -14 q 63 199 63 106 q 147 361 63 303 q 400 392 231 419 l 526 371 l 526 453 q 478 566 526 528 q 354 604 431 604 q 168 508 232 604 l 83 583 q 360 708 169 708 m 188 204 q 219 126 188 156 q 303 96 250 96 q 526 201 411 96 l 526 281 l 413 300 q 240 292 292 322 q 188 204 188 263 z "},"Ą":{"ha":1032,"x_min":26,"x_max":1085,"o":"m 1044 -229 l 1085 -289 q 894 -360 1007 -367 q 779 -319 822 -357 q 736 -214 736 -281 q 900 0 736 -89 l 867 0 l 782 218 l 249 218 l 164 0 l 26 0 l 444 1042 l 586 1042 l 1004 0 q 879 -74 936 -12 q 822 -204 822 -135 q 847 -269 822 -244 q 914 -294 871 -294 q 1044 -229 994 -294 m 289 325 l 742 325 l 515 911 l 289 325 z "},"ą":{"ha":746,"x_min":63,"x_max":728,"o":"m 688 -229 l 728 -289 q 538 -360 650 -367 q 422 -319 465 -357 q 379 -214 379 -281 q 543 0 379 -89 l 539 0 l 532 99 q 275 -14 406 -14 q 122 46 182 -14 q 63 199 63 106 q 147 361 63 303 q 400 392 231 419 l 526 371 l 526 453 q 478 566 526 528 q 354 604 431 604 q 168 508 232 604 l 83 583 q 360 708 169 708 q 567 641 486 708 q 647 444 647 574 l 647 0 q 522 -74 579 -12 q 465 -204 465 -135 q 490 -269 465 -244 q 557 -294 514 -294 q 688 -229 638 -294 m 188 204 q 219 126 188 156 q 303 96 250 96 q 526 201 411 96 l 526 281 l 413 300 q 240 292 292 322 q 188 204 188 263 z "},"Ć":{"ha":928,"x_min":71,"x_max":863,"o":"m 532 1174 l 657 1389 l 783 1389 l 632 1174 l 532 1174 m 579 -14 q 215 141 360 -14 q 71 521 71 296 q 215 901 71 746 q 579 1056 360 1056 q 863 958 736 1056 l 863 806 q 579 935 743 935 q 299 816 408 935 q 190 521 190 697 q 299 226 190 344 q 579 107 408 107 q 863 236 746 107 l 863 83 q 579 -14 736 -14 z "},"ć":{"ha":618,"x_min":56,"x_max":578,"o":"m 326 826 l 451 1042 l 578 1042 l 426 826 l 326 826 m 383 -14 q 144 88 233 -14 q 56 347 56 189 q 144 607 56 506 q 383 708 233 708 q 563 653 490 708 l 563 529 q 396 604 494 604 q 235 532 294 604 q 176 347 176 460 q 235 163 176 235 q 396 90 294 90 q 563 165 497 90 l 563 43 q 383 -14 490 -14 z "},"Ċ":{"ha":928,"x_min":71,"x_max":863,"o":"m 636 1194 q 624 1182 636 1194 q 579 1171 613 1171 q 522 1194 546 1171 q 497 1250 497 1217 q 522 1308 497 1285 q 579 1332 546 1332 q 636 1308 613 1332 q 660 1250 660 1285 q 636 1194 660 1217 m 579 -14 q 215 141 360 -14 q 71 521 71 296 q 215 901 71 746 q 579 1056 360 1056 q 863 958 736 1056 l 863 806 q 579 935 743 935 q 299 816 408 935 q 190 521 190 697 q 299 226 190 344 q 579 107 408 107 q 863 236 746 107 l 863 83 q 579 -14 736 -14 z "},"ċ":{"ha":618,"x_min":56,"x_max":563,"o":"m 432 847 q 420 835 432 847 q 375 824 408 824 q 317 847 342 824 q 293 903 293 869 q 317 961 293 938 q 375 985 342 985 q 432 961 408 985 q 456 903 456 938 q 432 847 456 869 m 383 -14 q 144 88 233 -14 q 56 347 56 189 q 144 607 56 506 q 383 708 233 708 q 563 653 490 708 l 563 529 q 396 604 494 604 q 235 532 294 604 q 176 347 176 460 q 235 163 176 235 q 396 90 294 90 q 563 165 497 90 l 563 43 q 383 -14 490 -14 z "},"Č":{"ha":928,"x_min":71,"x_max":863,"o":"m 514 1151 l 372 1389 l 469 1389 l 579 1214 l 690 1389 l 786 1389 l 644 1151 l 514 1151 m 579 -14 q 215 141 360 -14 q 71 521 71 296 q 215 901 71 746 q 579 1056 360 1056 q 863 958 736 1056 l 863 806 q 579 935 743 935 q 299 816 408 935 q 190 521 190 697 q 299 226 190 344 q 579 107 408 107 q 863 236 746 107 l 863 83 q 579 -14 736 -14 z "},"č":{"ha":618,"x_min":56,"x_max":581,"o":"m 308 804 l 167 1042 l 264 1042 l 374 867 l 485 1042 l 581 1042 l 439 804 l 308 804 m 383 -14 q 144 88 233 -14 q 56 347 56 189 q 144 607 56 506 q 383 708 233 708 q 563 653 490 708 l 563 529 q 396 604 494 604 q 235 532 294 604 q 176 347 176 460 q 235 163 176 235 q 396 90 294 90 q 563 165 497 90 l 563 43 q 383 -14 490 -14 z "},"Ď":{"ha":988,"x_min":104,"x_max":917,"o":"m 329 1151 l 188 1389 l 285 1389 l 394 1214 l 506 1389 l 601 1389 l 460 1151 l 329 1151 m 104 0 l 104 1042 l 396 1042 q 764 889 611 1042 q 917 521 917 736 q 764 153 917 306 q 396 0 611 0 l 104 0 m 231 113 l 396 113 q 676 231 561 113 q 790 521 790 350 q 676 810 790 692 q 396 929 561 929 l 231 929 l 231 113 z "},"ď":{"ha":1067,"x_min":56,"x_max":1069,"o":"m 976 1049 q 1046 1007 1022 1049 q 1069 903 1069 965 q 1024 725 1069 807 q 904 642 978 643 l 904 701 q 967 753 942 703 q 993 850 993 804 q 975 886 993 886 q 918 910 942 886 q 894 968 894 933 q 918 1026 894 1003 q 976 1049 942 1049 m 603 600 l 603 1042 l 722 1042 l 722 0 l 613 0 l 607 100 q 375 -14 518 -14 q 143 90 231 -14 q 56 347 56 193 q 143 605 56 501 q 375 708 231 708 q 603 600 515 708 m 394 96 q 526 145 468 96 q 603 272 583 194 l 603 422 q 526 550 583 500 q 394 600 468 600 q 235 528 294 600 q 176 347 176 456 q 235 167 176 239 q 394 96 294 96 z "},"Đ":{"ha":988,"x_min":-3,"x_max":917,"o":"m 396 1042 q 764 889 611 1042 q 917 521 917 736 q 764 153 917 306 q 396 0 611 0 l 104 0 l 104 478 l -3 478 l -3 565 l 104 565 l 104 1042 l 396 1042 m 396 113 q 676 231 561 113 q 790 521 790 350 q 676 810 790 692 q 396 929 561 929 l 231 929 l 231 565 l 413 565 l 413 478 l 231 478 l 231 113 l 396 113 z "},"đ":{"ha":826,"x_min":56,"x_max":825,"o":"m 825 904 l 825 817 l 722 817 l 722 0 l 613 0 l 607 100 q 375 -14 518 -14 q 143 90 231 -14 q 56 347 56 193 q 143 605 56 501 q 375 708 231 708 q 603 600 515 708 l 603 817 l 410 817 l 410 904 l 603 904 l 603 1042 l 722 1042 l 722 904 l 825 904 m 394 96 q 526 145 468 96 q 603 272 583 194 l 603 422 q 526 550 583 500 q 394 600 468 600 q 235 528 294 600 q 176 347 176 456 q 235 167 176 239 q 394 96 294 96 z "},"Ē":{"ha":753,"x_min":104,"x_max":681,"o":"m 607 1264 l 607 1182 l 176 1182 l 176 1264 l 607 1264 m 681 929 l 231 929 l 231 578 l 622 578 l 622 464 l 231 464 l 231 113 l 681 113 l 681 0 l 104 0 l 104 1042 l 681 1042 l 681 929 z "},"ē":{"ha":757,"x_min":56,"x_max":701,"o":"m 603 921 l 603 839 l 172 839 l 172 921 l 603 921 m 701 347 q 700 307 701 321 l 175 307 q 240 151 185 208 q 390 93 296 93 q 497 119 454 93 q 582 208 540 144 l 668 149 q 386 -14 578 -14 q 145 87 235 -14 q 56 346 56 188 q 146 606 56 504 q 386 708 236 708 q 617 608 532 708 q 701 347 701 508 m 389 603 q 246 549 300 603 q 178 403 192 494 l 590 403 q 528 549 581 496 q 389 603 476 603 z "},"Ė":{"ha":753,"x_min":104,"x_max":681,"o":"m 450 1194 q 438 1182 450 1194 q 393 1171 426 1171 q 335 1194 360 1171 q 311 1250 311 1217 q 335 1308 311 1285 q 393 1332 360 1332 q 450 1308 426 1332 q 474 1250 474 1285 q 450 1194 474 1217 m 681 929 l 231 929 l 231 578 l 622 578 l 622 464 l 231 464 l 231 113 l 681 113 l 681 0 l 104 0 l 104 1042 l 681 1042 l 681 929 z "},"ė":{"ha":757,"x_min":56,"x_max":701,"o":"m 444 851 q 433 839 444 851 q 388 828 421 828 q 330 851 354 828 q 306 907 306 874 q 330 965 306 942 q 388 989 354 989 q 444 965 421 989 q 468 907 468 942 q 444 851 468 874 m 701 347 q 700 307 701 321 l 175 307 q 240 151 185 208 q 390 93 296 93 q 497 119 454 93 q 582 208 540 144 l 668 149 q 386 -14 578 -14 q 145 87 235 -14 q 56 346 56 188 q 146 606 56 504 q 386 708 236 708 q 617 608 532 708 q 701 347 701 508 m 389 603 q 246 549 300 603 q 178 403 192 494 l 590 403 q 528 549 581 496 q 389 603 476 603 z "},"Ę":{"ha":753,"x_min":104,"x_max":761,"o":"m 721 -229 l 761 -289 q 571 -360 683 -367 q 456 -319 499 -357 q 413 -214 413 -281 q 576 0 413 -89 l 104 0 l 104 1042 l 681 1042 l 681 929 l 231 929 l 231 578 l 622 578 l 622 464 l 231 464 l 231 113 l 681 113 l 681 0 q 556 -74 613 -12 q 499 -204 499 -135 q 523 -269 499 -244 q 590 -294 547 -294 q 721 -229 671 -294 z "},"ę":{"ha":757,"x_min":56,"x_max":701,"o":"m 529 -201 q 660 -136 610 -201 l 700 -196 q 510 -267 622 -274 q 394 -226 438 -264 q 351 -121 351 -187 q 386 -14 351 -64 q 145 87 235 -14 q 56 346 56 188 q 146 606 56 504 q 386 708 236 708 q 617 608 532 708 q 701 347 701 508 q 700 307 701 321 l 175 307 q 240 151 185 208 q 390 93 296 93 q 497 119 454 93 q 582 208 540 144 l 668 149 q 476 -3 601 28 q 438 -111 438 -58 q 462 -176 438 -151 q 529 -201 486 -201 m 389 603 q 246 549 300 603 q 178 403 192 494 l 590 403 q 528 549 581 496 q 389 603 476 603 z "},"Ě":{"ha":753,"x_min":104,"x_max":681,"o":"m 457 1151 l 326 1151 l 185 1389 l 282 1389 l 392 1214 l 503 1389 l 599 1389 l 457 1151 m 681 929 l 231 929 l 231 578 l 622 578 l 622 464 l 231 464 l 231 113 l 681 113 l 681 0 l 104 0 l 104 1042 l 681 1042 l 681 929 z "},"ě":{"ha":757,"x_min":56,"x_max":701,"o":"m 453 808 l 322 808 l 181 1046 l 278 1046 l 388 871 l 499 1046 l 594 1046 l 453 808 m 701 347 q 700 307 701 321 l 175 307 q 240 151 185 208 q 390 93 296 93 q 497 119 454 93 q 582 208 540 144 l 668 149 q 386 -14 578 -14 q 145 87 235 -14 q 56 346 56 188 q 146 606 56 504 q 386 708 236 708 q 617 608 532 708 q 701 347 701 508 m 389 603 q 246 549 300 603 q 178 403 192 494 l 590 403 q 528 549 581 496 q 389 603 476 603 z "},"Ğ":{"ha":1028,"x_min":99,"x_max":924,"o":"m 631 1132 q 464 1191 529 1132 q 399 1349 399 1250 l 475 1349 q 519 1249 475 1290 q 631 1208 564 1208 q 743 1249 699 1208 q 788 1349 788 1290 l 863 1349 q 798 1190 863 1249 q 631 1132 733 1132 m 628 935 q 335 819 454 935 q 217 517 217 704 q 335 214 217 329 q 628 99 454 99 q 811 142 722 99 l 811 443 l 569 443 l 569 557 l 924 557 l 924 67 q 626 -22 782 -22 q 251 128 404 -22 q 99 517 99 279 q 251 905 99 754 q 624 1056 403 1056 q 924 967 782 1056 l 924 808 q 791 901 869 868 q 628 935 713 935 z "},"ğ":{"ha":828,"x_min":56,"x_max":724,"o":"m 388 785 q 221 844 286 785 q 156 1001 156 903 l 232 1001 q 276 902 232 943 q 388 861 321 861 q 500 902 456 861 q 544 1001 544 943 l 619 1001 q 555 843 619 901 q 388 785 490 785 m 613 694 l 724 694 l 724 8 q 634 -247 724 -147 q 396 -347 544 -347 q 182 -282 276 -347 l 182 -149 q 404 -239 276 -239 q 548 -172 493 -239 q 603 8 603 -104 l 603 96 q 375 -14 514 -14 q 143 90 231 -14 q 56 347 56 193 q 143 606 56 503 q 375 708 231 708 q 607 593 517 708 l 613 694 m 394 96 q 524 146 467 96 q 603 274 582 196 l 603 421 q 524 550 582 500 q 394 600 467 600 q 235 528 294 600 q 176 347 176 456 q 235 168 176 240 q 394 96 294 96 z "},"Ġ":{"ha":1028,"x_min":99,"x_max":924,"o":"m 688 1194 q 676 1182 688 1194 q 631 1171 664 1171 q 573 1194 597 1171 q 549 1250 549 1217 q 573 1308 549 1285 q 631 1332 597 1332 q 688 1308 664 1332 q 711 1250 711 1285 q 688 1194 711 1217 m 628 935 q 335 819 454 935 q 217 517 217 704 q 335 214 217 329 q 628 99 454 99 q 811 142 722 99 l 811 443 l 569 443 l 569 557 l 924 557 l 924 67 q 626 -22 782 -22 q 251 128 404 -22 q 99 517 99 279 q 251 905 99 754 q 624 1056 403 1056 q 924 967 782 1056 l 924 808 q 791 901 869 868 q 628 935 713 935 z "},"ġ":{"ha":828,"x_min":56,"x_max":724,"o":"m 446 847 q 434 835 446 847 q 389 824 422 824 q 331 847 356 824 q 307 903 307 869 q 331 961 307 938 q 389 985 356 985 q 446 961 422 985 q 469 903 469 938 q 446 847 469 869 m 613 694 l 724 694 l 724 8 q 634 -247 724 -147 q 396 -347 544 -347 q 182 -282 276 -347 l 182 -149 q 404 -239 276 -239 q 548 -172 493 -239 q 603 8 603 -104 l 603 96 q 375 -14 514 -14 q 143 90 231 -14 q 56 347 56 193 q 143 606 56 503 q 375 708 231 708 q 607 593 517 708 l 613 694 m 394 96 q 524 146 467 96 q 603 274 582 196 l 603 421 q 524 550 582 500 q 394 600 467 600 q 235 528 294 600 q 176 347 176 456 q 235 168 176 240 q 394 96 294 96 z "},"Ģ":{"ha":1028,"x_min":99,"x_max":924,"o":"m 628 935 q 335 819 454 935 q 217 517 217 704 q 335 214 217 329 q 628 99 454 99 q 811 142 722 99 l 811 443 l 569 443 l 569 557 l 924 557 l 924 67 q 626 -22 782 -22 q 251 128 404 -22 q 99 517 99 279 q 251 905 99 754 q 624 1056 403 1056 q 924 967 782 1056 l 924 808 q 791 901 869 868 q 628 935 713 935 m 622 -56 q 681 -81 658 -56 q 704 -144 704 -106 q 663 -312 704 -242 q 551 -379 622 -382 l 551 -332 q 606 -301 585 -331 q 627 -247 628 -272 q 621 -218 626 -222 q 564 -195 586 -218 q 542 -137 542 -172 q 565 -78 542 -101 q 622 -56 588 -56 z "},"ģ":{"ha":828,"x_min":56,"x_max":724,"o":"m 447 827 q 435 815 447 827 q 389 803 424 803 q 331 828 354 803 q 307 892 307 854 q 358 1051 306 978 q 460 1126 410 1124 l 460 1081 q 410 1040 432 1069 q 386 990 389 1011 q 389 965 383 969 q 447 942 424 965 q 469 886 469 919 q 447 827 469 851 m 613 694 l 724 694 l 724 8 q 634 -247 724 -147 q 396 -347 544 -347 q 182 -282 276 -347 l 182 -149 q 404 -239 276 -239 q 548 -172 493 -239 q 603 8 603 -104 l 603 96 q 375 -14 514 -14 q 143 90 231 -14 q 56 347 56 193 q 143 606 56 503 q 375 708 231 708 q 607 593 517 708 l 613 694 m 394 96 q 524 146 467 96 q 603 274 582 196 l 603 421 q 524 550 582 500 q 394 600 467 600 q 235 528 294 600 q 176 347 176 456 q 235 168 176 240 q 394 96 294 96 z "},"Ħ":{"ha":1015,"x_min":8,"x_max":1006,"o":"m 1006 842 l 1006 786 l 911 786 l 911 0 l 785 0 l 785 464 l 231 464 l 231 0 l 104 0 l 104 786 l 8 786 l 8 842 l 104 842 l 104 1042 l 231 1042 l 231 842 l 785 842 l 785 1042 l 911 1042 l 911 842 l 1006 842 m 785 578 l 785 786 l 231 786 l 231 578 l 785 578 z "},"ħ":{"ha":817,"x_min":26,"x_max":718,"o":"m 447 708 q 641 632 564 708 q 718 439 718 556 l 718 0 l 594 0 l 594 425 q 543 550 594 500 q 414 600 492 600 q 281 547 336 600 q 226 419 226 494 l 226 0 l 104 0 l 104 822 l 26 822 l 26 910 l 104 910 l 104 1042 l 226 1042 l 226 910 l 442 910 l 442 822 l 226 822 l 226 607 q 447 708 313 708 z "},"Ĩ":{"ha":335,"x_min":-72,"x_max":406,"o":"m 264 1161 q 135 1236 185 1161 q 72 1276 108 1276 q 24 1248 40 1276 q 17 1174 8 1219 l -61 1174 q -34 1302 -72 1251 q 69 1353 4 1353 q 199 1276 149 1353 q 261 1236 222 1236 q 309 1265 293 1236 q 317 1340 325 1293 l 394 1340 q 368 1213 406 1264 q 264 1161 331 1161 m 104 0 l 104 1042 l 231 1042 l 231 0 l 104 0 z "},"ĩ":{"ha":331,"x_min":-74,"x_max":404,"o":"m 263 814 q 133 889 183 814 q 71 929 107 929 q 23 901 39 929 q 15 826 7 872 l -62 826 q -35 955 -74 904 q 68 1006 3 1006 q 197 929 147 1006 q 260 889 221 889 q 308 917 292 889 q 315 993 324 946 l 393 993 q 367 865 404 917 q 263 814 329 814 m 104 0 l 104 694 l 226 694 l 226 0 l 104 0 z "},"Ī":{"ha":335,"x_min":-49,"x_max":382,"o":"m -49 1182 l -49 1264 l 382 1264 l 382 1182 l -49 1182 m 104 0 l 104 1042 l 231 1042 l 231 0 l 104 0 z "},"ī":{"ha":331,"x_min":-50,"x_max":381,"o":"m -50 835 l -50 917 l 381 917 l 381 835 l -50 835 m 104 0 l 104 694 l 226 694 l 226 0 l 104 0 z "},"Į":{"ha":335,"x_min":-50,"x_max":299,"o":"m 258 -229 l 299 -289 q 108 -360 221 -367 q -7 -319 36 -357 q -50 -214 -50 -281 q 114 0 -50 -89 l 104 0 l 104 1042 l 231 1042 l 231 0 l 218 0 q 93 -74 150 -12 q 36 -204 36 -135 q 60 -269 36 -244 q 128 -294 85 -294 q 258 -229 208 -294 z "},"į":{"ha":331,"x_min":-51,"x_max":297,"o":"m 224 847 q 212 835 224 847 q 167 824 200 824 q 109 847 133 824 q 85 903 85 869 q 109 961 85 938 q 167 985 133 985 q 224 961 200 985 q 247 903 247 938 q 224 847 247 869 m 257 -229 l 297 -289 q 107 -360 219 -367 q -8 -319 35 -357 q -51 -214 -51 -281 q 113 0 -51 -89 l 104 0 l 104 694 l 226 694 l 226 0 l 217 0 q 92 -74 149 -12 q 35 -204 35 -135 q 59 -269 35 -244 q 126 -294 83 -294 q 257 -229 207 -294 z "},"İ":{"ha":335,"x_min":85,"x_max":247,"o":"m 224 1194 q 212 1182 224 1194 q 167 1171 200 1171 q 109 1194 133 1171 q 85 1250 85 1217 q 109 1308 85 1285 q 167 1332 133 1332 q 224 1308 200 1332 q 247 1250 247 1285 q 224 1194 247 1217 m 104 0 l 104 1042 l 231 1042 l 231 0 l 104 0 z "},"ı":{"ha":331,"x_min":104,"x_max":226,"o":"m 104 0 l 104 694 l 226 694 l 226 0 l 104 0 z "},"Ĳ":{"ha":861,"x_min":104,"x_max":750,"o":"m 104 0 l 104 1042 l 231 1042 l 231 0 l 104 0 m 507 -14 q 404 0 443 -14 l 404 129 q 507 113 454 113 q 590 147 556 113 q 624 229 624 181 l 624 1042 l 750 1042 l 750 229 q 678 57 750 128 q 507 -14 607 -14 z "},"ĳ":{"ha":747,"x_min":108,"x_max":667,"o":"m 643 847 q 631 835 643 847 q 586 824 619 824 q 528 847 553 824 q 504 903 504 869 q 528 961 504 938 q 586 985 553 985 q 643 961 619 985 q 667 903 667 938 q 643 847 667 869 m 247 847 q 235 835 247 847 q 190 824 224 824 q 133 847 157 824 q 108 903 108 869 q 133 961 108 938 q 190 985 157 985 q 247 960 222 985 q 271 903 271 936 q 247 847 271 869 m 128 0 l 128 694 l 250 694 l 250 0 l 128 0 m 435 -361 q 344 -339 376 -361 l 344 -232 q 421 -258 378 -258 q 495 -227 465 -258 q 525 -149 525 -196 l 525 694 l 647 694 l 647 -156 q 585 -301 647 -242 q 435 -361 524 -361 z "},"Ķ":{"ha":867,"x_min":104,"x_max":826,"o":"m 361 574 l 826 125 l 826 -42 l 231 535 l 231 0 l 104 0 l 104 1042 l 231 1042 l 231 604 l 658 1042 l 822 1042 l 361 574 m 439 -56 q 498 -81 475 -56 q 521 -144 521 -106 q 480 -312 521 -242 q 368 -379 439 -382 l 368 -332 q 423 -301 401 -331 q 444 -247 444 -272 q 438 -218 443 -222 q 381 -195 403 -218 q 358 -137 358 -172 q 381 -78 358 -101 q 439 -56 404 -56 z "},"ķ":{"ha":704,"x_min":104,"x_max":688,"o":"m 344 389 l 688 81 l 688 -69 l 226 344 l 226 0 l 104 0 l 104 1042 l 226 1042 l 226 424 l 521 694 l 676 694 l 344 389 m 357 -56 q 416 -81 393 -56 q 439 -144 439 -106 q 398 -312 439 -242 q 286 -379 357 -382 l 286 -332 q 341 -301 319 -331 q 362 -247 363 -272 q 356 -218 361 -222 q 299 -195 321 -218 q 276 -137 276 -172 q 299 -78 276 -101 q 357 -56 322 -56 z "},"Ĺ":{"ha":660,"x_min":104,"x_max":613,"o":"m 119 1174 l 244 1389 l 371 1389 l 219 1174 l 119 1174 m 104 0 l 104 1042 l 231 1042 l 231 113 l 613 113 l 613 0 l 104 0 z "},"ĺ":{"ha":454,"x_min":110,"x_max":468,"o":"m 117 1174 l 242 1389 l 368 1389 l 217 1174 l 117 1174 m 322 -14 q 167 44 225 -14 q 110 194 110 101 l 110 1042 l 232 1042 l 233 194 q 325 92 233 92 q 400 124 369 92 l 468 40 q 322 -14 417 -14 z "},"Ļ":{"ha":660,"x_min":104,"x_max":613,"o":"m 104 0 l 104 1042 l 231 1042 l 231 113 l 613 113 l 613 0 l 104 0 m 289 -379 l 289 -332 q 344 -301 322 -331 q 365 -247 365 -272 q 358 -218 364 -222 q 301 -195 324 -218 q 279 -137 279 -172 q 302 -78 279 -101 q 360 -56 325 -56 q 419 -81 396 -56 q 442 -144 442 -106 q 401 -312 442 -242 q 289 -379 360 -382 z "},"ļ":{"ha":454,"x_min":110,"x_max":468,"o":"m 322 -14 q 167 44 225 -14 q 110 194 110 101 l 110 1042 l 232 1042 l 233 194 q 325 92 233 92 q 400 124 369 92 l 468 40 q 322 -14 417 -14 m 225 -379 l 225 -332 q 280 -301 258 -331 q 301 -247 301 -272 q 294 -218 300 -222 q 238 -195 260 -218 q 215 -137 215 -172 q 238 -78 215 -101 q 296 -56 261 -56 q 355 -81 332 -56 q 378 -144 378 -106 q 337 -312 378 -242 q 225 -379 296 -382 z "},"Ľ":{"ha":681,"x_min":104,"x_max":632,"o":"m 467 642 l 467 701 q 530 753 504 703 q 556 850 556 804 q 538 886 556 886 q 481 910 504 886 q 457 968 457 933 q 481 1026 457 1003 q 539 1049 504 1049 q 608 1007 585 1049 q 632 903 632 965 q 586 725 632 807 q 467 642 540 643 m 104 0 l 104 1042 l 231 1042 l 231 113 l 613 113 l 613 0 l 104 0 z "},"ľ":{"ha":486,"x_min":110,"x_max":500,"o":"m 335 642 l 335 701 q 397 753 371 703 q 422 850 422 804 q 404 886 422 886 q 348 910 371 886 q 325 968 325 933 q 348 1026 325 1003 q 406 1049 371 1049 q 476 1007 451 1049 q 500 903 500 965 q 454 725 500 807 q 335 642 408 643 m 322 -14 q 167 44 225 -14 q 110 194 110 101 l 110 1042 l 232 1042 l 233 194 q 325 92 233 92 q 400 124 369 92 l 468 40 q 322 -14 417 -14 z "},"ŀ":{"ha":454,"x_min":110,"x_max":468,"o":"m 322 -14 q 167 44 225 -14 q 110 194 110 101 l 110 1042 l 232 1042 l 233 194 q 325 92 233 92 q 400 124 369 92 l 468 40 q 322 -14 417 -14 m 389 454 q 379 445 389 454 q 343 436 369 436 q 297 454 317 436 q 278 500 278 472 q 297 546 278 526 q 343 565 317 565 q 389 546 369 565 q 408 500 408 526 q 389 454 408 472 z "},"Ł":{"ha":660,"x_min":-57,"x_max":613,"o":"m 231 113 l 613 113 l 613 0 l 104 0 l 104 407 l 35 335 l -57 335 l 104 506 l 104 1042 l 231 1042 l 231 640 l 296 710 l 393 710 l 231 540 l 231 113 z "},"ł":{"ha":454,"x_min":-60,"x_max":468,"o":"m 400 124 l 468 40 q 322 -14 417 -14 q 167 44 225 -14 q 110 194 110 101 l 110 399 l 32 318 l -60 318 l 110 497 l 110 1042 l 232 1042 l 232 629 l 293 693 l 390 693 l 232 528 l 233 194 q 325 92 233 92 q 400 124 369 92 z "},"Ń":{"ha":1081,"x_min":104,"x_max":976,"o":"m 742 1389 l 590 1174 l 490 1174 l 615 1389 l 742 1389 m 851 1042 l 976 1042 l 976 0 l 856 0 l 231 838 l 231 0 l 104 0 l 104 1042 l 225 1042 l 851 203 l 851 1042 z "},"ń":{"ha":817,"x_min":104,"x_max":718,"o":"m 615 1042 l 464 826 l 364 826 l 489 1042 l 615 1042 m 447 708 q 641 632 564 708 q 718 439 718 556 l 718 0 l 594 0 l 594 425 q 543 550 594 500 q 414 600 492 600 q 281 547 336 600 q 226 419 226 494 l 226 0 l 104 0 l 104 694 l 217 694 l 222 603 q 447 708 310 708 z "},"Ņ":{"ha":1081,"x_min":104,"x_max":976,"o":"m 851 1042 l 976 1042 l 976 0 l 856 0 l 231 838 l 231 0 l 104 0 l 104 1042 l 225 1042 l 851 203 l 851 1042 m 546 -56 q 605 -81 582 -56 q 628 -144 628 -106 q 587 -312 628 -242 q 475 -379 546 -382 l 475 -332 q 530 -301 508 -331 q 551 -247 551 -272 q 544 -218 550 -222 q 488 -195 510 -218 q 465 -137 465 -172 q 488 -78 465 -101 q 546 -56 511 -56 z "},"ņ":{"ha":817,"x_min":104,"x_max":718,"o":"m 447 708 q 641 632 564 708 q 718 439 718 556 l 718 0 l 594 0 l 594 425 q 543 550 594 500 q 414 600 492 600 q 281 547 336 600 q 226 419 226 494 l 226 0 l 104 0 l 104 694 l 217 694 l 222 603 q 447 708 310 708 m 413 -56 q 472 -81 449 -56 q 494 -144 494 -106 q 453 -312 494 -242 q 342 -379 413 -382 l 342 -332 q 397 -301 375 -331 q 417 -247 418 -272 q 411 -218 417 -222 q 354 -195 376 -218 q 332 -137 332 -172 q 355 -78 332 -101 q 413 -56 378 -56 z "},"Ň":{"ha":1081,"x_min":104,"x_max":976,"o":"m 603 1151 l 472 1151 l 331 1389 l 428 1389 l 538 1214 l 649 1389 l 744 1389 l 603 1151 m 851 1042 l 976 1042 l 976 0 l 856 0 l 231 838 l 231 0 l 104 0 l 104 1042 l 225 1042 l 851 203 l 851 1042 z "},"ň":{"ha":817,"x_min":104,"x_max":718,"o":"m 476 804 l 346 804 l 204 1042 l 301 1042 l 411 867 l 522 1042 l 618 1042 l 476 804 m 447 708 q 641 632 564 708 q 718 439 718 556 l 718 0 l 594 0 l 594 425 q 543 550 594 500 q 414 600 492 600 q 281 547 336 600 q 226 419 226 494 l 226 0 l 104 0 l 104 694 l 217 694 l 222 603 q 447 708 310 708 z "},"Ŋ":{"ha":1121,"x_min":125,"x_max":994,"o":"m 871 1042 l 994 1042 l 994 -103 q 933 -239 994 -194 q 774 -281 871 -283 l 774 -196 q 868 -103 868 -201 l 868 14 l 249 832 l 249 0 l 125 0 l 125 1042 l 243 1042 l 871 211 l 871 1042 z "},"ŋ":{"ha":851,"x_min":125,"x_max":739,"o":"m 467 708 q 660 628 581 708 q 739 433 739 549 l 739 -111 q 677 -245 739 -200 q 518 -289 615 -290 l 518 -203 q 615 -111 615 -208 l 615 419 q 563 547 615 494 q 436 600 511 600 q 303 547 358 600 q 249 419 249 494 l 249 0 l 125 0 l 125 694 l 249 694 l 249 594 q 467 708 331 708 z "},"Ō":{"ha":1158,"x_min":71,"x_max":1088,"o":"m 364 1182 l 364 1264 l 794 1264 l 794 1182 l 364 1182 m 579 -14 q 215 141 360 -14 q 71 521 71 296 q 215 901 71 746 q 579 1056 360 1056 q 942 901 797 1056 q 1088 521 1088 746 q 942 141 1088 296 q 579 -14 797 -14 m 299 226 q 354 166 299 226 q 579 107 408 107 q 858 226 750 107 q 967 521 967 344 q 858 816 967 697 q 579 935 750 935 q 299 816 408 935 q 190 521 190 697 q 299 226 190 344 z "},"ō":{"ha":788,"x_min":56,"x_max":733,"o":"m 178 835 l 178 917 l 608 917 l 608 835 l 178 835 m 394 -14 q 150 90 244 -14 q 56 347 56 194 q 150 605 56 501 q 394 708 244 708 q 638 604 543 708 q 733 347 733 500 q 638 90 733 194 q 394 -14 543 -14 m 394 96 q 553 168 493 96 q 613 347 613 240 q 552 528 613 456 q 394 600 492 600 q 235 528 294 600 q 176 347 176 456 q 235 167 176 239 q 394 96 294 96 z "},"Ő":{"ha":1158,"x_min":71,"x_max":1088,"o":"m 415 1147 l 619 1389 l 739 1389 l 508 1147 l 415 1147 m 654 1147 l 857 1389 l 976 1389 l 746 1147 l 654 1147 m 579 -14 q 215 141 360 -14 q 71 521 71 296 q 215 901 71 746 q 579 1056 360 1056 q 942 901 797 1056 q 1088 521 1088 746 q 942 141 1088 296 q 579 -14 797 -14 m 299 226 q 354 166 299 226 q 579 107 408 107 q 858 226 750 107 q 967 521 967 344 q 858 816 967 697 q 579 935 750 935 q 299 816 408 935 q 190 521 190 697 q 299 226 190 344 z "},"ő":{"ha":788,"x_min":56,"x_max":790,"o":"m 229 800 l 433 1042 l 553 1042 l 322 800 l 229 800 m 468 800 l 671 1042 l 790 1042 l 560 800 l 468 800 m 394 -14 q 150 90 244 -14 q 56 347 56 194 q 150 605 56 501 q 394 708 244 708 q 638 604 543 708 q 733 347 733 500 q 638 90 733 194 q 394 -14 543 -14 m 394 96 q 553 168 493 96 q 613 347 613 240 q 552 528 613 456 q 394 600 492 600 q 235 528 294 600 q 176 347 176 456 q 235 167 176 239 q 394 96 294 96 z "},"Œ":{"ha":1746,"x_min":97,"x_max":1621,"o":"m 1621 933 l 1167 933 l 1167 575 l 1561 575 l 1561 467 l 1167 467 l 1167 108 l 1621 108 l 1621 0 l 1064 0 l 1064 204 q 876 44 989 103 q 632 -14 763 -14 q 253 142 410 -14 q 97 521 97 299 q 253 899 97 743 q 632 1056 410 1056 q 876 997 763 1056 q 1064 838 989 939 l 1064 1042 l 1621 1042 l 1621 933 m 341 228 q 401 168 341 228 q 633 108 461 108 q 926 228 806 108 q 1046 521 1046 349 q 926 814 1046 693 q 633 935 806 935 q 341 814 461 935 q 221 521 221 693 q 341 228 221 349 z "},"œ":{"ha":1315,"x_min":56,"x_max":1260,"o":"m 1260 347 q 1258 307 1260 321 l 733 307 q 799 151 743 208 q 949 93 854 93 q 1056 119 1013 93 q 1140 208 1099 144 l 1226 149 q 944 -14 1136 -14 q 671 131 761 -14 q 394 -14 572 -14 q 150 90 244 -14 q 56 347 56 194 q 150 605 56 501 q 394 708 244 708 q 671 563 575 708 q 944 708 763 708 q 1175 608 1090 708 q 1260 347 1260 508 m 947 603 q 804 549 858 603 q 736 403 750 496 l 1149 403 q 1085 549 1138 496 q 947 603 1033 603 m 394 96 q 553 168 493 96 q 613 347 613 240 q 552 528 613 456 q 394 600 492 600 q 235 528 294 600 q 176 347 176 456 q 235 167 176 239 q 394 96 294 96 z "},"Ŕ":{"ha":822,"x_min":104,"x_max":806,"o":"m 625 1389 l 474 1174 l 374 1174 l 499 1389 l 625 1389 m 543 472 l 806 0 l 664 0 l 415 465 l 231 465 l 231 0 l 104 0 l 104 1042 l 486 1042 q 693 956 607 1042 q 779 747 779 869 q 712 566 779 643 q 543 472 644 489 m 231 569 l 483 569 q 610 622 558 569 q 663 750 663 675 q 610 877 663 825 q 483 929 557 929 l 231 929 l 231 569 z "},"ŕ":{"ha":554,"x_min":104,"x_max":579,"o":"m 508 1042 l 357 826 l 257 826 l 382 1042 l 508 1042 m 428 708 q 579 667 524 708 l 519 578 q 422 600 479 600 q 285 540 344 600 q 226 389 226 479 l 226 0 l 104 0 l 104 694 l 217 694 l 222 589 q 428 708 306 708 z "},"Ŗ":{"ha":822,"x_min":104,"x_max":806,"o":"m 543 472 l 806 0 l 664 0 l 415 465 l 231 465 l 231 0 l 104 0 l 104 1042 l 486 1042 q 693 956 607 1042 q 779 747 779 869 q 712 566 779 643 q 543 472 644 489 m 231 569 l 483 569 q 610 622 558 569 q 663 750 663 675 q 610 877 663 825 q 483 929 557 929 l 231 929 l 231 569 m 422 -56 q 481 -81 458 -56 q 504 -144 504 -106 q 463 -312 504 -242 q 351 -379 422 -382 l 351 -332 q 406 -301 385 -331 q 427 -247 428 -272 q 421 -218 426 -222 q 364 -195 386 -218 q 342 -137 342 -172 q 365 -78 342 -101 q 422 -56 388 -56 z "},"ŗ":{"ha":554,"x_min":88,"x_max":579,"o":"m 428 708 q 579 667 524 708 l 519 578 q 422 600 479 600 q 285 540 344 600 q 226 389 226 479 l 226 0 l 104 0 l 104 694 l 217 694 l 222 589 q 428 708 306 708 m 168 -56 q 227 -81 204 -56 q 250 -144 250 -106 q 209 -312 250 -242 q 97 -379 168 -382 l 97 -332 q 152 -301 131 -331 q 173 -247 174 -272 q 167 -218 172 -222 q 110 -195 132 -218 q 88 -137 88 -172 q 110 -78 88 -101 q 168 -56 133 -56 z "},"Ř":{"ha":822,"x_min":104,"x_max":806,"o":"m 486 1151 l 356 1151 l 214 1389 l 311 1389 l 421 1214 l 532 1389 l 628 1389 l 486 1151 m 543 472 l 806 0 l 664 0 l 415 465 l 231 465 l 231 0 l 104 0 l 104 1042 l 486 1042 q 693 956 607 1042 q 779 747 779 869 q 712 566 779 643 q 543 472 644 489 m 231 569 l 483 569 q 610 622 558 569 q 663 750 663 675 q 610 877 663 825 q 483 929 557 929 l 231 929 l 231 569 z "},"ř":{"ha":554,"x_min":97,"x_max":579,"o":"m 369 804 l 239 804 l 97 1042 l 194 1042 l 304 867 l 415 1042 l 511 1042 l 369 804 m 428 708 q 579 667 524 708 l 519 578 q 422 600 479 600 q 285 540 344 600 q 226 389 226 479 l 226 0 l 104 0 l 104 694 l 217 694 l 222 589 q 428 708 306 708 z "},"Ś":{"ha":874,"x_min":58,"x_max":806,"o":"m 435 1174 l 560 1389 l 686 1389 l 535 1174 l 435 1174 m 451 -14 q 219 42 325 -14 q 58 188 114 97 l 150 281 q 265 155 182 203 q 456 107 349 107 q 615 148 554 107 q 678 272 676 189 q 663 344 678 311 q 627 398 647 376 q 567 442 607 419 q 499 475 526 464 q 421 506 472 486 q 333 540 363 528 q 256 578 303 553 q 186 630 210 604 q 144 696 163 656 q 125 785 125 736 q 217 984 125 913 q 446 1056 308 1056 q 653 1016 563 1056 q 799 911 744 976 l 714 825 q 449 946 633 946 q 308 907 364 946 q 253 794 253 868 q 266 740 253 765 q 297 696 279 714 q 350 659 315 678 q 411 629 385 640 q 482 601 438 618 q 549 574 526 583 q 612 546 571 565 q 674 511 653 526 q 725 470 696 496 q 769 418 754 444 q 794 356 783 392 q 806 279 806 319 q 707 60 806 135 q 451 -14 608 -14 z "},"ś":{"ha":658,"x_min":51,"x_max":606,"o":"m 288 826 l 413 1042 l 539 1042 l 388 826 l 288 826 m 336 -14 q 171 17 251 -14 q 51 93 90 47 l 115 176 q 203 115 140 140 q 329 88 267 89 q 438 113 394 85 q 482 188 482 140 q 472 225 482 208 q 449 252 461 242 q 409 274 438 263 q 365 291 381 286 q 313 307 350 296 q 258 325 275 319 q 208 344 242 331 q 158 370 175 357 q 122 403 142 383 q 94 449 103 424 q 86 506 86 475 q 162 652 86 596 q 342 708 238 708 q 473 687 407 708 q 582 631 539 665 l 514 547 q 363 610 454 603 q 258 590 304 614 q 211 521 211 567 q 223 476 211 496 q 262 443 235 457 q 310 422 289 429 q 374 401 332 414 q 441 381 418 389 q 501 356 464 374 q 556 320 538 339 q 590 269 575 301 q 606 197 606 238 q 528 46 606 106 q 336 -14 451 -14 z "},"Ş":{"ha":874,"x_min":58,"x_max":806,"o":"m 806 279 q 710 63 806 136 q 458 -14 614 -11 l 419 -92 q 542 -115 492 -78 q 593 -218 593 -151 q 552 -318 593 -276 q 451 -360 511 -360 q 358 -334 404 -360 q 290 -272 311 -308 l 349 -247 q 394 -283 364 -268 q 451 -297 424 -297 q 507 -274 485 -297 q 529 -218 529 -251 q 489 -151 529 -169 q 390 -154 449 -132 l 340 -121 l 396 -11 q 197 55 286 1 q 58 188 107 108 l 150 281 q 265 155 182 203 q 456 107 349 107 q 615 148 554 107 q 678 272 676 189 q 663 344 678 311 q 627 398 647 376 q 567 442 607 419 q 499 475 526 464 q 421 506 472 486 q 333 540 363 528 q 256 578 303 553 q 186 630 210 604 q 144 696 163 656 q 125 785 125 736 q 217 984 125 913 q 446 1056 308 1056 q 653 1016 563 1056 q 799 911 744 976 l 714 825 q 449 946 633 946 q 308 907 364 946 q 253 794 253 868 q 266 740 253 765 q 297 696 279 714 q 350 659 315 678 q 411 629 385 640 q 482 601 438 618 q 549 574 526 583 q 612 546 571 565 q 674 511 653 526 q 725 470 696 496 q 769 418 754 444 q 794 356 783 392 q 806 279 806 319 z "},"ş":{"ha":658,"x_min":51,"x_max":606,"o":"m 606 197 q 539 54 606 113 q 369 -12 472 -4 l 329 -93 q 452 -116 401 -79 q 503 -219 503 -153 q 462 -319 503 -278 q 361 -361 421 -361 q 267 -335 314 -361 q 200 -274 221 -310 l 258 -249 q 303 -284 274 -269 q 361 -299 333 -299 q 417 -276 394 -299 q 439 -219 439 -253 q 399 -152 439 -171 q 300 -156 358 -133 l 250 -122 l 304 -12 q 158 22 228 -7 q 51 93 88 51 l 115 176 q 203 115 140 140 q 329 88 267 89 q 438 113 394 85 q 482 188 482 140 q 472 225 482 208 q 449 252 461 242 q 409 274 438 263 q 365 291 381 286 q 313 307 350 296 q 258 325 275 319 q 208 344 242 331 q 158 370 175 357 q 122 403 142 383 q 94 449 103 424 q 86 506 86 475 q 162 652 86 596 q 342 708 238 708 q 473 687 407 708 q 582 631 539 665 l 514 547 q 363 610 454 603 q 258 590 304 614 q 211 521 211 567 q 223 476 211 496 q 262 443 235 457 q 310 422 289 429 q 374 401 332 414 q 441 381 418 389 q 501 356 464 374 q 556 320 538 339 q 590 269 575 301 q 606 197 606 238 z "},"Š":{"ha":874,"x_min":58,"x_max":806,"o":"m 417 1151 l 275 1389 l 372 1389 l 482 1214 l 593 1389 l 689 1389 l 547 1151 l 417 1151 m 451 -14 q 219 42 325 -14 q 58 188 114 97 l 150 281 q 265 155 182 203 q 456 107 349 107 q 615 148 554 107 q 678 272 676 189 q 663 344 678 311 q 627 398 647 376 q 567 442 607 419 q 499 475 526 464 q 421 506 472 486 q 333 540 363 528 q 256 578 303 553 q 186 630 210 604 q 144 696 163 656 q 125 785 125 736 q 217 984 125 913 q 446 1056 308 1056 q 653 1016 563 1056 q 799 911 744 976 l 714 825 q 449 946 633 946 q 308 907 364 946 q 253 794 253 868 q 266 740 253 765 q 297 696 279 714 q 350 659 315 678 q 411 629 385 640 q 482 601 438 618 q 549 574 526 583 q 612 546 571 565 q 674 511 653 526 q 725 470 696 496 q 769 418 754 444 q 794 356 783 392 q 806 279 806 319 q 707 60 806 135 q 451 -14 608 -14 z "},"š":{"ha":658,"x_min":51,"x_max":606,"o":"m 269 804 l 128 1042 l 225 1042 l 335 867 l 446 1042 l 542 1042 l 400 804 l 269 804 m 336 -14 q 171 17 251 -14 q 51 93 90 47 l 115 176 q 203 115 140 140 q 329 88 267 89 q 438 113 394 85 q 482 188 482 140 q 472 225 482 208 q 449 252 461 242 q 409 274 438 263 q 365 291 381 286 q 313 307 350 296 q 258 325 275 319 q 208 344 242 331 q 158 370 175 357 q 122 403 142 383 q 94 449 103 424 q 86 506 86 475 q 162 652 86 596 q 342 708 238 708 q 473 687 407 708 q 582 631 539 665 l 514 547 q 363 610 454 603 q 258 590 304 614 q 211 521 211 567 q 223 476 211 496 q 262 443 235 457 q 310 422 289 429 q 374 401 332 414 q 441 381 418 389 q 501 356 464 374 q 556 320 538 339 q 590 269 575 301 q 606 197 606 238 q 528 46 606 106 q 336 -14 451 -14 z "},"Ţ":{"ha":764,"x_min":35,"x_max":731,"o":"m 35 1042 l 731 1042 l 731 931 l 446 931 l 446 0 l 319 0 l 319 931 l 35 931 l 35 1042 m 368 -93 q 491 -116 440 -79 q 542 -219 542 -153 q 501 -319 542 -278 q 400 -361 460 -361 q 306 -335 353 -361 q 239 -274 260 -310 l 297 -249 q 342 -284 313 -269 q 400 -299 372 -299 q 456 -276 433 -299 q 478 -219 478 -253 q 438 -152 478 -171 q 339 -156 397 -133 l 289 -122 l 350 0 l 414 0 l 368 -93 z "},"ţ":{"ha":485,"x_min":32,"x_max":481,"o":"m 481 40 q 340 -14 431 -12 l 301 -93 q 424 -116 374 -79 q 475 -219 475 -153 q 434 -319 475 -278 q 333 -361 393 -361 q 240 -335 286 -361 q 172 -274 193 -310 l 231 -249 q 276 -284 246 -269 q 333 -299 306 -299 q 389 -276 367 -299 q 411 -219 411 -253 q 371 -152 411 -171 q 272 -156 331 -133 l 222 -122 l 279 -8 q 164 61 206 7 q 122 194 122 115 l 122 599 l 32 599 l 32 694 l 122 694 l 122 931 l 244 931 l 244 694 l 433 694 l 433 599 l 246 599 l 246 194 q 338 92 246 92 q 413 124 382 92 l 481 40 z "},"Ť":{"ha":764,"x_min":35,"x_max":731,"o":"m 447 1151 l 317 1151 l 175 1389 l 272 1389 l 382 1214 l 493 1389 l 589 1389 l 447 1151 m 731 1042 l 731 931 l 446 931 l 446 0 l 319 0 l 319 931 l 35 931 l 35 1042 l 731 1042 z "},"ť":{"ha":519,"x_min":32,"x_max":536,"o":"m 442 982 q 385 1006 408 982 q 361 1063 361 1029 q 385 1120 361 1097 q 443 1143 408 1143 q 513 1102 489 1143 q 536 997 536 1061 q 490 819 536 901 q 371 736 444 738 l 371 797 q 433 849 407 799 q 460 946 460 900 q 442 982 460 982 m 338 92 q 413 124 382 92 l 481 40 q 335 -14 429 -14 q 181 44 239 -14 q 122 194 122 101 l 122 599 l 32 599 l 32 694 l 122 694 l 122 931 l 244 931 l 244 694 l 433 694 l 433 599 l 246 599 l 246 194 q 338 92 246 92 z "},"Ŧ":{"ha":764,"x_min":35,"x_max":731,"o":"m 731 931 l 446 931 l 446 565 l 589 565 l 589 478 l 446 478 l 446 0 l 319 0 l 319 478 l 174 478 l 174 565 l 319 565 l 319 931 l 35 931 l 35 1042 l 731 1042 l 731 931 z "},"ŧ":{"ha":485,"x_min":32,"x_max":481,"o":"m 413 124 l 481 40 q 335 -14 429 -14 q 181 44 239 -14 q 122 194 122 101 l 122 304 l 33 304 l 33 392 l 122 392 l 122 599 l 32 599 l 32 694 l 122 694 l 122 931 l 244 931 l 244 694 l 433 694 l 433 599 l 246 599 l 246 392 l 449 392 l 449 304 l 246 304 l 246 194 q 338 92 246 92 q 413 124 382 92 z "},"Ũ":{"ha":1014,"x_min":111,"x_max":904,"o":"m 604 1161 q 475 1236 525 1161 q 413 1276 449 1276 q 365 1248 381 1276 q 357 1174 349 1219 l 279 1174 q 306 1302 268 1251 q 410 1353 344 1353 q 539 1276 489 1353 q 601 1236 563 1236 q 649 1265 633 1236 q 657 1340 665 1293 l 735 1340 q 708 1213 746 1264 q 604 1161 671 1161 m 788 90 q 730 38 788 90 q 507 -14 672 -14 q 226 90 342 -14 q 111 342 111 193 l 111 1042 l 238 1042 l 238 363 q 316 176 238 253 q 507 99 394 99 q 698 176 619 99 q 776 363 776 253 l 776 1042 l 904 1042 l 904 342 q 788 90 904 193 z "},"Ū":{"ha":1014,"x_min":111,"x_max":904,"o":"m 292 1182 l 292 1264 l 722 1264 l 722 1182 l 292 1182 m 788 90 q 730 38 788 90 q 507 -14 672 -14 q 226 90 342 -14 q 111 342 111 193 l 111 1042 l 238 1042 l 238 363 q 316 176 238 253 q 507 99 394 99 q 698 176 619 99 q 776 363 776 253 l 776 1042 l 904 1042 l 904 342 q 788 90 904 193 z "},"ū":{"ha":825,"x_min":107,"x_max":721,"o":"m 628 917 l 628 835 l 197 835 l 197 917 l 628 917 m 597 694 l 721 694 l 721 0 l 608 0 l 601 93 q 381 -14 517 -14 q 186 67 265 -14 q 107 263 107 147 l 107 694 l 229 694 l 229 275 q 282 148 229 200 q 411 96 335 96 q 543 148 489 96 q 597 275 597 200 l 597 694 z "},"Ů":{"ha":1014,"x_min":111,"x_max":904,"o":"m 507 1124 q 406 1165 447 1124 q 364 1265 364 1207 q 406 1365 364 1324 q 507 1407 447 1407 q 606 1365 565 1407 q 647 1265 647 1324 q 606 1165 647 1207 q 507 1124 565 1124 m 447 1203 q 459 1191 447 1203 q 507 1179 471 1179 q 567 1203 543 1179 q 590 1265 590 1228 q 566 1326 590 1301 q 507 1351 542 1351 q 447 1326 472 1351 q 422 1265 422 1301 q 447 1203 422 1228 m 788 90 q 730 38 788 90 q 507 -14 672 -14 q 226 90 342 -14 q 111 342 111 193 l 111 1042 l 238 1042 l 238 363 q 316 176 238 253 q 507 99 394 99 q 698 176 619 99 q 776 363 776 253 l 776 1042 l 904 1042 l 904 342 q 788 90 904 193 z "},"ů":{"ha":825,"x_min":107,"x_max":721,"o":"m 414 776 q 313 818 354 776 q 271 918 271 860 q 313 1018 271 976 q 414 1060 354 1060 q 513 1018 472 1060 q 554 918 554 976 q 513 818 554 860 q 414 776 472 776 m 473 979 q 461 992 473 979 q 414 1004 449 1004 q 354 979 379 1004 q 329 918 329 954 q 353 856 329 881 q 414 832 378 832 q 474 856 450 832 q 497 918 497 881 q 473 979 497 954 m 597 694 l 721 694 l 721 0 l 608 0 l 601 93 q 381 -14 517 -14 q 186 67 265 -14 q 107 263 107 147 l 107 694 l 229 694 l 229 275 q 282 148 229 200 q 411 96 335 96 q 543 148 489 96 q 597 275 597 200 l 597 694 z "},"Ű":{"ha":1014,"x_min":111,"x_max":904,"o":"m 343 1147 l 547 1389 l 667 1389 l 436 1147 l 343 1147 m 582 1147 l 785 1389 l 904 1389 l 674 1147 l 582 1147 m 788 90 q 730 38 788 90 q 507 -14 672 -14 q 226 90 342 -14 q 111 342 111 193 l 111 1042 l 238 1042 l 238 363 q 316 176 238 253 q 507 99 394 99 q 698 176 619 99 q 776 363 776 253 l 776 1042 l 904 1042 l 904 342 q 788 90 904 193 z "},"ű":{"ha":825,"x_min":107,"x_max":810,"o":"m 572 1042 l 342 800 l 249 800 l 453 1042 l 572 1042 m 579 800 l 488 800 l 690 1042 l 810 1042 l 579 800 m 597 275 l 597 694 l 721 694 l 721 0 l 608 0 l 601 93 q 381 -14 517 -14 q 186 67 265 -14 q 107 263 107 147 l 107 694 l 229 694 l 229 275 q 282 148 229 200 q 411 96 335 96 q 543 148 489 96 q 597 275 597 200 z "},"Ų":{"ha":1014,"x_min":111,"x_max":904,"o":"m 776 1042 l 904 1042 l 904 342 q 814 114 904 211 q 585 -7 724 17 q 488 -87 528 -35 q 449 -196 449 -139 q 473 -261 449 -236 q 540 -286 497 -286 q 671 -221 621 -286 l 711 -281 q 521 -351 633 -358 q 406 -310 449 -349 q 363 -206 363 -272 q 489 -14 363 -97 q 220 95 329 -7 q 111 342 111 197 l 111 1042 l 238 1042 l 238 363 q 316 176 238 253 q 507 99 394 99 q 698 176 619 99 q 776 363 776 253 l 776 1042 z "},"ų":{"ha":825,"x_min":107,"x_max":800,"o":"m 760 -229 l 800 -289 q 610 -360 722 -367 q 494 -319 538 -357 q 451 -214 451 -281 q 615 0 451 -89 l 608 0 l 601 93 q 381 -14 517 -14 q 186 67 265 -14 q 107 263 107 147 l 107 694 l 229 694 l 229 275 q 282 148 229 200 q 411 96 335 96 q 543 148 489 96 q 597 275 597 200 l 597 694 l 721 694 l 721 0 l 719 0 q 594 -74 651 -12 q 538 -204 538 -135 q 562 -269 538 -244 q 629 -294 586 -294 q 760 -229 710 -294 z "},"Ŵ":{"ha":1504,"x_min":-14,"x_max":1518,"o":"m 753 1329 l 646 1151 l 546 1151 l 688 1389 l 818 1389 l 960 1151 l 860 1151 l 753 1329 m 1382 1042 l 1518 1042 l 1079 0 l 942 0 l 753 447 l 564 0 l 428 0 l -14 1042 l 124 1042 l 500 150 l 689 597 l 501 1042 l 632 1042 l 1006 150 l 1382 1042 z "},"ŵ":{"ha":996,"x_min":13,"x_max":983,"o":"m 435 982 l 328 804 l 228 804 l 369 1042 l 500 1042 l 642 804 l 542 804 l 435 982 m 847 694 l 983 694 l 746 0 l 611 0 l 496 331 l 385 0 l 251 0 l 13 694 l 151 694 l 325 147 l 439 490 l 368 694 l 489 694 l 671 144 l 847 694 z "},"Ŷ":{"ha":907,"x_min":26,"x_max":881,"o":"m 454 1329 l 347 1151 l 247 1151 l 389 1389 l 519 1389 l 661 1151 l 561 1151 l 454 1329 m 881 1042 l 518 494 l 518 0 l 390 0 l 390 492 l 26 1042 l 169 1042 l 454 601 l 739 1042 l 881 1042 z "},"ŷ":{"ha":825,"x_min":107,"x_max":721,"o":"m 413 982 l 306 804 l 206 804 l 347 1042 l 478 1042 l 619 804 l 519 804 l 413 982 m 721 694 l 721 -18 q 634 -262 721 -168 q 386 -356 547 -356 q 144 -289 247 -356 l 144 -156 q 396 -246 249 -246 q 547 -186 496 -246 q 597 -18 597 -126 l 597 89 q 381 -14 514 -14 q 186 67 265 -14 q 107 263 107 147 l 107 694 l 229 694 l 229 275 q 282 148 229 200 q 411 96 335 96 q 543 148 489 96 q 597 275 597 200 l 597 694 l 721 694 z "},"Ÿ":{"ha":907,"x_min":26,"x_max":881,"o":"m 382 1194 q 370 1182 382 1194 q 325 1171 358 1171 q 267 1194 292 1171 q 243 1250 243 1217 q 267 1308 243 1285 q 325 1332 292 1332 q 382 1308 358 1332 q 406 1250 406 1285 q 382 1194 406 1217 m 642 1194 q 630 1182 642 1194 q 585 1171 618 1171 q 528 1194 551 1171 q 504 1250 504 1217 q 528 1308 504 1283 q 585 1332 553 1332 q 642 1308 618 1332 q 665 1250 665 1285 q 642 1194 665 1217 m 881 1042 l 518 494 l 518 0 l 390 0 l 390 492 l 26 1042 l 169 1042 l 454 601 l 739 1042 l 881 1042 z "},"Ź":{"ha":915,"x_min":63,"x_max":851,"o":"m 668 1389 l 517 1174 l 417 1174 l 542 1389 l 668 1389 m 236 113 l 851 113 l 851 0 l 63 0 l 63 67 l 661 929 l 78 929 l 78 1042 l 835 1042 l 835 975 l 236 113 z "},"ź":{"ha":733,"x_min":67,"x_max":667,"o":"m 336 826 l 461 1042 l 588 1042 l 436 826 l 336 826 m 67 0 l 67 86 l 494 592 l 75 592 l 75 694 l 657 694 l 657 611 l 229 103 l 667 103 l 667 0 l 67 0 z "},"Ż":{"ha":915,"x_min":63,"x_max":851,"o":"m 522 1194 q 510 1182 522 1194 q 465 1171 499 1171 q 408 1194 432 1171 q 383 1250 383 1217 q 408 1308 383 1285 q 465 1332 432 1332 q 522 1308 499 1332 q 546 1250 546 1285 q 522 1194 546 1217 m 236 113 l 851 113 l 851 0 l 63 0 l 63 67 l 661 929 l 78 929 l 78 1042 l 835 1042 l 835 975 l 236 113 z "},"ż":{"ha":733,"x_min":67,"x_max":667,"o":"m 440 847 q 428 835 440 847 q 383 824 417 824 q 326 847 350 824 q 301 903 301 869 q 326 961 301 938 q 383 985 350 985 q 440 961 417 985 q 464 903 464 938 q 440 847 464 869 m 67 0 l 67 86 l 494 592 l 75 592 l 75 694 l 657 694 l 657 611 l 229 103 l 667 103 l 667 0 l 67 0 z "},"Ž":{"ha":915,"x_min":63,"x_max":851,"o":"m 529 1151 l 399 1151 l 257 1389 l 354 1389 l 464 1214 l 575 1389 l 671 1389 l 529 1151 m 236 113 l 851 113 l 851 0 l 63 0 l 63 67 l 661 929 l 78 929 l 78 1042 l 835 1042 l 835 975 l 236 113 z "},"ž":{"ha":733,"x_min":67,"x_max":667,"o":"m 318 804 l 176 1042 l 274 1042 l 383 867 l 494 1042 l 590 1042 l 449 804 l 318 804 m 67 0 l 67 86 l 494 592 l 75 592 l 75 694 l 657 694 l 657 611 l 229 103 l 667 103 l 667 0 l 67 0 z "},"ƒ":{"ha":613,"x_min":63,"x_max":581,"o":"m 500 964 q 409 929 447 964 q 361 839 371 894 l 339 694 l 533 694 l 518 599 l 324 599 l 174 -347 l 63 -347 l 211 599 l 96 599 l 111 694 l 226 694 l 253 854 q 334 998 265 940 q 489 1056 403 1056 q 581 1032 549 1056 l 569 942 q 500 964 546 964 z "},"Ǎ":{"ha":1032,"x_min":26,"x_max":1004,"o":"m 581 1151 l 450 1151 l 308 1389 l 406 1389 l 515 1214 l 626 1389 l 722 1389 l 581 1151 m 867 0 l 782 218 l 249 218 l 164 0 l 26 0 l 444 1042 l 586 1042 l 1004 0 l 867 0 m 289 325 l 742 325 l 515 911 l 289 325 z "},"ǎ":{"ha":746,"x_min":63,"x_max":647,"o":"m 442 804 l 311 804 l 169 1042 l 267 1042 l 376 867 l 488 1042 l 583 1042 l 442 804 m 360 708 q 567 641 486 708 q 647 444 647 574 l 647 0 l 539 0 l 532 99 q 275 -14 406 -14 q 122 46 182 -14 q 63 199 63 106 q 147 361 63 303 q 400 392 231 419 l 526 371 l 526 453 q 478 566 526 528 q 354 604 431 604 q 168 508 232 604 l 83 583 q 360 708 169 708 m 188 204 q 219 126 188 156 q 303 96 250 96 q 526 201 411 96 l 526 281 l 413 300 q 240 292 292 322 q 188 204 188 263 z "},"Ǐ":{"ha":335,"x_min":-40,"x_max":374,"o":"m 101 1151 l -40 1389 l 57 1389 l 167 1214 l 278 1389 l 374 1389 l 232 1151 l 101 1151 m 104 0 l 104 1042 l 231 1042 l 231 0 l 104 0 z "},"ǐ":{"ha":331,"x_min":-42,"x_max":372,"o":"m 100 804 l -42 1042 l 56 1042 l 165 867 l 276 1042 l 372 1042 l 231 804 l 100 804 m 104 0 l 104 694 l 226 694 l 226 0 l 104 0 z "},"Ǒ":{"ha":1158,"x_min":71,"x_max":1088,"o":"m 514 1151 l 372 1389 l 469 1389 l 579 1214 l 690 1389 l 786 1389 l 644 1151 l 514 1151 m 579 -14 q 215 141 360 -14 q 71 521 71 296 q 215 901 71 746 q 579 1056 360 1056 q 942 901 797 1056 q 1088 521 1088 746 q 942 141 1088 296 q 579 -14 797 -14 m 299 226 q 354 166 299 226 q 579 107 408 107 q 858 226 750 107 q 967 521 967 344 q 858 816 967 697 q 579 935 750 935 q 299 816 408 935 q 190 521 190 697 q 299 226 190 344 z "},"ǒ":{"ha":788,"x_min":56,"x_max":733,"o":"m 328 804 l 186 1042 l 283 1042 l 393 867 l 504 1042 l 600 1042 l 458 804 l 328 804 m 394 -14 q 150 90 244 -14 q 56 347 56 194 q 150 605 56 501 q 394 708 244 708 q 638 604 543 708 q 733 347 733 500 q 638 90 733 194 q 394 -14 543 -14 m 394 96 q 553 168 493 96 q 613 347 613 240 q 552 528 613 456 q 394 600 492 600 q 235 528 294 600 q 176 347 176 456 q 235 167 176 239 q 394 96 294 96 z "},"Ǔ":{"ha":1014,"x_min":111,"x_max":904,"o":"m 442 1151 l 300 1389 l 397 1389 l 507 1214 l 618 1389 l 714 1389 l 572 1151 l 442 1151 m 788 90 q 730 38 788 90 q 507 -14 672 -14 q 226 90 342 -14 q 111 342 111 193 l 111 1042 l 238 1042 l 238 363 q 316 176 238 253 q 507 99 394 99 q 698 176 619 99 q 776 363 776 253 l 776 1042 l 904 1042 l 904 342 q 788 90 904 193 z "},"ǔ":{"ha":825,"x_min":107,"x_max":721,"o":"m 478 804 l 347 804 l 206 1042 l 303 1042 l 413 867 l 524 1042 l 619 1042 l 478 804 m 597 694 l 721 694 l 721 0 l 608 0 l 601 93 q 381 -14 517 -14 q 186 67 265 -14 q 107 263 107 147 l 107 694 l 229 694 l 229 275 q 282 148 229 200 q 411 96 335 96 q 543 148 489 96 q 597 275 597 200 l 597 694 z "},"Ǧ":{"ha":1028,"x_min":99,"x_max":924,"o":"m 696 1151 l 565 1151 l 424 1389 l 521 1389 l 631 1214 l 742 1389 l 838 1389 l 696 1151 m 628 935 q 335 819 454 935 q 217 517 217 704 q 335 214 217 329 q 628 99 454 99 q 811 142 722 99 l 811 443 l 569 443 l 569 557 l 924 557 l 924 67 q 626 -22 782 -22 q 251 128 404 -22 q 99 517 99 279 q 251 905 99 754 q 624 1056 403 1056 q 924 967 782 1056 l 924 808 q 791 901 869 868 q 628 935 713 935 z "},"ǧ":{"ha":828,"x_min":56,"x_max":724,"o":"m 454 804 l 324 804 l 182 1042 l 279 1042 l 389 867 l 500 1042 l 596 1042 l 454 804 m 613 694 l 724 694 l 724 8 q 634 -247 724 -147 q 396 -347 544 -347 q 182 -282 276 -347 l 182 -149 q 404 -239 276 -239 q 548 -172 493 -239 q 603 8 603 -104 l 603 96 q 375 -14 514 -14 q 143 90 231 -14 q 56 347 56 193 q 143 606 56 503 q 375 708 231 708 q 607 593 517 708 l 613 694 m 394 96 q 524 146 467 96 q 603 274 582 196 l 603 421 q 524 550 582 500 q 394 600 467 600 q 235 528 294 600 q 176 347 176 456 q 235 168 176 240 q 394 96 294 96 z "},"Ǿ":{"ha":1158,"x_min":71,"x_max":1088,"o":"m 783 1389 l 632 1174 l 532 1174 l 657 1389 l 783 1389 m 904 938 q 1039 754 990 863 q 1088 521 1088 646 q 942 141 1088 296 q 579 -14 797 -14 q 315 60 432 -14 l 261 -21 l 172 -21 l 256 103 q 119 286 168 178 q 71 521 71 394 q 215 901 71 746 q 579 1056 360 1056 q 844 981 725 1056 l 899 1061 l 988 1061 l 904 938 m 190 521 q 322 203 190 322 l 778 882 q 579 935 690 935 q 299 816 408 935 q 190 521 190 697 m 579 107 q 858 226 750 107 q 967 521 967 344 q 838 838 967 719 l 382 158 q 579 107 468 107 z "},"ǿ":{"ha":788,"x_min":56,"x_max":733,"o":"m 597 1042 l 446 826 l 346 826 l 471 1042 l 597 1042 m 615 626 q 733 347 733 522 q 638 90 733 194 q 394 -14 543 -14 q 217 35 296 -14 l 165 -43 l 100 -43 l 174 67 q 56 347 56 169 q 150 605 56 501 q 394 708 244 708 q 572 658 494 708 l 625 738 l 689 738 l 615 626 m 176 347 q 239 164 176 235 l 510 565 q 394 600 460 600 q 235 528 294 600 q 176 347 176 456 m 394 96 q 553 168 493 96 q 613 347 613 240 q 550 531 613 457 l 279 128 q 394 96 328 96 z "},"Ș":{"ha":874,"x_min":58,"x_max":806,"o":"m 451 -14 q 219 42 325 -14 q 58 188 114 97 l 150 281 q 265 155 182 203 q 456 107 349 107 q 615 148 554 107 q 678 272 676 189 q 663 344 678 311 q 627 398 647 376 q 567 442 607 419 q 499 475 526 464 q 421 506 472 486 q 333 540 363 528 q 256 578 303 553 q 186 630 210 604 q 144 696 163 656 q 125 785 125 736 q 217 984 125 913 q 446 1056 308 1056 q 653 1016 563 1056 q 799 911 744 976 l 714 825 q 449 946 633 946 q 308 907 364 946 q 253 794 253 868 q 266 740 253 765 q 297 696 279 714 q 350 659 315 678 q 411 629 385 640 q 482 601 438 618 q 549 574 526 583 q 612 546 571 565 q 674 511 653 526 q 725 470 696 496 q 769 418 754 444 q 794 356 783 392 q 806 279 806 319 q 707 60 806 135 q 451 -14 608 -14 m 364 -379 l 364 -332 q 419 -301 397 -331 q 440 -247 440 -272 q 433 -218 439 -222 q 376 -195 399 -218 q 354 -137 354 -172 q 377 -78 354 -101 q 435 -56 400 -56 q 494 -81 471 -56 q 517 -144 517 -106 q 476 -312 517 -242 q 364 -379 435 -382 z "},"ș":{"ha":658,"x_min":51,"x_max":606,"o":"m 336 -14 q 171 17 251 -14 q 51 93 90 47 l 115 176 q 203 115 140 140 q 329 88 267 89 q 438 113 394 85 q 482 188 482 140 q 472 225 482 208 q 449 252 461 242 q 409 274 438 263 q 365 291 381 286 q 313 307 350 296 q 258 325 275 319 q 208 344 242 331 q 158 370 175 357 q 122 403 142 383 q 94 449 103 424 q 86 506 86 475 q 162 652 86 596 q 342 708 238 708 q 473 687 407 708 q 582 631 539 665 l 514 547 q 363 610 454 603 q 258 590 304 614 q 211 521 211 567 q 223 476 211 496 q 262 443 235 457 q 310 422 289 429 q 374 401 332 414 q 441 381 418 389 q 501 356 464 374 q 556 320 538 339 q 590 269 575 301 q 606 197 606 238 q 528 46 606 106 q 336 -14 451 -14 m 272 -379 l 272 -332 q 327 -301 306 -331 q 348 -247 349 -272 q 342 -218 347 -222 q 285 -195 307 -218 q 263 -137 263 -172 q 285 -78 263 -101 q 343 -56 308 -56 q 402 -81 379 -56 q 425 -144 425 -106 q 384 -312 425 -242 q 272 -379 343 -382 z "},"Ț":{"ha":764,"x_min":35,"x_max":731,"o":"m 35 1042 l 731 1042 l 731 931 l 446 931 l 446 0 l 319 0 l 319 931 l 35 931 l 35 1042 m 383 -56 q 442 -81 419 -56 q 465 -144 465 -106 q 424 -312 465 -242 q 313 -379 383 -382 l 313 -332 q 367 -301 346 -331 q 388 -247 389 -272 q 382 -218 388 -222 q 325 -195 347 -218 q 303 -137 303 -172 q 326 -78 303 -101 q 383 -56 349 -56 z "},"ț":{"ha":485,"x_min":32,"x_max":481,"o":"m 413 124 l 481 40 q 335 -14 429 -14 q 181 44 239 -14 q 122 194 122 101 l 122 599 l 32 599 l 32 694 l 122 694 l 122 931 l 244 931 l 244 694 l 433 694 l 433 599 l 246 599 l 246 194 q 338 92 246 92 q 413 124 382 92 m 317 -56 q 376 -81 353 -56 q 399 -144 399 -106 q 358 -312 399 -242 q 246 -379 317 -382 l 246 -332 q 301 -301 279 -331 q 322 -247 322 -272 q 315 -218 321 -222 q 258 -195 281 -218 q 236 -137 236 -172 q 259 -78 236 -101 q 317 -56 282 -56 z "},"Ȩ":{"ha":753,"x_min":104,"x_max":681,"o":"m 681 929 l 231 929 l 231 578 l 622 578 l 622 464 l 231 464 l 231 113 l 681 113 l 681 0 l 425 0 l 379 -93 q 502 -116 451 -79 q 553 -219 553 -153 q 512 -319 553 -278 q 411 -361 471 -361 q 317 -335 364 -361 q 250 -274 271 -310 l 308 -249 q 353 -284 324 -269 q 411 -299 383 -299 q 467 -276 444 -299 q 489 -219 489 -253 q 449 -152 489 -171 q 350 -156 408 -133 l 300 -122 l 361 0 l 104 0 l 104 1042 l 681 1042 l 681 929 z "},"ȩ":{"ha":757,"x_min":56,"x_max":701,"o":"m 701 347 q 700 307 701 321 l 175 307 q 240 151 185 208 q 390 93 296 93 q 497 119 454 93 q 582 208 540 144 l 668 149 q 414 -12 583 -3 l 375 -93 q 498 -116 447 -79 q 549 -219 549 -153 q 508 -319 549 -278 q 407 -361 467 -361 q 313 -335 360 -361 q 246 -274 267 -310 l 304 -249 q 349 -284 319 -269 q 407 -299 379 -299 q 463 -276 440 -299 q 485 -219 485 -253 q 444 -152 485 -171 q 346 -156 404 -133 l 296 -122 l 351 -12 q 135 99 215 0 q 56 346 56 197 q 146 606 56 504 q 386 708 236 708 q 617 608 532 708 q 701 347 701 508 m 389 603 q 246 549 300 603 q 178 403 192 494 l 590 403 q 528 549 581 496 q 389 603 476 603 z "},"ȷ":{"ha":404,"x_min":-29,"x_max":274,"o":"m 61 -361 q -29 -339 3 -361 l -29 -232 q 47 -258 4 -258 q 122 -227 92 -258 q 151 -149 151 -196 l 151 694 l 274 694 l 274 -156 q 212 -301 274 -242 q 61 -361 150 -361 z "},"ˆ":{"ha":69,"x_min":42,"x_max":456,"o":"m 42 804 l 183 1042 l 314 1042 l 456 804 l 356 804 l 249 982 l 142 804 l 42 804 z "},"ˇ":{"ha":69,"x_min":42,"x_max":456,"o":"m 183 804 l 42 1042 l 139 1042 l 249 867 l 360 1042 l 456 1042 l 314 804 l 183 804 z "},"˘":{"ha":69,"x_min":172,"x_max":636,"o":"m 404 785 q 238 844 303 785 q 172 1001 172 903 l 249 1001 q 293 902 249 943 q 404 861 338 861 q 517 902 472 861 q 561 1001 561 943 l 636 1001 q 572 843 636 901 q 404 785 507 785 z "},"˙":{"ha":69,"x_min":125,"x_max":288,"o":"m 264 847 q 252 835 264 847 q 207 824 240 824 q 149 847 174 824 q 125 903 125 869 q 149 961 125 938 q 207 985 174 985 q 264 961 240 985 q 288 903 288 938 q 264 847 288 869 z "},"˚":{"ha":69,"x_min":-17,"x_max":267,"o":"m 126 776 q 25 818 67 776 q -17 918 -17 860 q 25 1018 -17 976 q 126 1060 67 1060 q 226 1018 185 1060 q 267 918 267 976 q 226 818 267 860 q 126 776 185 776 m 66 856 q 78 844 66 856 q 126 832 90 832 q 186 856 163 832 q 210 918 210 881 q 185 979 210 954 q 126 1004 161 1004 q 67 979 92 1004 q 42 918 42 954 q 66 856 42 881 z "},"˛":{"ha":69,"x_min":25,"x_max":374,"o":"m 183 -360 q 68 -319 111 -357 q 25 -214 25 -281 q 81 -81 25 -142 q 231 21 136 -21 l 293 0 q 168 -74 225 -12 q 111 -204 111 -135 q 135 -269 111 -244 q 203 -294 160 -294 q 333 -229 283 -294 l 374 -289 q 183 -360 296 -367 z "},"˜":{"ha":71,"x_min":33,"x_max":511,"o":"m 369 856 q 240 931 290 856 q 178 971 214 971 q 130 942 146 971 q 122 868 114 914 l 44 868 q 72 997 33 946 q 175 1047 110 1047 q 304 971 254 1047 q 367 931 328 931 q 415 959 399 931 q 422 1035 431 988 l 500 1035 q 474 907 511 958 q 369 856 436 856 z "},"˝":{"ha":69,"x_min":42,"x_max":603,"o":"m 42 800 l 246 1042 l 365 1042 l 135 800 l 42 800 m 281 800 l 483 1042 l 603 1042 l 372 800 l 281 800 z "},"̀":{"ha":0,"x_min":-294,"x_max":-43,"o":"m -142 826 l -294 1042 l -168 1042 l -43 826 l -142 826 z "},"́":{"ha":0,"x_min":-294,"x_max":-43,"o":"m -294 826 l -169 1042 l -43 1042 l -194 826 l -294 826 z "},"̂":{"ha":0,"x_min":-456,"x_max":-42,"o":"m -456 804 l -314 1042 l -183 1042 l -42 804 l -142 804 l -249 982 l -356 804 l -456 804 z "},"̃":{"ha":0,"x_min":-512,"x_max":-35,"o":"m -176 856 q -306 931 -256 856 q -368 971 -332 971 q -416 942 -400 971 q -424 868 -432 914 l -501 868 q -474 997 -512 946 q -371 1047 -436 1047 q -242 971 -292 1047 q -179 931 -218 931 q -131 959 -147 931 q -124 1035 -115 988 l -46 1035 q -72 907 -35 958 q -176 856 -110 856 z "},"̄":{"ha":0,"x_min":-474,"x_max":-43,"o":"m -474 835 l -474 917 l -43 917 l -43 835 l -474 835 z "},"̆":{"ha":0,"x_min":-704,"x_max":-240,"o":"m -472 785 q -639 844 -574 785 q -704 1001 -704 903 l -628 1001 q -583 902 -628 943 q -472 861 -539 861 q -360 902 -404 861 q -315 1001 -315 943 l -240 1001 q -305 843 -240 901 q -472 785 -369 785 z "},"̇":{"ha":0,"x_min":-289,"x_max":-126,"o":"m -150 847 q -162 835 -150 847 q -207 824 -174 824 q -265 847 -240 824 q -289 903 -289 869 q -265 961 -289 938 q -207 985 -240 985 q -150 961 -174 985 q -126 903 -126 938 q -150 847 -126 869 z "},"̈":{"ha":0,"x_min":-508,"x_max":-86,"o":"m -369 847 q -381 835 -369 847 q -426 824 -393 824 q -484 847 -460 824 q -508 903 -508 869 q -484 961 -508 938 q -426 985 -460 985 q -369 961 -393 985 q -346 903 -346 938 q -369 847 -346 869 m -110 847 q -122 835 -110 847 q -167 824 -133 824 q -224 847 -200 824 q -247 903 -247 869 q -224 960 -247 936 q -167 985 -200 985 q -110 961 -133 985 q -86 903 -86 938 q -110 847 -86 869 z "},"̊":{"ha":0,"x_min":-267,"x_max":17,"o":"m -124 776 q -225 818 -183 776 q -267 918 -267 860 q -225 1018 -267 976 q -124 1060 -183 1060 q -24 1018 -65 1060 q 17 918 17 976 q -24 818 17 860 q -124 776 -65 776 m -184 856 q -172 844 -184 856 q -124 832 -160 832 q -64 856 -87 832 q -40 918 -40 881 q -65 979 -40 954 q -124 1004 -89 1004 q -183 979 -158 1004 q -208 918 -208 954 q -184 856 -208 881 z "},"̋":{"ha":0,"x_min":-603,"x_max":-42,"o":"m -603 800 l -399 1042 l -279 1042 l -510 800 l -603 800 m -364 800 l -161 1042 l -42 1042 l -272 800 l -364 800 z "},"̌":{"ha":0,"x_min":-456,"x_max":-42,"o":"m -314 804 l -456 1042 l -358 1042 l -249 867 l -137 1042 l -42 1042 l -183 804 l -314 804 z "},"̒":{"ha":0,"x_min":-208,"x_max":-44,"o":"m -67 755 q -79 743 -67 755 q -125 731 -90 731 q -183 756 -160 731 q -207 819 -207 782 q -156 978 -208 906 q -54 1054 -104 1051 l -54 1008 q -103 968 -82 997 q -128 918 -125 939 q -125 893 -131 897 q -67 870 -90 893 q -44 814 -44 847 q -67 755 -44 779 z "},"̣":{"ha":0,"x_min":-206,"x_max":-43,"o":"m -67 -324 q -78 -335 -67 -324 q -124 -347 -90 -347 q -181 -324 -157 -347 q -206 -267 -206 -300 q -181 -209 -206 -233 q -124 -185 -157 -185 q -67 -209 -90 -185 q -43 -267 -43 -233 q -67 -324 -43 -300 z "},"̦":{"ha":0,"x_min":-204,"x_max":-42,"o":"m -194 -175 l -194 -128 q -140 -97 -161 -126 q -119 -43 -118 -68 q -125 -14 -119 -18 q -182 9 -160 -14 q -204 68 -204 32 q -181 126 -204 103 q -124 149 -158 149 q -65 124 -87 149 q -42 60 -42 99 q -83 -108 -42 -37 q -194 -175 -124 -178 z "},"̧":{"ha":0,"x_min":-344,"x_max":-42,"o":"m -183 -361 q -277 -335 -231 -361 q -344 -274 -324 -310 l -286 -249 q -241 -284 -271 -269 q -183 -299 -211 -299 q -128 -276 -150 -299 q -106 -219 -106 -253 q -146 -152 -106 -171 q -244 -156 -186 -133 l -294 -122 l -233 0 l -169 0 l -215 -93 q -92 -116 -143 -79 q -42 -219 -42 -153 q -83 -319 -42 -278 q -183 -361 -124 -361 z "},"̨":{"ha":0,"x_min":-392,"x_max":-43,"o":"m -233 -360 q -349 -319 -306 -357 q -392 -214 -392 -281 q -336 -81 -392 -142 q -186 21 -281 -21 l -124 0 q -249 -74 -192 -12 q -306 -204 -306 -135 q -281 -269 -306 -244 q -214 -294 -257 -294 q -83 -229 -133 -294 l -43 -289 q -233 -360 -121 -367 z "},"̵":{"ha":0,"x_min":-651,"x_max":-236,"o":"m -651 318 l -651 406 l -236 406 l -236 318 l -651 318 z "},"̶":{"ha":0,"x_min":-1040,"x_max":-43,"o":"m -1040 333 l -1040 389 l -43 389 l -43 333 l -1040 333 z "},"̷":{"ha":0,"x_min":-601,"x_max":-151,"o":"m -601 165 l -249 540 l -151 540 l -510 165 l -601 165 z "},"̸":{"ha":0,"x_min":-844,"x_max":-29,"o":"m -844 -19 l -118 1063 l -29 1063 l -756 -19 l -844 -19 z "},"Δ":{"ha":1096,"x_min":51,"x_max":1043,"o":"m 51 0 l 51 76 l 479 1053 l 621 1053 l 1043 76 l 1043 0 l 51 0 m 174 100 l 913 100 l 667 661 q 613 790 661 674 q 551 944 564 907 l 538 944 q 514 880 532 925 q 471 776 496 835 q 435 689 446 718 l 174 100 z "},"Λ":{"ha":1032,"x_min":26,"x_max":1004,"o":"m 1004 0 l 867 0 l 515 899 l 164 0 l 26 0 l 444 1042 l 586 1042 l 1004 0 z "},"Ξ":{"ha":826,"x_min":101,"x_max":699,"o":"m 101 929 l 101 1042 l 699 1042 l 699 929 l 101 929 m 172 464 l 172 578 l 628 578 l 628 464 l 172 464 m 101 0 l 101 113 l 699 113 l 699 0 l 101 0 z "},"Ω":{"ha":1233,"x_min":83,"x_max":1149,"o":"m 83 0 l 83 90 l 315 90 l 315 100 q 167 287 226 169 q 107 546 107 404 q 252 901 107 758 q 621 1043 397 1043 q 985 897 844 1043 q 1125 549 1125 750 q 1063 288 1125 408 q 914 100 1001 167 l 914 90 l 1149 90 l 1149 0 l 742 0 l 742 67 q 929 245 853 124 q 1006 529 1006 367 q 901 824 1006 696 q 622 951 797 951 q 336 829 446 951 q 226 528 226 707 q 304 245 226 369 q 490 67 382 121 l 490 0 l 83 0 z "},"μ":{"ha":861,"x_min":111,"x_max":725,"o":"m 603 694 l 725 694 l 725 0 l 603 0 l 603 100 q 383 -14 518 -14 q 206 53 281 -14 l 206 -347 l 111 -347 l 111 694 l 235 694 l 235 275 q 288 148 235 200 q 415 96 340 96 q 548 148 493 96 q 603 275 603 200 l 603 694 z "},"π":{"ha":961,"x_min":17,"x_max":928,"o":"m 106 0 q 185 309 150 114 q 226 664 219 504 q 31 644 83 664 l 17 717 q 251 757 85 757 l 928 757 l 918 664 l 779 664 l 779 225 q 801 0 779 68 l 688 0 q 663 211 663 42 l 663 664 l 342 665 q 299 304 335 513 q 219 0 263 96 l 106 0 z "},"Ḅ":{"ha":896,"x_min":104,"x_max":829,"o":"m 617 536 q 771 444 713 513 q 829 276 829 376 q 747 77 829 154 q 542 0 664 0 l 104 0 l 104 1042 l 460 1042 q 666 964 582 1042 q 750 764 750 886 q 617 536 750 607 m 572 626 q 598 653 572 626 q 624 753 624 679 q 572 878 624 826 q 446 929 519 929 l 231 929 l 231 574 l 446 574 q 572 626 519 574 m 525 113 q 651 165 599 113 q 703 292 703 218 q 651 416 703 364 q 525 468 599 468 l 231 468 l 231 113 l 525 113 m 376 -117 q 388 -105 376 -117 q 433 -93 400 -93 q 490 -117 467 -93 q 514 -175 514 -142 q 490 -232 514 -208 q 433 -256 467 -256 q 376 -232 400 -256 q 351 -175 351 -208 q 376 -117 351 -142 z "},"ḅ":{"ha":826,"x_min":104,"x_max":771,"o":"m 451 708 q 683 605 596 708 q 771 347 771 501 q 683 90 771 193 q 451 -14 596 -14 q 219 100 307 -14 l 214 0 l 104 0 l 104 1042 l 225 1042 l 225 601 q 451 708 314 708 m 432 96 q 592 167 532 96 q 651 347 651 239 q 592 528 651 456 q 432 600 532 600 q 301 550 358 600 q 225 422 244 500 l 225 272 q 301 145 244 194 q 432 96 358 96 m 403 -117 q 416 -105 403 -117 q 461 -93 428 -93 q 518 -117 494 -93 q 542 -175 542 -142 q 518 -232 542 -208 q 461 -256 494 -256 q 403 -232 428 -256 q 379 -175 379 -208 q 403 -117 379 -142 z "},"Ḥ":{"ha":1015,"x_min":104,"x_max":911,"o":"m 785 1042 l 911 1042 l 911 0 l 785 0 l 785 464 l 231 464 l 231 0 l 104 0 l 104 1042 l 231 1042 l 231 578 l 785 578 l 785 1042 m 455 -117 q 467 -105 455 -117 q 513 -93 479 -93 q 569 -117 546 -93 q 593 -175 593 -142 q 569 -232 593 -208 q 513 -256 546 -256 q 455 -232 479 -256 q 431 -175 431 -208 q 455 -117 431 -142 z "},"ḥ":{"ha":817,"x_min":104,"x_max":718,"o":"m 447 708 q 641 632 564 708 q 718 439 718 556 l 718 0 l 594 0 l 594 425 q 543 550 594 500 q 414 600 492 600 q 281 547 336 600 q 226 419 226 494 l 226 0 l 104 0 l 104 1042 l 226 1042 l 226 607 q 447 708 313 708 m 345 -117 q 357 -105 345 -117 q 403 -93 369 -93 q 460 -117 436 -93 q 483 -175 483 -142 q 460 -232 483 -208 q 403 -256 436 -256 q 345 -232 369 -256 q 321 -175 321 -208 q 345 -117 321 -142 z "},"Ḷ":{"ha":660,"x_min":104,"x_max":613,"o":"m 104 0 l 104 1042 l 231 1042 l 231 113 l 613 113 l 613 0 l 104 0 m 417 -232 q 405 -244 417 -232 q 360 -256 393 -256 q 302 -232 326 -256 q 278 -175 278 -208 q 302 -117 278 -142 q 360 -93 326 -93 q 417 -117 393 -93 q 440 -175 440 -142 q 417 -232 440 -208 z "},"ḷ":{"ha":454,"x_min":110,"x_max":468,"o":"m 322 -14 q 167 44 225 -14 q 110 194 110 101 l 110 1042 l 232 1042 l 233 194 q 325 92 233 92 q 400 124 369 92 l 468 40 q 322 -14 417 -14 m 353 -232 q 341 -244 353 -232 q 296 -256 329 -256 q 238 -232 263 -256 q 214 -175 214 -208 q 238 -117 214 -142 q 296 -93 263 -93 q 353 -117 329 -93 q 376 -175 376 -142 q 353 -232 376 -208 z "},"Ṅ":{"ha":1081,"x_min":104,"x_max":976,"o":"m 596 1194 q 584 1182 596 1194 q 539 1171 572 1171 q 481 1194 506 1171 q 457 1250 457 1217 q 481 1308 457 1285 q 539 1332 506 1332 q 596 1308 572 1332 q 619 1250 619 1285 q 596 1194 619 1217 m 851 1042 l 976 1042 l 976 0 l 856 0 l 231 838 l 231 0 l 104 0 l 104 1042 l 225 1042 l 851 203 l 851 1042 z "},"ṅ":{"ha":817,"x_min":104,"x_max":718,"o":"m 468 847 q 456 835 468 847 q 411 824 444 824 q 353 847 378 824 q 329 903 329 869 q 353 961 329 938 q 411 985 378 985 q 468 961 444 985 q 492 903 492 938 q 468 847 492 869 m 447 708 q 641 632 564 708 q 718 439 718 556 l 718 0 l 594 0 l 594 425 q 543 550 594 500 q 414 600 492 600 q 281 547 336 600 q 226 419 226 494 l 226 0 l 104 0 l 104 694 l 217 694 l 222 603 q 447 708 310 708 z "},"Ṇ":{"ha":1081,"x_min":104,"x_max":976,"o":"m 851 1042 l 976 1042 l 976 0 l 856 0 l 231 838 l 231 0 l 104 0 l 104 1042 l 225 1042 l 851 203 l 851 1042 m 487 -117 q 499 -105 487 -117 q 544 -93 511 -93 q 601 -117 578 -93 q 625 -175 625 -142 q 601 -232 625 -208 q 544 -256 578 -256 q 487 -232 511 -256 q 463 -175 463 -208 q 487 -117 463 -142 z "},"ṇ":{"ha":817,"x_min":104,"x_max":718,"o":"m 447 708 q 641 632 564 708 q 718 439 718 556 l 718 0 l 594 0 l 594 425 q 543 550 594 500 q 414 600 492 600 q 281 547 336 600 q 226 419 226 494 l 226 0 l 104 0 l 104 694 l 217 694 l 222 603 q 447 708 310 708 m 353 -117 q 366 -105 353 -117 q 411 -93 378 -93 q 468 -117 444 -93 q 492 -175 492 -142 q 468 -232 492 -208 q 411 -256 444 -256 q 353 -232 378 -256 q 329 -175 329 -208 q 353 -117 329 -142 z "},"Ṣ":{"ha":874,"x_min":58,"x_max":806,"o":"m 451 -14 q 219 42 325 -14 q 58 188 114 97 l 150 281 q 265 155 182 203 q 456 107 349 107 q 615 148 554 107 q 678 272 676 189 q 663 344 678 311 q 627 398 647 376 q 567 442 607 419 q 499 475 526 464 q 421 506 472 486 q 333 540 363 528 q 256 578 303 553 q 186 630 210 604 q 144 696 163 656 q 125 785 125 736 q 217 984 125 913 q 446 1056 308 1056 q 653 1016 563 1056 q 799 911 744 976 l 714 825 q 449 946 633 946 q 308 907 364 946 q 253 794 253 868 q 266 740 253 765 q 297 696 279 714 q 350 659 315 678 q 411 629 385 640 q 482 601 438 618 q 549 574 526 583 q 612 546 571 565 q 674 511 653 526 q 725 470 696 496 q 769 418 754 444 q 794 356 783 392 q 806 279 806 319 q 707 60 806 135 q 451 -14 608 -14 m 490 -232 q 478 -244 490 -232 q 433 -256 467 -256 q 376 -232 400 -256 q 351 -175 351 -208 q 376 -117 351 -142 q 433 -93 400 -93 q 490 -117 467 -93 q 514 -175 514 -142 q 490 -232 514 -208 z "},"ṣ":{"ha":658,"x_min":51,"x_max":606,"o":"m 336 -14 q 171 17 251 -14 q 51 93 90 47 l 115 176 q 203 115 140 140 q 329 88 267 89 q 438 113 394 85 q 482 188 482 140 q 472 225 482 208 q 449 252 461 242 q 409 274 438 263 q 365 291 381 286 q 313 307 350 296 q 258 325 275 319 q 208 344 242 331 q 158 370 175 357 q 122 403 142 383 q 94 449 103 424 q 86 506 86 475 q 162 652 86 596 q 342 708 238 708 q 473 687 407 708 q 582 631 539 665 l 514 547 q 363 610 454 603 q 258 590 304 614 q 211 521 211 567 q 223 476 211 496 q 262 443 235 457 q 310 422 289 429 q 374 401 332 414 q 441 381 418 389 q 501 356 464 374 q 556 320 538 339 q 590 269 575 301 q 606 197 606 238 q 528 46 606 106 q 336 -14 451 -14 m 400 -232 q 388 -244 400 -232 q 343 -256 376 -256 q 285 -232 310 -256 q 261 -175 261 -208 q 285 -117 261 -142 q 343 -93 310 -93 q 400 -117 376 -93 q 424 -175 424 -142 q 400 -232 424 -208 z "},"Ṭ":{"ha":764,"x_min":35,"x_max":731,"o":"m 35 1042 l 731 1042 l 731 931 l 446 931 l 446 0 l 319 0 l 319 931 l 35 931 l 35 1042 m 324 -117 q 336 -105 324 -117 q 382 -93 349 -93 q 439 -117 415 -93 q 463 -175 463 -142 q 439 -232 463 -208 q 382 -256 415 -256 q 324 -232 349 -256 q 300 -175 300 -208 q 324 -117 300 -142 z "},"ṭ":{"ha":485,"x_min":32,"x_max":481,"o":"m 413 124 l 481 40 q 335 -14 429 -14 q 181 44 239 -14 q 122 194 122 101 l 122 599 l 32 599 l 32 694 l 122 694 l 122 931 l 244 931 l 244 694 l 433 694 l 433 599 l 246 599 l 246 194 q 338 92 246 92 q 413 124 382 92 m 258 -117 q 270 -105 258 -117 q 315 -93 282 -93 q 372 -117 349 -93 q 396 -175 396 -142 q 372 -232 396 -208 q 315 -256 349 -256 q 258 -232 282 -256 q 233 -175 233 -208 q 258 -117 233 -142 z "},"Ẁ":{"ha":1504,"x_min":-14,"x_max":1518,"o":"m 797 1174 l 699 1174 l 546 1389 l 672 1389 l 797 1174 m 1382 1042 l 1518 1042 l 1079 0 l 942 0 l 753 447 l 564 0 l 428 0 l -14 1042 l 124 1042 l 500 150 l 689 597 l 501 1042 l 632 1042 l 1006 150 l 1382 1042 z "},"ẁ":{"ha":996,"x_min":13,"x_max":983,"o":"m 478 826 l 379 826 l 226 1042 l 353 1042 l 478 826 m 847 694 l 983 694 l 746 0 l 611 0 l 496 331 l 385 0 l 251 0 l 13 694 l 151 694 l 325 147 l 439 490 l 368 694 l 489 694 l 671 144 l 847 694 z "},"Ẃ":{"ha":1504,"x_min":-14,"x_max":1518,"o":"m 957 1389 l 806 1174 l 706 1174 l 831 1389 l 957 1389 m 1382 1042 l 1518 1042 l 1079 0 l 942 0 l 753 447 l 564 0 l 428 0 l -14 1042 l 124 1042 l 500 150 l 689 597 l 501 1042 l 632 1042 l 1006 150 l 1382 1042 z "},"ẃ":{"ha":996,"x_min":13,"x_max":983,"o":"m 639 1042 l 488 826 l 388 826 l 513 1042 l 639 1042 m 847 694 l 983 694 l 746 0 l 611 0 l 496 331 l 385 0 l 251 0 l 13 694 l 151 694 l 325 147 l 439 490 l 368 694 l 489 694 l 671 144 l 847 694 z "},"Ẅ":{"ha":1504,"x_min":-14,"x_max":1518,"o":"m 681 1194 q 669 1182 681 1194 q 624 1171 657 1171 q 566 1194 590 1171 q 542 1250 542 1217 q 566 1308 542 1285 q 624 1332 590 1332 q 681 1308 657 1332 q 704 1250 704 1285 q 681 1194 704 1217 m 940 1194 q 928 1182 940 1194 q 883 1171 917 1171 q 826 1194 850 1171 q 803 1250 803 1217 q 826 1308 803 1283 q 883 1332 850 1332 q 940 1308 917 1332 q 964 1250 964 1285 q 940 1194 964 1217 m 1382 1042 l 1518 1042 l 1079 0 l 942 0 l 753 447 l 564 0 l 428 0 l -14 1042 l 124 1042 l 500 150 l 689 597 l 501 1042 l 632 1042 l 1006 150 l 1382 1042 z "},"ẅ":{"ha":996,"x_min":13,"x_max":983,"o":"m 361 847 q 349 835 361 847 q 304 824 338 824 q 247 847 271 824 q 222 903 222 869 q 247 961 222 938 q 304 985 271 985 q 361 961 338 985 q 385 903 385 938 q 361 847 385 869 m 621 847 q 609 835 621 847 q 564 824 597 824 q 507 847 531 824 q 483 903 483 869 q 507 960 483 936 q 564 985 531 985 q 621 961 597 985 q 644 903 644 938 q 621 847 644 869 m 847 694 l 983 694 l 746 0 l 611 0 l 496 331 l 385 0 l 251 0 l 13 694 l 151 694 l 325 147 l 439 490 l 368 694 l 489 694 l 671 144 l 847 694 z "},"Ẓ":{"ha":915,"x_min":63,"x_max":851,"o":"m 236 113 l 851 113 l 851 0 l 63 0 l 63 67 l 661 929 l 78 929 l 78 1042 l 835 1042 l 835 975 l 236 113 m 395 -117 q 407 -105 395 -117 q 453 -93 419 -93 q 510 -117 486 -93 q 533 -175 533 -142 q 510 -232 533 -208 q 453 -256 486 -256 q 395 -232 419 -256 q 371 -175 371 -208 q 395 -117 371 -142 z "},"ẓ":{"ha":733,"x_min":67,"x_max":667,"o":"m 67 0 l 67 86 l 494 592 l 75 592 l 75 694 l 657 694 l 657 611 l 229 103 l 667 103 l 667 0 l 67 0 m 425 -232 q 413 -244 425 -232 q 368 -256 401 -256 q 310 -232 335 -256 q 286 -175 286 -208 q 310 -117 286 -142 q 368 -93 335 -93 q 425 -117 401 -93 q 449 -175 449 -142 q 425 -232 449 -208 z "},"Ạ":{"ha":1032,"x_min":26,"x_max":1004,"o":"m 1004 0 l 867 0 l 782 218 l 249 218 l 164 0 l 26 0 l 444 1042 l 586 1042 l 1004 0 m 289 325 l 742 325 l 515 911 l 289 325 m 459 -117 q 471 -105 459 -117 q 517 -93 483 -93 q 574 -117 550 -93 q 597 -175 597 -142 q 574 -232 597 -208 q 517 -256 550 -256 q 459 -232 483 -256 q 435 -175 435 -208 q 459 -117 435 -142 z "},"ạ":{"ha":746,"x_min":63,"x_max":647,"o":"m 360 708 q 567 641 486 708 q 647 444 647 574 l 647 0 l 539 0 l 532 99 q 275 -14 406 -14 q 122 46 182 -14 q 63 199 63 106 q 147 361 63 303 q 400 392 231 419 l 526 371 l 526 453 q 478 566 526 528 q 354 604 431 604 q 168 508 232 604 l 83 583 q 360 708 169 708 m 188 204 q 219 126 188 156 q 303 96 250 96 q 526 201 411 96 l 526 281 l 413 300 q 240 292 292 322 q 188 204 188 263 m 298 -119 q 310 -107 298 -119 q 356 -94 322 -94 q 413 -119 389 -94 q 436 -176 436 -143 q 413 -233 436 -210 q 356 -257 389 -257 q 298 -233 322 -257 q 274 -176 274 -210 q 298 -119 274 -143 z "},"Ẹ":{"ha":753,"x_min":104,"x_max":681,"o":"m 681 929 l 231 929 l 231 578 l 622 578 l 622 464 l 231 464 l 231 113 l 681 113 l 681 0 l 104 0 l 104 1042 l 681 1042 l 681 929 m 335 -117 q 348 -105 335 -117 q 393 -93 360 -93 q 450 -117 426 -93 q 474 -175 474 -142 q 450 -232 474 -208 q 393 -256 426 -256 q 335 -232 360 -256 q 311 -175 311 -208 q 335 -117 311 -142 z "},"ẹ":{"ha":757,"x_min":56,"x_max":701,"o":"m 701 347 q 700 307 701 321 l 175 307 q 240 151 185 208 q 390 93 296 93 q 497 119 454 93 q 582 208 540 144 l 668 149 q 386 -14 578 -14 q 145 87 235 -14 q 56 346 56 188 q 146 606 56 504 q 386 708 236 708 q 617 608 532 708 q 701 347 701 508 m 389 603 q 246 549 300 603 q 178 403 192 494 l 590 403 q 528 549 581 496 q 389 603 476 603 m 331 -117 q 343 -105 331 -117 q 389 -93 356 -93 q 446 -117 422 -93 q 469 -175 469 -142 q 446 -232 469 -208 q 389 -256 422 -256 q 331 -232 356 -256 q 307 -175 307 -208 q 331 -117 307 -142 z "},"Ẽ":{"ha":753,"x_min":104,"x_max":681,"o":"m 242 1174 l 164 1174 q 191 1302 153 1251 q 294 1353 229 1353 q 424 1276 374 1353 q 486 1236 447 1236 q 534 1265 518 1236 q 542 1340 550 1293 l 619 1340 q 593 1213 631 1264 q 489 1161 556 1161 q 360 1236 410 1161 q 297 1276 333 1276 q 249 1248 265 1276 q 242 1174 233 1219 m 681 929 l 231 929 l 231 578 l 622 578 l 622 464 l 231 464 l 231 113 l 681 113 l 681 0 l 104 0 l 104 1042 l 681 1042 l 681 929 z "},"ẽ":{"ha":757,"x_min":56,"x_max":701,"o":"m 238 831 l 160 831 q 187 959 149 908 q 290 1010 225 1010 q 419 933 369 1010 q 482 893 443 893 q 530 922 514 893 q 538 997 546 950 l 615 997 q 589 869 626 921 q 485 818 551 818 q 356 893 406 818 q 293 933 329 933 q 245 905 261 933 q 238 831 229 876 m 701 347 q 700 307 701 321 l 175 307 q 240 151 185 208 q 390 93 296 93 q 497 119 454 93 q 582 208 540 144 l 668 149 q 386 -14 578 -14 q 145 87 235 -14 q 56 346 56 188 q 146 606 56 504 q 386 708 236 708 q 617 608 532 708 q 701 347 701 508 m 389 603 q 246 549 300 603 q 178 403 192 494 l 590 403 q 528 549 581 496 q 389 603 476 603 z "},"Ị":{"ha":335,"x_min":86,"x_max":249,"o":"m 104 0 l 104 1042 l 231 1042 l 231 0 l 104 0 m 225 -232 q 213 -244 225 -232 q 168 -256 201 -256 q 110 -232 135 -256 q 86 -175 86 -208 q 110 -117 86 -142 q 168 -93 135 -93 q 225 -117 201 -93 q 249 -175 249 -142 q 225 -232 249 -208 z "},"ị":{"ha":379,"x_min":108,"x_max":278,"o":"m 247 847 q 235 835 247 847 q 190 824 224 824 q 133 847 157 824 q 108 903 108 869 q 133 961 108 938 q 190 985 157 985 q 247 960 222 985 q 271 903 271 936 q 247 847 271 869 m 128 0 l 128 694 l 250 694 l 250 0 l 128 0 m 254 -251 q 242 -263 254 -251 q 197 -275 231 -275 q 140 -251 164 -275 q 115 -194 115 -228 q 140 -137 115 -161 q 197 -112 164 -112 q 254 -137 231 -112 q 278 -194 278 -161 q 254 -251 278 -228 z "},"Ọ":{"ha":1158,"x_min":71,"x_max":1088,"o":"m 579 -14 q 215 141 360 -14 q 71 521 71 296 q 215 901 71 746 q 579 1056 360 1056 q 942 901 797 1056 q 1088 521 1088 746 q 942 141 1088 296 q 579 -14 797 -14 m 299 226 q 354 166 299 226 q 579 107 408 107 q 858 226 750 107 q 967 521 967 344 q 858 816 967 697 q 579 935 750 935 q 299 816 408 935 q 190 521 190 697 q 299 226 190 344 m 636 -232 q 624 -244 636 -232 q 579 -256 613 -256 q 522 -232 546 -256 q 497 -175 497 -208 q 522 -117 497 -142 q 579 -93 546 -93 q 636 -117 613 -93 q 660 -175 660 -142 q 636 -232 660 -208 z "},"ọ":{"ha":788,"x_min":56,"x_max":733,"o":"m 394 -14 q 150 90 244 -14 q 56 347 56 194 q 150 605 56 501 q 394 708 244 708 q 638 604 543 708 q 733 347 733 500 q 638 90 733 194 q 394 -14 543 -14 m 394 96 q 553 168 493 96 q 613 347 613 240 q 552 528 613 456 q 394 600 492 600 q 235 528 294 600 q 176 347 176 456 q 235 167 176 239 q 394 96 294 96 m 451 -232 q 440 -244 451 -232 q 394 -256 428 -256 q 337 -232 361 -256 q 313 -175 313 -208 q 337 -117 313 -142 q 394 -93 361 -93 q 451 -117 428 -93 q 475 -175 475 -142 q 451 -232 475 -208 z "},"Ụ":{"ha":1014,"x_min":111,"x_max":904,"o":"m 788 90 q 730 38 788 90 q 507 -14 672 -14 q 226 90 342 -14 q 111 342 111 193 l 111 1042 l 238 1042 l 238 363 q 316 176 238 253 q 507 99 394 99 q 698 176 619 99 q 776 363 776 253 l 776 1042 l 904 1042 l 904 342 q 788 90 904 193 m 564 -232 q 552 -244 564 -232 q 507 -256 540 -256 q 449 -232 474 -256 q 425 -175 425 -208 q 449 -117 425 -142 q 507 -93 474 -93 q 564 -117 540 -93 q 588 -175 588 -142 q 564 -232 588 -208 z "},"Ỳ":{"ha":907,"x_min":26,"x_max":881,"o":"m 499 1174 l 400 1174 l 247 1389 l 374 1389 l 499 1174 m 881 1042 l 518 494 l 518 0 l 390 0 l 390 492 l 26 1042 l 169 1042 l 454 601 l 739 1042 l 881 1042 z "},"ỳ":{"ha":825,"x_min":107,"x_max":721,"o":"m 457 826 l 358 826 l 206 1042 l 332 1042 l 457 826 m 721 694 l 721 -18 q 634 -262 721 -168 q 386 -356 547 -356 q 144 -289 247 -356 l 144 -156 q 396 -246 249 -246 q 547 -186 496 -246 q 597 -18 597 -126 l 597 89 q 381 -14 514 -14 q 186 67 265 -14 q 107 263 107 147 l 107 694 l 229 694 l 229 275 q 282 148 229 200 q 411 96 335 96 q 543 148 489 96 q 597 275 597 200 l 597 694 l 721 694 z "},"Ỵ":{"ha":907,"x_min":26,"x_max":881,"o":"m 390 0 l 390 492 l 26 1042 l 169 1042 l 454 601 l 739 1042 l 881 1042 l 518 494 l 518 0 l 390 0 m 398 -117 q 410 -105 398 -117 q 456 -93 422 -93 q 513 -117 489 -93 q 536 -175 536 -142 q 513 -232 536 -208 q 456 -256 489 -256 q 398 -232 422 -256 q 374 -175 374 -208 q 398 -117 374 -142 z "},"Ỹ":{"ha":907,"x_min":26,"x_max":881,"o":"m 304 1174 l 226 1174 q 253 1302 215 1251 q 357 1353 292 1353 q 486 1276 436 1353 q 549 1236 510 1236 q 597 1265 581 1236 q 604 1340 613 1293 l 682 1340 q 656 1213 693 1264 q 551 1161 618 1161 q 422 1236 472 1161 q 360 1276 396 1276 q 312 1248 328 1276 q 304 1174 296 1219 m 881 1042 l 518 494 l 518 0 l 390 0 l 390 492 l 26 1042 l 169 1042 l 454 601 l 739 1042 l 881 1042 z "},"–":{"ha":946,"x_min":125,"x_max":819,"o":"m 125 318 l 125 404 l 819 404 l 819 318 l 125 318 z "},"—":{"ha":1414,"x_min":13,"x_max":1401,"o":"m 13 318 l 13 404 l 1401 404 l 1401 318 l 13 318 z "},"‘":{"ha":344,"x_min":26,"x_max":217,"o":"m 136 642 q 43 742 60 642 q 75 945 26 843 q 207 1049 124 1047 l 207 988 q 132 908 161 985 q 124 811 107 842 q 138 803 129 803 q 194 779 171 803 q 217 722 217 756 q 194 665 217 688 q 136 642 171 642 z "},"’":{"ha":269,"x_min":51,"x_max":226,"o":"m 61 642 l 61 701 q 124 753 99 703 q 150 850 150 804 q 132 886 150 886 q 75 910 99 886 q 51 968 51 933 q 75 1026 51 1003 q 133 1049 99 1049 q 203 1007 179 1049 q 226 903 226 965 q 181 725 226 807 q 61 642 135 643 z "},"‚":{"ha":342,"x_min":56,"x_max":239,"o":"m 65 -258 l 65 -197 q 135 -150 107 -197 q 163 -57 163 -103 q 136 -12 163 -12 q 79 11 103 -12 q 56 68 56 35 q 79 125 56 101 q 138 149 103 149 q 213 106 188 149 q 239 -3 239 63 q 191 -178 239 -97 q 65 -258 143 -258 z "},"“":{"ha":593,"x_min":176,"x_max":564,"o":"m 342 1060 l 342 999 q 279 947 306 997 q 253 851 253 897 q 271 814 253 814 q 328 791 304 814 q 351 733 351 768 q 328 676 351 699 q 271 653 304 653 q 200 694 224 653 q 176 799 176 735 q 222 976 176 894 q 342 1060 268 1058 m 554 1060 l 554 999 q 491 947 517 997 q 465 851 465 897 q 483 814 465 814 q 540 791 517 814 q 564 733 564 768 q 540 676 564 699 q 482 653 517 653 q 413 694 436 653 q 389 799 389 735 q 435 976 389 894 q 554 1060 481 1058 z "},"”":{"ha":561,"x_min":54,"x_max":442,"o":"m 64 642 l 64 701 q 127 753 101 703 q 153 850 153 804 q 135 886 153 886 q 78 910 101 886 q 54 968 54 933 q 78 1026 54 1003 q 136 1049 101 1049 q 206 1007 182 1049 q 229 903 229 965 q 183 725 229 807 q 64 642 138 643 m 276 642 l 276 701 q 339 753 313 703 q 365 850 365 804 q 347 886 365 886 q 290 910 314 886 q 267 968 267 933 q 290 1026 267 1003 q 347 1049 314 1049 q 417 1007 393 1049 q 442 903 442 965 q 396 725 442 807 q 276 642 350 643 z "},"„":{"ha":572,"x_min":56,"x_max":479,"o":"m 65 -258 l 65 -197 q 135 -150 107 -197 q 163 -57 163 -103 q 136 -12 163 -12 q 79 11 103 -12 q 56 68 56 35 q 79 125 56 101 q 138 149 103 149 q 213 106 188 149 q 239 -3 239 63 q 191 -178 239 -97 q 65 -258 143 -258 m 307 -258 l 307 -197 q 375 -150 347 -197 q 403 -57 403 -103 q 378 -12 403 -12 q 321 11 344 -12 q 297 68 297 35 q 321 125 297 101 q 378 149 344 149 q 453 106 428 149 q 479 -3 479 63 q 431 -178 479 -97 q 307 -258 383 -258 z "},"†":{"ha":924,"x_min":181,"x_max":742,"o":"m 742 660 l 742 578 l 500 578 l 500 -236 l 417 -236 l 417 578 l 181 578 l 181 660 l 417 660 l 417 931 l 500 931 l 500 660 l 742 660 z "},"‡":{"ha":924,"x_min":181,"x_max":742,"o":"m 742 578 l 500 578 l 500 124 l 742 124 l 742 42 l 500 42 l 500 -236 l 417 -236 l 417 42 l 181 42 l 181 124 l 417 124 l 417 578 l 181 578 l 181 660 l 417 660 l 417 931 l 500 931 l 500 660 l 742 660 l 742 578 z "},"•":{"ha":657,"x_min":153,"x_max":504,"o":"m 329 276 q 205 327 257 276 q 153 451 153 378 q 206 574 153 521 q 329 626 258 626 q 451 574 399 626 q 504 451 504 521 q 452 327 504 378 q 329 276 400 276 z "},"…":{"ha":982,"x_min":46,"x_max":776,"o":"m 184 10 q 172 -2 184 10 q 126 -14 160 -14 q 69 10 93 -14 q 46 68 46 35 q 69 124 46 100 q 126 149 93 149 q 184 124 160 149 q 208 68 208 100 q 184 10 208 35 m 475 10 q 463 -2 475 10 q 418 -14 451 -14 q 360 10 385 -14 q 336 68 336 35 q 360 124 336 100 q 418 149 385 149 q 475 124 451 149 q 499 68 499 100 q 475 10 499 35 m 694 -14 q 638 10 663 -14 q 614 68 614 35 q 638 124 614 100 q 694 149 663 149 q 752 124 728 149 q 776 68 776 100 q 752 10 776 35 q 694 -14 728 -14 z "},"‰":{"ha":1490,"x_min":78,"x_max":1419,"o":"m 271 613 q 134 677 190 613 q 78 833 78 742 q 134 991 78 926 q 271 1056 190 1056 q 406 991 350 1056 q 463 833 463 926 q 406 678 463 743 q 271 613 350 613 m 101 0 l 814 1042 l 942 1042 l 231 0 l 101 0 m 271 708 q 339 745 310 708 q 368 833 368 782 q 339 923 368 886 q 271 960 310 960 q 202 924 231 960 q 174 833 174 888 q 202 745 174 782 q 271 708 231 708 m 911 51 q 883 19 911 51 q 775 -14 856 -14 q 638 51 694 -14 q 582 208 582 117 q 638 364 582 299 q 775 429 694 429 q 910 365 854 429 q 967 208 967 300 q 911 51 967 117 m 1229 -14 q 1092 51 1149 -14 q 1036 208 1036 117 q 1092 365 1036 300 q 1229 429 1149 429 q 1364 364 1308 429 q 1419 208 1419 299 q 1364 51 1419 117 q 1229 -14 1308 -14 m 774 82 q 842 119 814 82 q 869 208 869 156 q 842 297 869 260 q 774 333 814 333 q 706 297 735 333 q 678 208 678 260 q 706 119 678 156 q 774 82 735 82 m 1228 82 q 1295 119 1267 82 q 1324 208 1324 156 q 1295 297 1324 260 q 1228 333 1267 333 q 1160 297 1188 333 q 1132 208 1132 260 q 1160 119 1132 156 q 1228 82 1188 82 z "},"‹":{"ha":483,"x_min":71,"x_max":386,"o":"m 282 132 l 71 388 l 282 643 l 386 643 l 175 388 l 386 132 l 282 132 z "},"›":{"ha":483,"x_min":97,"x_max":413,"o":"m 97 132 l 308 388 l 97 643 l 201 643 l 413 388 l 201 132 l 97 132 z "},"⁄":{"ha":824,"x_min":-25,"x_max":829,"o":"m -25 0 l 701 1042 l 829 1042 l 103 0 l -25 0 z "},"€":{"ha":914,"x_min":56,"x_max":789,"o":"m 496 82 q 625 128 567 82 q 696 244 683 175 l 789 204 q 678 48 761 110 q 496 -14 594 -14 q 272 76 358 -14 q 185 306 185 165 l 185 365 l 56 365 l 97 447 l 185 447 l 185 586 l 56 586 l 97 668 l 185 668 l 185 736 q 272 967 185 878 q 496 1056 358 1056 q 678 994 594 1056 q 789 838 761 932 l 696 799 q 625 914 683 868 q 496 960 567 960 q 339 899 397 960 q 281 736 281 838 l 281 668 l 569 668 l 529 586 l 281 586 l 281 447 l 569 447 l 529 365 l 281 365 l 281 306 q 340 143 281 204 q 496 82 399 82 z "},"ℓ":{"ha":843,"x_min":44,"x_max":776,"o":"m 457 -8 q 258 68 328 -8 q 179 257 189 144 l 179 274 q 127 235 161 261 q 83 201 93 208 l 44 272 q 106 320 60 285 q 176 375 153 356 l 176 776 q 252 1053 176 967 q 436 1140 328 1140 q 594 1069 540 1140 q 649 893 649 999 q 558 627 649 760 q 297 344 468 494 l 297 304 q 353 146 299 200 q 483 92 407 92 q 619 138 557 92 q 717 249 681 185 l 776 194 q 457 -8 661 -8 m 297 458 q 489 685 421 581 q 557 888 557 789 q 436 1051 557 1051 q 339 990 381 1051 q 297 793 297 928 l 297 458 z "},"™":{"ha":999,"x_min":21,"x_max":908,"o":"m 21 985 l 21 1042 l 353 1042 l 353 985 l 218 985 l 218 553 l 154 553 l 154 985 l 21 985 m 840 1042 l 908 1042 l 908 553 l 844 553 l 844 939 l 661 667 l 478 938 l 478 553 l 413 553 l 413 1042 l 482 1042 l 661 775 l 840 1042 z "},"℮":{"ha":1282,"x_min":47,"x_max":1235,"o":"m 640 -12 q 221 144 394 -12 q 47 519 47 300 q 221 899 47 742 q 640 1056 394 1056 q 1061 899 888 1056 q 1235 519 1235 742 l 1235 506 l 274 506 q 265 500 265 506 l 265 208 q 278 175 265 193 q 642 17 432 17 q 854 64 754 17 q 1025 194 954 111 l 1110 194 q 906 43 1029 99 q 640 -12 782 -12 m 274 535 l 1011 535 q 1017 544 1017 535 l 1017 836 q 1003 871 1017 858 q 642 1024 847 1024 q 279 867 436 1024 q 265 831 265 850 l 265 544 q 274 535 265 535 z "},"←":{"ha":1174,"x_min":11,"x_max":1053,"o":"m 1053 574 l 1053 406 l 307 406 l 349 229 l 11 490 l 349 751 l 307 574 l 1053 574 z "},"↑":{"ha":714,"x_min":81,"x_max":603,"o":"m 258 0 l 258 746 l 81 704 l 342 1042 l 603 704 l 426 746 l 426 0 l 258 0 z "},"→":{"ha":1174,"x_min":122,"x_max":1164,"o":"m 122 574 l 868 574 l 826 751 l 1164 490 l 826 229 l 868 406 l 122 406 l 122 574 z "},"↓":{"ha":682,"x_min":81,"x_max":603,"o":"m 258 1042 l 426 1042 l 426 296 l 603 338 l 342 0 l 81 338 l 258 296 l 258 1042 z "},"↔":{"ha":1196,"x_min":-87,"x_max":1283,"o":"m 249 200 l -87 463 l 251 724 l 208 547 l 988 546 l 946 722 l 1283 461 l 947 200 l 989 378 l 208 379 l 249 200 z "},"↕":{"ha":682,"x_min":81,"x_max":603,"o":"m 342 -99 l 81 238 l 258 196 l 258 738 l 81 696 l 342 1032 l 603 694 l 426 736 l 426 197 l 603 239 l 342 -99 z "},"↖":{"ha":750,"x_min":42,"x_max":838,"o":"m 838 211 l 718 93 l 190 619 l 96 465 l 42 889 l 465 835 l 310 739 l 838 211 z "},"↗":{"ha":750,"x_min":-87,"x_max":708,"o":"m -87 211 l 440 739 l 285 835 l 708 889 l 654 465 l 560 619 l 32 93 l -87 211 z "},"↘":{"ha":751,"x_min":-86,"x_max":710,"o":"m -86 831 l 33 949 l 561 422 l 656 576 l 710 153 l 286 207 l 442 303 l -86 831 z "},"↙":{"ha":751,"x_min":42,"x_max":838,"o":"m 838 831 l 310 303 l 465 207 l 42 153 l 96 576 l 190 422 l 718 949 l 838 831 z "},"∂":{"ha":744,"x_min":40,"x_max":678,"o":"m 238 981 q 549 855 421 1008 q 675 456 678 701 q 577 138 674 267 q 340 8 481 8 q 108 127 176 8 q 106 419 40 246 q 288 638 164 576 q 543 642 413 699 q 424 849 507 779 q 238 892 342 919 l 238 981 m 565 456 q 561 542 565 500 q 356 570 453 611 q 207 390 258 529 q 201 180 161 268 q 340 92 240 92 q 498 198 432 92 q 565 456 564 304 z "},"∅":{"ha":1138,"x_min":153,"x_max":983,"o":"m 881 678 q 983 404 983 561 q 862 110 983 232 q 568 -11 740 -11 q 294 92 413 -11 l 235 32 l 197 71 l 257 131 q 153 404 153 246 q 274 698 153 576 q 568 819 396 819 q 842 717 725 819 l 903 776 l 940 738 l 881 678 m 253 404 q 326 200 253 289 l 772 646 q 568 719 685 719 q 344 628 436 719 q 253 404 253 536 m 568 89 q 792 181 700 89 q 885 404 885 272 q 810 608 885 519 l 365 163 q 568 89 453 89 z "},"∏":{"ha":1033,"x_min":69,"x_max":963,"o":"m 963 976 l 963 888 l 718 888 l 718 -167 l 631 -167 l 631 888 l 404 888 l 404 -167 l 314 -167 l 314 888 l 69 888 l 69 976 l 963 976 z "},"∑":{"ha":1047,"x_min":125,"x_max":922,"o":"m 125 -164 l 125 -94 l 633 406 l 125 906 l 125 976 l 922 976 l 922 881 l 286 881 l 763 406 l 286 -69 l 922 -69 l 922 -165 l 125 -164 z "},"−":{"ha":1001,"x_min":83,"x_max":917,"o":"m 83 365 l 83 449 l 917 449 l 917 365 l 83 365 z "},"√":{"ha":1015,"x_min":97,"x_max":958,"o":"m 350 -108 l 190 382 l 97 382 l 97 464 l 249 464 l 392 32 l 883 1060 l 958 1028 l 415 -108 l 350 -108 z "},"∞":{"ha":1064,"x_min":83,"x_max":979,"o":"m 278 201 q 142 259 197 201 q 83 404 86 317 q 142 551 86 493 q 278 608 197 608 q 532 467 399 608 q 788 608 665 608 q 923 552 869 608 q 979 404 976 496 q 923 258 976 314 q 788 201 869 201 q 532 343 663 201 q 278 201 399 201 m 278 283 q 478 404 368 283 q 278 526 367 526 q 200 491 233 526 q 165 404 167 456 q 200 318 167 353 q 278 283 233 283 m 786 283 q 864 317 832 283 q 897 404 896 351 q 864 492 896 457 q 786 526 832 526 q 586 404 697 526 q 786 283 696 283 z "},"∫":{"ha":633,"x_min":119,"x_max":514,"o":"m 239 -262 q 153 -224 186 -262 q 129 -126 119 -186 l 194 -126 q 239 -194 194 -194 q 269 -181 257 -194 q 282 -147 282 -168 l 282 914 q 315 997 282 965 q 396 1029 349 1029 q 481 991 447 1029 q 506 893 514 953 l 439 893 q 394 961 439 961 q 364 948 376 961 q 351 914 351 935 l 351 -147 q 319 -231 351 -199 q 239 -262 286 -262 z "},"≈":{"ha":804,"x_min":64,"x_max":743,"o":"m 551 443 q 472 463 510 443 q 419 498 435 482 q 374 549 404 514 q 317 600 342 583 q 258 617 292 617 q 169 572 203 617 q 138 461 135 528 l 69 461 q 118 623 64 560 q 260 686 172 686 q 350 661 313 686 q 431 583 388 636 q 463 547 450 560 q 499 524 476 535 q 546 513 521 513 q 636 556 601 513 q 667 667 671 599 l 735 667 q 690 508 743 572 q 551 443 636 443 m 551 174 q 473 193 510 174 q 419 228 436 213 q 374 278 403 244 q 258 346 311 346 q 169 301 203 346 q 138 190 135 257 l 69 190 q 118 353 64 290 q 260 415 172 415 q 350 390 313 415 q 431 314 388 365 q 485 260 460 278 q 546 242 510 242 q 636 285 601 242 q 667 397 671 329 l 735 397 q 690 238 743 301 q 551 174 636 174 z "},"≠":{"ha":1001,"x_min":83,"x_max":917,"o":"m 917 460 l 631 460 l 474 276 l 917 276 l 917 194 l 403 194 l 242 7 l 164 7 l 325 194 l 83 194 l 83 276 l 396 276 l 551 460 l 83 460 l 83 542 l 622 542 l 758 701 l 836 701 l 700 542 l 917 542 l 917 460 z "},"≤":{"ha":1101,"x_min":167,"x_max":933,"o":"m 933 963 l 933 858 l 269 549 l 933 238 l 933 132 l 167 493 l 167 604 l 933 963 m 167 0 l 167 76 l 933 76 l 933 0 l 167 0 z "},"≥":{"ha":1101,"x_min":167,"x_max":933,"o":"m 167 963 l 933 604 l 933 493 l 167 132 l 167 238 l 832 549 l 167 858 l 167 963 m 167 0 l 167 76 l 933 76 l 933 0 l 167 0 z "},"◊":{"ha":1090,"x_min":125,"x_max":963,"o":"m 544 72 l 125 490 l 544 910 l 963 492 l 544 72 m 546 210 l 825 492 l 546 772 l 264 490 l 546 210 z "},"":{"ha":1354,"x_min":150,"x_max":1206,"o":"m 1051 155 q 973 77 1051 155 q 678 0 896 0 q 305 155 460 0 q 150 528 150 310 q 305 901 150 746 q 678 1056 460 1056 q 1051 901 897 1056 q 1206 528 1206 747 q 1051 155 1206 310 m 340 190 q 410 120 340 190 q 678 50 481 50 q 1015 190 875 50 q 1156 528 1156 331 q 1015 865 1156 725 q 678 1006 875 1006 q 340 865 481 1006 q 200 528 200 725 q 340 190 200 331 m 954 301 q 938 310 944 301 l 736 510 q 736 546 719 529 l 938 747 q 972 747 956 764 q 972 711 990 729 l 789 528 l 972 344 q 972 310 988 329 q 954 301 967 301 m 419 309 q 415 305 419 309 q 401 301 411 301 q 384 309 392 301 q 376 326 376 317 l 376 729 q 384 747 376 739 q 401 754 392 754 q 419 747 411 754 q 426 729 426 739 l 426 326 q 419 309 426 317 m 696 309 q 692 305 696 309 q 678 301 689 301 q 660 309 667 301 q 653 326 653 317 l 653 729 q 660 747 653 739 q 678 754 667 754 q 696 747 689 754 q 703 729 703 739 l 703 326 q 696 309 703 317 m 476 503 q 459 510 467 503 q 451 528 451 517 q 459 546 451 539 q 476 553 467 553 l 603 553 q 621 546 614 553 q 628 528 628 539 q 621 510 628 517 q 603 503 614 503 l 476 503 z "},"ﬁ":{"ha":829,"x_min":56,"x_max":721,"o":"m 492 953 q 349 903 403 953 q 296 767 296 853 l 296 694 l 719 694 l 719 0 l 596 0 l 596 599 l 296 599 l 296 0 l 172 0 l 172 599 l 56 599 l 56 694 l 172 694 l 172 772 q 257 978 172 901 q 479 1056 342 1056 q 721 996 601 1056 l 721 883 q 492 953 596 953 z "},"ﬂ":{"ha":956,"x_min":56,"x_max":969,"o":"m 901 124 l 969 40 q 824 -14 918 -14 q 669 44 726 -14 q 611 194 611 101 l 611 933 q 489 953 550 953 q 349 903 403 953 q 296 767 296 853 l 296 694 l 478 694 l 478 599 l 296 599 l 296 0 l 172 0 l 172 599 l 56 599 l 56 694 l 172 694 l 172 772 q 257 978 172 901 q 475 1056 342 1056 q 611 1039 550 1056 l 611 1042 l 733 1042 l 733 986 l 735 986 l 735 869 l 733 869 l 735 194 q 826 92 735 92 q 901 124 871 92 z "}}}
